{"glyphs":{"0":{"ha":826,"x_min":47,"x_max":775,"o":"m 321 -14 q 208 10 258 -14 q 122 78 157 35 q 67 182 86 122 q 47 314 47 242 q 85 515 47 421 q 185 678 122 608 q 331 789 249 749 q 501 829 413 829 q 615 805 564 829 q 701 737 665 781 q 756 633 736 693 q 775 500 775 572 q 737 299 775 393 q 635 136 699 206 q 490 26 572 67 q 321 -14 408 -14 m 372 228 q 421 248 397 228 q 463 301 444 268 q 493 379 482 335 q 504 472 504 424 q 490 556 504 524 q 450 588 476 588 q 398 567 422 588 q 355 512 374 546 q 325 433 336 478 q 314 342 314 389 q 329 259 314 290 q 372 228 344 228 z "},"1":{"ha":739,"x_min":-6,"x_max":669,"o":"m 44 236 l 232 236 l 290 513 q 247 480 275 496 q 185 450 218 464 q 117 428 151 436 q 58 419 83 419 l 110 661 q 163 676 128 661 q 236 710 199 690 q 306 753 274 731 q 350 793 339 776 l 619 793 l 501 236 l 669 236 l 619 0 l -6 0 l 44 236 z "},"2":{"ha":810,"x_min":-43,"x_max":774,"o":"m -43 0 q -7 122 -29 69 q 48 217 15 175 q 126 293 81 260 q 232 357 171 326 q 363 424 315 399 q 435 465 411 449 q 466 495 460 482 q 472 526 472 508 q 413 579 472 579 q 330 556 372 579 q 232 479 288 532 l 107 675 q 186 728 140 704 q 284 770 232 753 q 393 797 336 788 q 507 807 450 807 q 707 754 640 807 q 774 607 774 701 q 760 515 774 554 q 724 442 747 475 q 667 383 700 410 q 592 329 633 356 q 519 284 556 307 q 439 236 482 261 l 713 236 l 663 0 l -43 0 l -43 0 z "},"3":{"ha":779,"x_min":-81,"x_max":754,"o":"m 219 -204 q 45 -177 118 -204 q -81 -93 -28 -150 l 93 99 q 164 52 125 67 q 256 38 203 38 q 369 66 338 38 q 401 149 401 94 q 367 208 401 189 q 256 226 332 226 l 214 226 l 253 410 l 300 410 q 411 440 367 410 q 456 521 456 471 q 392 576 456 576 q 304 552 349 576 q 219 479 260 528 l 94 675 q 166 726 124 703 q 258 765 208 749 q 361 791 307 782 q 469 800 415 800 q 678 744 603 800 q 754 594 754 688 q 735 503 754 547 q 685 424 717 460 q 613 363 654 388 q 529 329 572 338 q 631 262 594 317 q 668 131 668 207 q 635 -8 668 54 q 544 -113 603 -69 q 402 -181 485 -157 q 219 -204 319 -204 z "},"4":{"ha":792,"x_min":-60,"x_max":704,"o":"m 271 -4 l -60 -4 l -10 232 l 524 793 l 704 793 l 585 232 l 701 232 l 651 -4 l 535 -4 l 499 -176 l 235 -176 l 271 -4 m 351 232 l 388 399 l 250 232 l 351 232 z "},"5":{"ha":750,"x_min":-69,"x_max":719,"o":"m 211 -207 q 33 -167 107 -207 q -69 -51 -40 -126 l 110 115 q 178 48 138 72 q 261 24 219 24 q 348 60 315 24 q 381 153 381 96 q 365 207 381 186 q 318 228 349 228 q 270 215 293 228 q 232 179 247 201 l 7 179 q 127 486 69 333 q 249 793 185 639 l 719 793 l 668 553 l 388 553 l 354 446 q 377 451 364 450 q 406 453 390 453 q 510 434 464 453 q 590 382 557 415 q 641 301 624 349 q 658 197 658 254 q 624 36 658 110 q 528 -92 589 -37 q 387 -176 468 -146 q 211 -207 306 -207 z "},"6":{"ha":824,"x_min":54,"x_max":838,"o":"m 325 -14 q 122 76 190 -14 q 54 325 54 165 q 92 589 54 467 q 197 801 129 711 q 358 943 264 892 q 567 994 453 994 q 838 861 736 994 l 656 692 q 514 767 600 767 q 410 726 453 767 q 347 610 367 685 q 490 657 407 657 q 601 637 551 657 q 687 581 651 617 q 741 497 722 546 q 760 392 760 449 q 724 236 760 310 q 628 107 689 163 q 490 19 568 51 q 325 -14 411 -14 m 372 207 q 418 219 394 207 q 460 253 442 232 q 491 301 479 274 q 503 357 503 328 q 481 424 503 397 q 424 450 460 450 q 376 439 399 450 q 335 408 353 428 q 306 363 317 389 q 294 308 294 338 q 316 237 294 267 q 372 207 338 207 z "},"7":{"ha":808,"x_min":-76,"x_max":889,"o":"m 422 571 l 76 571 l 128 811 l 889 811 l 222 -175 l -76 -175 l 422 571 z "},"8":{"ha":821,"x_min":24,"x_max":806,"o":"m 318 -14 q 203 5 257 -14 q 109 59 149 24 q 47 145 69 94 q 24 258 24 196 q 39 351 24 310 q 78 426 54 393 q 131 483 103 458 q 183 526 158 508 q 147 583 160 546 q 133 658 133 619 q 172 797 133 736 q 271 900 211 858 q 399 964 331 942 q 529 986 468 986 q 627 970 578 986 q 716 924 676 954 q 781 847 756 893 q 806 742 806 801 q 795 675 806 708 q 767 613 785 642 q 726 563 749 585 q 681 526 704 540 q 726 457 704 501 q 747 353 747 413 q 711 206 747 274 q 616 90 675 139 q 479 14 557 42 q 318 -14 401 -14 m 368 226 q 447 261 415 226 q 479 344 479 296 q 410 418 479 418 q 330 385 361 418 q 299 303 299 351 q 317 249 299 271 q 368 226 336 226 m 450 614 q 505 636 478 614 q 532 700 532 658 q 519 739 532 724 q 481 754 506 754 q 424 729 447 754 q 401 669 401 704 q 416 628 401 642 q 450 614 431 614 z "},"9":{"ha":797,"x_min":-40,"x_max":743,"o":"m 232 -215 q -40 -82 64 -215 l 142 88 q 285 13 197 13 q 388 53 344 13 q 451 169 432 94 q 308 122 390 122 q 197 142 247 122 q 112 198 147 163 q 58 282 76 233 q 39 388 39 331 q 74 543 39 469 q 169 672 110 617 q 308 760 229 728 q 472 793 386 793 q 675 703 607 793 q 743 454 743 614 q 706 190 743 313 q 601 -22 668 68 q 440 -164 533 -112 q 232 -215 346 -215 m 374 329 q 422 340 399 329 q 463 371 444 351 q 492 416 481 390 q 503 471 503 442 q 481 542 503 513 q 425 572 460 572 q 379 560 403 572 q 337 526 356 547 q 306 478 318 506 q 294 422 294 451 q 316 356 294 382 q 374 329 338 329 z "}," ":{"ha":310,"x_min":0,"x_max":0,"o":""},"Ǽ":{"ha":1299,"x_min":-111,"x_max":1365,"o":"m 911 1058 l 733 1075 l 840 1272 l 1074 1272 l 911 1058 m 664 986 l 1365 986 l 1314 750 l 954 750 l 926 619 l 1215 619 l 1165 383 l 876 383 l 846 236 l 1217 236 l 1167 0 l 525 0 l 567 193 l 307 193 l 175 0 l -111 0 l 664 986 m 596 429 l 650 688 l 471 429 l 596 429 z "},"´":{"ha":381,"x_min":21,"x_max":361,"o":"m 199 800 l 21 817 l 128 1014 l 361 1014 l 199 800 z "},"Á":{"ha":883,"x_min":-85,"x_max":803,"o":"m 444 986 l 693 986 l 803 0 l 528 0 l 518 193 l 282 193 l 192 0 l -85 0 l 444 986 m 514 374 l 503 679 l 360 374 l 514 374 m 639 1058 l 461 1075 l 568 1272 l 801 1272 l 639 1058 z "},"Ă":{"ha":883,"x_min":-85,"x_max":828,"o":"m 444 986 l 693 986 l 803 0 l 528 0 l 518 193 l 282 193 l 192 0 l -85 0 l 444 986 m 514 374 l 503 679 l 360 374 l 514 374 m 588 1160 q 647 1192 618 1160 q 692 1272 676 1224 l 828 1272 q 792 1181 817 1222 q 733 1110 768 1140 q 655 1064 699 1081 q 564 1047 611 1047 q 434 1093 481 1047 q 388 1215 388 1139 q 394 1272 388 1240 l 531 1272 q 526 1240 526 1256 q 543 1183 526 1206 q 588 1160 560 1160 z "},"˘":{"ha":494,"x_min":28,"x_max":468,"o":"m 228 901 q 288 933 258 901 q 332 1014 317 965 l 468 1014 q 433 923 457 964 q 374 852 408 882 q 295 806 339 822 q 204 789 251 789 q 74 835 121 789 q 28 957 28 881 q 35 1014 28 982 l 171 1014 q 167 982 167 997 q 183 924 167 947 q 228 901 200 901 z "},"Â":{"ha":883,"x_min":-85,"x_max":842,"o":"m 444 986 l 693 986 l 803 0 l 528 0 l 518 193 l 282 193 l 192 0 l -85 0 l 444 986 m 514 374 l 503 679 l 360 374 l 514 374 m 351 1113 l 536 1272 l 725 1272 l 842 1113 l 696 1054 l 603 1142 l 472 1054 l 351 1113 z "},"ˆ":{"ha":539,"x_min":25,"x_max":515,"o":"m 25 854 l 210 1014 l 399 1014 l 515 854 l 369 796 l 276 883 l 146 796 l 25 854 z "},"Ä":{"ha":883,"x_min":-85,"x_max":885,"o":"m 444 986 l 693 986 l 803 0 l 528 0 l 518 193 l 282 193 l 192 0 l -85 0 l 444 986 m 514 374 l 503 679 l 360 374 l 514 374 m 315 1065 l 357 1260 l 574 1260 l 532 1065 l 315 1065 m 628 1065 l 669 1260 l 885 1260 l 844 1065 l 628 1065 z "},"¨":{"ha":772,"x_min":101,"x_max":671,"o":"m 101 806 l 143 1000 l 360 1000 l 318 806 l 101 806 m 414 806 l 456 1000 l 671 1000 l 631 806 l 414 806 z "},"À":{"ha":883,"x_min":-85,"x_max":803,"o":"m 444 986 l 693 986 l 803 0 l 528 0 l 518 193 l 282 193 l 192 0 l -85 0 l 444 986 m 514 374 l 503 679 l 360 374 l 514 374 m 421 1274 l 654 1274 l 678 1076 l 494 1057 l 421 1274 z "},"`":{"ha":382,"x_min":63,"x_max":319,"o":"m 63 1014 l 296 1014 l 319 817 l 136 797 l 63 1014 z "},"Ā":{"ha":883,"x_min":-85,"x_max":826,"o":"m 444 986 l 693 986 l 803 0 l 528 0 l 518 193 l 282 193 l 192 0 l -85 0 l 444 986 m 514 374 l 503 679 l 360 374 l 514 374 m 382 1101 l 415 1258 l 826 1258 l 793 1101 l 382 1101 z "},"¯":{"ha":583,"x_min":69,"x_max":514,"o":"m 69 843 l 103 1000 l 514 1000 l 481 843 l 69 843 z "},"Ą":{"ha":883,"x_min":-85,"x_max":803,"o":"m 692 -299 q 553 -253 597 -287 q 510 -175 510 -219 q 548 -86 510 -132 q 661 0 586 -40 l 528 0 l 518 193 l 282 193 l 192 0 l -85 0 l 444 986 l 693 986 l 803 0 q 716 -61 747 -32 q 685 -115 685 -90 q 705 -147 685 -135 q 769 -160 725 -160 l 692 -299 m 514 374 l 503 679 l 360 374 l 514 374 z "},"˛":{"ha":449,"x_min":64,"x_max":357,"o":"m 246 -297 q 108 -252 151 -286 q 64 -174 64 -218 q 121 -65 64 -121 q 286 35 178 -10 l 357 1 q 270 -60 301 -31 q 239 -114 239 -89 q 259 -146 239 -133 q 324 -158 279 -158 l 246 -297 l 246 -297 z "},"Å":{"ha":883,"x_min":-85,"x_max":803,"o":"m 444 986 l 693 986 l 803 0 l 528 0 l 518 193 l 282 193 l 192 0 l -85 0 l 444 986 m 514 374 l 503 679 l 360 374 l 514 374 m 431 1128 q 483 1235 431 1199 q 619 1272 535 1272 q 719 1248 683 1272 q 756 1175 756 1224 q 703 1067 756 1104 q 568 1031 651 1031 q 467 1055 504 1031 q 431 1128 431 1079 m 603 1197 q 558 1183 576 1197 q 540 1144 540 1168 q 583 1106 540 1106 q 628 1121 608 1106 q 647 1160 647 1136 q 635 1187 647 1176 q 603 1197 622 1197 z "},"˚":{"ha":365,"x_min":21,"x_max":346,"o":"m 21 869 q 73 977 21 940 q 210 1014 125 1014 q 310 990 274 1014 q 346 917 346 965 q 294 809 346 846 q 158 772 242 772 q 58 797 94 772 q 21 869 21 821 m 193 939 q 149 924 167 939 q 131 886 131 910 q 174 847 131 847 q 218 863 199 847 q 238 901 238 878 q 225 928 238 918 q 193 939 213 939 z "},"Ǻ":{"ha":883,"x_min":-85,"x_max":836,"o":"m 704 1122 q 735 1054 735 1099 q 696 958 735 994 l 803 0 l 528 0 l 518 193 l 282 193 l 192 0 l -85 0 l 426 953 q 410 1007 410 974 q 439 1093 410 1060 q 519 1142 468 1126 l 603 1288 l 836 1288 l 704 1122 m 514 374 l 503 679 l 360 374 l 514 374 m 582 1076 q 538 1062 556 1076 q 519 1024 519 1047 q 563 985 519 985 q 607 1000 588 985 q 626 1039 626 1015 q 614 1066 626 1056 q 582 1076 601 1076 z "},"Ã":{"ha":883,"x_min":-85,"x_max":908,"o":"m 444 986 l 693 986 l 803 0 l 528 0 l 518 193 l 282 193 l 192 0 l -85 0 l 444 986 m 514 374 l 503 679 l 360 374 l 514 374 m 668 1053 q 617 1063 638 1053 q 578 1086 596 1074 q 544 1109 561 1099 q 504 1119 526 1119 q 467 1110 482 1119 q 444 1088 453 1100 q 433 1065 436 1075 q 431 1053 431 1054 l 290 1053 q 313 1108 294 1071 q 361 1181 331 1144 q 433 1244 392 1217 q 525 1272 475 1272 q 579 1261 558 1272 q 617 1237 600 1250 q 651 1213 635 1224 q 689 1201 667 1201 q 725 1212 710 1201 q 750 1235 740 1222 q 765 1260 760 1249 q 769 1272 769 1271 l 908 1272 q 887 1224 906 1260 q 837 1151 868 1189 q 763 1083 806 1113 q 668 1053 719 1053 z "},"˜":{"ha":619,"x_min":0,"x_max":618,"o":"m 378 794 q 326 805 347 794 q 288 828 306 815 q 253 851 271 840 q 214 861 236 861 q 177 851 192 861 q 154 829 163 842 q 143 806 146 817 q 140 794 140 796 l 0 794 q 22 849 4 813 q 71 922 40 886 q 143 986 101 958 q 235 1014 185 1014 q 289 1003 268 1014 q 327 978 310 992 q 360 954 344 965 q 399 943 376 943 q 435 953 419 943 q 460 977 450 964 q 474 1001 469 990 q 479 1014 479 1013 l 618 1014 q 597 966 615 1001 q 547 892 578 931 q 472 824 515 854 q 378 794 429 794 z "},"B":{"ha":926,"x_min":-4,"x_max":924,"o":"m 206 986 l 757 986 q 830 969 799 986 q 882 924 861 951 q 913 859 903 896 q 924 783 924 822 q 911 701 924 742 q 874 622 899 660 q 815 554 850 585 q 733 506 779 524 q 828 437 794 486 q 863 313 863 388 q 829 170 863 229 q 740 74 796 111 q 611 18 685 36 q 458 0 538 0 l -4 0 l 206 986 m 507 228 q 567 255 540 228 q 594 331 594 282 q 583 376 594 358 q 550 393 571 393 l 350 393 l 315 228 l 507 228 m 558 604 q 587 609 572 604 q 613 625 601 614 q 633 655 625 636 q 640 703 640 674 q 628 743 640 731 q 599 756 617 756 l 428 756 l 394 604 l 558 604 z "},"C":{"ha":922,"x_min":39,"x_max":978,"o":"m 415 -8 q 256 27 325 -8 q 138 122 186 63 q 64 256 89 181 q 39 414 39 332 q 84 619 39 517 q 209 805 129 722 q 398 940 289 888 q 636 992 507 992 q 861 933 772 992 q 978 776 950 874 l 740 629 q 719 689 735 665 q 680 726 703 713 q 631 746 657 740 q 579 751 604 751 q 466 721 515 751 q 383 643 417 690 q 333 540 350 596 q 315 432 315 483 q 325 355 315 392 q 354 291 335 318 q 403 248 374 264 q 472 232 432 232 q 526 238 497 232 q 581 259 554 244 q 633 297 608 274 q 675 353 657 319 l 868 221 q 784 124 836 167 q 670 51 732 81 q 542 7 608 22 q 415 -8 475 -8 z "},"Ć":{"ha":922,"x_min":39,"x_max":978,"o":"m 738 1058 l 560 1075 l 667 1272 l 900 1272 l 738 1058 m 415 -8 q 256 27 325 -8 q 138 122 186 63 q 64 256 89 181 q 39 414 39 332 q 84 619 39 517 q 209 805 129 722 q 398 940 289 888 q 636 992 507 992 q 861 933 772 992 q 978 776 950 874 l 740 629 q 719 689 735 665 q 680 726 703 713 q 631 746 657 740 q 579 751 604 751 q 466 721 515 751 q 383 643 417 690 q 333 540 350 596 q 315 432 315 483 q 325 355 315 392 q 354 291 335 318 q 403 248 374 264 q 472 232 432 232 q 526 238 497 232 q 581 259 554 244 q 633 297 608 274 q 675 353 657 319 l 868 221 q 784 124 836 167 q 670 51 732 81 q 542 7 608 22 q 415 -8 475 -8 z "},"Č":{"ha":922,"x_min":39,"x_max":978,"o":"m 432 1214 l 578 1272 l 671 1185 l 801 1272 l 922 1214 l 738 1054 l 549 1054 l 432 1214 m 415 -8 q 256 27 325 -8 q 138 122 186 63 q 64 256 89 181 q 39 414 39 332 q 84 619 39 517 q 209 805 129 722 q 398 940 289 888 q 636 992 507 992 q 861 933 772 992 q 978 776 950 874 l 740 629 q 719 689 735 665 q 680 726 703 713 q 631 746 657 740 q 579 751 604 751 q 466 721 515 751 q 383 643 417 690 q 333 540 350 596 q 315 432 315 483 q 325 355 315 392 q 354 291 335 318 q 403 248 374 264 q 472 232 432 232 q 526 238 497 232 q 581 259 554 244 q 633 297 608 274 q 675 353 657 319 l 868 221 q 784 124 836 167 q 670 51 732 81 q 542 7 608 22 q 415 -8 475 -8 z "},"ˇ":{"ha":539,"x_min":25,"x_max":515,"o":"m 25 956 l 171 1014 l 264 926 l 394 1014 l 515 956 l 331 796 l 142 796 l 25 956 z "},"Ç":{"ha":922,"x_min":39,"x_max":978,"o":"m 272 -178 q 317 -197 283 -187 q 386 -206 350 -206 q 444 -194 419 -206 q 469 -156 469 -183 q 452 -128 469 -136 q 404 -121 435 -121 q 344 -126 376 -121 q 297 -133 313 -131 l 383 -7 q 237 36 301 -1 q 128 132 172 74 q 62 263 85 190 q 39 414 39 336 q 84 619 39 517 q 209 805 129 722 q 398 940 289 888 q 636 992 507 992 q 861 933 772 992 q 978 776 950 874 l 740 629 q 719 689 735 665 q 680 726 703 713 q 631 746 657 740 q 579 751 604 751 q 466 721 515 751 q 383 643 417 690 q 333 540 350 596 q 315 432 315 483 q 325 355 315 392 q 354 291 335 318 q 403 248 374 264 q 472 232 432 232 q 526 238 497 232 q 581 259 554 244 q 633 297 608 274 q 675 353 657 319 l 868 221 q 798 135 840 174 q 705 69 756 97 q 598 23 654 42 q 488 -3 542 4 l 449 -47 q 465 -45 456 -46 q 483 -44 474 -44 q 557 -65 525 -44 q 589 -132 589 -85 q 574 -193 589 -164 q 531 -245 560 -222 q 456 -282 501 -268 q 350 -296 411 -296 q 265 -287 301 -296 q 206 -267 229 -278 l 272 -178 z "},"¸":{"ha":486,"x_min":-31,"x_max":353,"o":"m 36 -178 q 81 -197 47 -187 q 150 -206 114 -206 q 208 -194 183 -206 q 233 -156 233 -183 q 216 -128 233 -136 q 168 -121 199 -121 q 108 -126 140 -121 q 61 -133 76 -131 l 186 50 l 275 24 l 213 -47 q 228 -45 219 -46 q 247 -44 238 -44 q 321 -65 289 -44 q 353 -132 353 -85 q 338 -193 353 -164 q 294 -245 324 -222 q 220 -282 265 -268 q 114 -296 175 -296 q 29 -287 65 -296 q -31 -267 -7 -278 l 36 -178 z "},"Ĉ":{"ha":922,"x_min":39,"x_max":978,"o":"m 415 1113 l 600 1272 l 789 1272 l 906 1113 l 760 1054 l 667 1142 l 536 1054 l 415 1113 m 415 -8 q 256 27 325 -8 q 138 122 186 63 q 64 256 89 181 q 39 414 39 332 q 84 619 39 517 q 209 805 129 722 q 398 940 289 888 q 636 992 507 992 q 861 933 772 992 q 978 776 950 874 l 740 629 q 719 689 735 665 q 680 726 703 713 q 631 746 657 740 q 579 751 604 751 q 466 721 515 751 q 383 643 417 690 q 333 540 350 596 q 315 432 315 483 q 325 355 315 392 q 354 291 335 318 q 403 248 374 264 q 472 232 432 232 q 526 238 497 232 q 581 259 554 244 q 633 297 608 274 q 675 353 657 319 l 868 221 q 784 124 836 167 q 670 51 732 81 q 542 7 608 22 q 415 -8 475 -8 z "},"Ċ":{"ha":922,"x_min":39,"x_max":978,"o":"m 415 -8 q 256 27 325 -8 q 138 122 186 63 q 64 256 89 181 q 39 414 39 332 q 84 619 39 517 q 209 805 129 722 q 398 940 289 888 q 636 992 507 992 q 861 933 772 992 q 978 776 950 874 l 740 629 q 719 689 735 665 q 680 726 703 713 q 631 746 657 740 q 579 751 604 751 q 466 721 515 751 q 383 643 417 690 q 333 540 350 596 q 315 432 315 483 q 325 355 315 392 q 354 291 335 318 q 403 248 374 264 q 472 232 432 232 q 526 238 497 232 q 581 259 554 244 q 633 297 608 274 q 675 353 657 319 l 868 221 q 784 124 836 167 q 670 51 732 81 q 542 7 608 22 q 415 -8 475 -8 m 535 1064 l 579 1272 l 815 1272 l 771 1064 l 535 1064 z "},"˙":{"ha":368,"x_min":44,"x_max":325,"o":"m 44 806 l 89 1014 l 325 1014 l 281 806 l 44 806 z "},"D":{"ha":963,"x_min":-4,"x_max":953,"o":"m 206 986 l 569 986 q 739 956 667 986 q 859 874 811 926 q 930 752 907 822 q 953 601 953 682 q 908 360 953 471 q 783 170 863 250 q 594 45 703 90 q 360 0 486 0 l -4 0 l 206 986 m 410 236 q 517 263 468 236 q 600 334 565 289 q 654 438 635 379 q 674 563 674 497 q 634 699 674 647 q 519 750 594 750 l 426 750 l 317 236 l 410 236 z "},"Ď":{"ha":963,"x_min":-4,"x_max":953,"o":"m 347 1214 l 493 1272 l 586 1185 l 717 1272 l 838 1214 l 653 1054 l 464 1054 l 347 1214 m 206 986 l 569 986 q 739 956 667 986 q 859 874 811 926 q 930 752 907 822 q 953 601 953 682 q 908 360 953 471 q 783 170 863 250 q 594 45 703 90 q 360 0 486 0 l -4 0 l 206 986 m 410 236 q 517 263 468 236 q 600 334 565 289 q 654 438 635 379 q 674 563 674 497 q 634 699 674 647 q 519 750 594 750 l 426 750 l 317 236 l 410 236 z "},"Đ":{"ha":967,"x_min":0,"x_max":957,"o":"m 79 593 l 126 593 l 210 986 l 574 986 q 743 956 671 986 q 863 874 815 926 q 934 752 911 822 q 957 601 957 682 q 912 360 957 471 q 787 170 867 250 q 599 45 707 90 q 364 0 490 0 l 0 0 l 85 399 l 39 399 l 79 593 m 414 236 q 521 263 472 236 q 604 334 569 289 q 658 438 639 379 q 678 563 678 497 q 638 699 678 647 q 524 750 599 750 l 431 750 l 397 593 l 542 593 l 500 399 l 356 399 l 321 236 l 414 236 z "},"E":{"ha":799,"x_min":-4,"x_max":864,"o":"m 206 986 l 864 986 l 814 750 l 426 750 l 397 611 l 728 611 l 681 392 l 350 392 l 317 236 l 717 236 l 667 0 l -4 0 l 206 986 z "},"É":{"ha":799,"x_min":-4,"x_max":864,"o":"m 599 1058 l 421 1075 l 528 1272 l 761 1272 l 599 1058 m 206 986 l 864 986 l 814 750 l 426 750 l 397 611 l 728 611 l 681 392 l 350 392 l 317 236 l 717 236 l 667 0 l -4 0 l 206 986 z "},"Ĕ":{"ha":799,"x_min":-4,"x_max":864,"o":"m 206 986 l 864 986 l 814 750 l 426 750 l 397 611 l 728 611 l 681 392 l 350 392 l 317 236 l 717 236 l 667 0 l -4 0 l 206 986 m 556 1160 q 615 1192 586 1160 q 660 1272 644 1224 l 796 1272 q 760 1181 785 1222 q 701 1110 736 1140 q 623 1064 667 1081 q 532 1047 579 1047 q 402 1093 449 1047 q 356 1215 356 1139 q 363 1272 356 1240 l 499 1272 q 494 1240 494 1256 q 511 1183 494 1206 q 556 1160 528 1160 z "},"Ě":{"ha":799,"x_min":-4,"x_max":864,"o":"m 325 1214 l 471 1272 l 564 1185 l 694 1272 l 815 1214 l 631 1054 l 442 1054 l 325 1214 m 206 986 l 864 986 l 814 750 l 426 750 l 397 611 l 728 611 l 681 392 l 350 392 l 317 236 l 717 236 l 667 0 l -4 0 l 206 986 z "},"Ê":{"ha":799,"x_min":-4,"x_max":864,"o":"m 300 1113 l 485 1272 l 674 1272 l 790 1113 l 644 1054 l 551 1142 l 421 1054 l 300 1113 m 206 986 l 864 986 l 814 750 l 426 750 l 397 611 l 728 611 l 681 392 l 350 392 l 317 236 l 717 236 l 667 0 l -4 0 l 206 986 z "},"Ë":{"ha":799,"x_min":-4,"x_max":864,"o":"m 282 1065 l 324 1260 l 540 1260 l 499 1065 l 282 1065 m 594 1065 l 636 1260 l 851 1260 l 811 1065 l 594 1065 m 206 986 l 864 986 l 814 750 l 426 750 l 397 611 l 728 611 l 681 392 l 350 392 l 317 236 l 717 236 l 667 0 l -4 0 l 206 986 z "},"Ė":{"ha":799,"x_min":-4,"x_max":864,"o":"m 206 986 l 864 986 l 814 750 l 426 750 l 397 611 l 728 611 l 681 392 l 350 392 l 317 236 l 717 236 l 667 0 l -4 0 l 206 986 m 426 1064 l 471 1272 l 707 1272 l 663 1064 l 426 1064 z "},"È":{"ha":799,"x_min":-4,"x_max":864,"o":"m 206 986 l 864 986 l 814 750 l 426 750 l 397 611 l 728 611 l 681 392 l 350 392 l 317 236 l 717 236 l 667 0 l -4 0 l 206 986 m 407 1274 l 640 1274 l 664 1076 l 481 1057 l 407 1274 z "},"Ē":{"ha":799,"x_min":-4,"x_max":864,"o":"m 206 986 l 864 986 l 814 750 l 426 750 l 397 611 l 728 611 l 681 392 l 350 392 l 317 236 l 717 236 l 667 0 l -4 0 l 206 986 m 350 1101 l 383 1258 l 794 1258 l 761 1101 l 350 1101 z "},"Ŋ":{"ha":979,"x_min":-4,"x_max":1015,"o":"m 467 -290 q 282 -215 353 -290 l 428 -36 q 482 -64 444 -64 q 542 -4 528 -64 l 556 61 l 368 476 l 267 0 l -4 0 l 206 986 l 414 986 l 642 499 l 744 985 l 1015 985 l 807 7 q 759 -116 792 -61 q 681 -210 726 -171 q 581 -269 636 -249 q 467 -290 526 -290 z "},"Ę":{"ha":799,"x_min":-4,"x_max":864,"o":"m 206 986 l 864 986 l 814 750 l 426 750 l 397 611 l 728 611 l 681 392 l 350 392 l 317 236 l 717 236 l 667 0 l 411 0 q 326 -60 357 -31 q 296 -114 296 -89 q 316 -146 296 -133 q 381 -158 336 -158 l 303 -297 q 165 -252 208 -286 q 121 -174 121 -218 q 158 -85 121 -131 q 269 0 196 -40 l -4 0 l 206 986 z "},"Ð":{"ha":967,"x_min":0,"x_max":957,"o":"m 79 593 l 126 593 l 210 986 l 574 986 q 743 956 671 986 q 863 874 815 926 q 934 752 911 822 q 957 601 957 682 q 912 360 957 471 q 787 170 867 250 q 599 45 707 90 q 364 0 490 0 l 0 0 l 85 399 l 39 399 l 79 593 m 414 236 q 521 263 472 236 q 604 334 569 289 q 658 438 639 379 q 678 563 678 497 q 638 699 678 647 q 524 750 599 750 l 431 750 l 397 593 l 542 593 l 500 399 l 356 399 l 321 236 l 414 236 z "},"Ẽ":{"ha":799,"x_min":-4,"x_max":868,"o":"m 206 986 l 864 986 l 814 750 l 426 750 l 397 611 l 728 611 l 681 392 l 350 392 l 317 236 l 717 236 l 667 0 l -4 0 l 206 986 m 628 1053 q 576 1063 597 1053 q 538 1086 556 1074 q 503 1109 521 1099 q 464 1119 486 1119 q 427 1110 442 1119 q 404 1088 413 1100 q 393 1065 396 1075 q 390 1053 390 1054 l 250 1053 q 272 1108 254 1071 q 321 1181 290 1144 q 393 1244 351 1217 q 485 1272 435 1272 q 539 1261 518 1272 q 577 1237 560 1250 q 610 1213 594 1224 q 649 1201 626 1201 q 685 1212 669 1201 q 710 1235 700 1222 q 724 1260 719 1249 q 729 1272 729 1271 l 868 1272 q 847 1224 865 1260 q 797 1151 828 1189 q 722 1083 765 1113 q 628 1053 679 1053 z "},"€":{"ha":1067,"x_min":25,"x_max":1081,"o":"m 199 644 q 288 778 233 715 q 411 889 342 842 q 563 964 481 936 q 739 992 646 992 q 964 933 875 992 q 1081 776 1053 874 l 843 629 q 822 689 838 665 q 783 726 806 713 q 733 746 760 740 q 682 751 707 751 q 569 722 618 751 q 486 644 519 692 l 717 644 l 632 506 l 426 506 q 418 446 418 474 l 638 446 l 553 307 l 446 307 q 497 252 465 272 q 575 232 529 232 q 628 238 600 232 q 683 259 656 244 q 735 297 710 274 q 778 353 760 319 l 971 221 q 887 124 939 167 q 773 51 835 81 q 644 7 711 22 q 518 -8 578 -8 q 382 17 443 -8 q 274 84 321 42 q 197 184 228 126 q 153 307 167 242 l 25 307 l 110 446 l 143 446 q 151 506 144 474 l 64 506 l 149 644 l 199 644 z "},"F":{"ha":758,"x_min":-4,"x_max":850,"o":"m 206 986 l 850 986 l 800 750 l 426 750 l 392 586 l 694 586 l 649 367 l 344 367 l 267 0 l -4 0 l 206 986 z "},"G":{"ha":988,"x_min":39,"x_max":982,"o":"m 647 83 q 528 15 586 36 q 403 -7 469 -7 q 258 20 325 -7 q 143 99 192 47 q 67 224 94 150 q 39 392 39 297 q 90 628 39 518 q 225 819 140 738 q 418 947 310 900 q 643 993 526 993 q 761 978 706 993 q 861 935 817 964 q 936 867 906 907 q 982 778 967 828 l 749 624 q 688 717 733 682 q 582 753 642 753 q 482 727 529 753 q 398 658 435 701 q 340 554 361 614 q 318 426 318 494 q 360 286 318 339 q 478 233 401 233 q 692 331 586 233 l 531 331 l 571 525 l 965 525 l 853 0 l 631 0 l 647 83 z "},"Ğ":{"ha":988,"x_min":39,"x_max":982,"o":"m 647 83 q 528 15 586 36 q 403 -7 469 -7 q 258 20 325 -7 q 143 99 192 47 q 67 224 94 150 q 39 392 39 297 q 90 628 39 518 q 225 819 140 738 q 418 947 310 900 q 643 993 526 993 q 761 978 706 993 q 861 935 817 964 q 936 867 906 907 q 982 778 967 828 l 749 624 q 688 717 733 682 q 582 753 642 753 q 482 727 529 753 q 398 658 435 701 q 340 554 361 614 q 318 426 318 494 q 360 286 318 339 q 478 233 401 233 q 692 331 586 233 l 531 331 l 571 525 l 965 525 l 853 0 l 631 0 l 647 83 m 667 1160 q 726 1192 697 1160 q 771 1272 756 1224 l 907 1272 q 872 1181 896 1222 q 813 1110 847 1140 q 734 1064 778 1081 q 643 1047 690 1047 q 513 1093 560 1047 q 467 1215 467 1139 q 474 1272 467 1240 l 610 1272 q 606 1240 606 1256 q 622 1183 606 1206 q 667 1160 639 1160 z "},"Ĝ":{"ha":988,"x_min":39,"x_max":982,"o":"m 422 1113 l 607 1272 l 796 1272 l 913 1113 l 767 1054 l 674 1142 l 543 1054 l 422 1113 m 647 83 q 528 15 586 36 q 403 -7 469 -7 q 258 20 325 -7 q 143 99 192 47 q 67 224 94 150 q 39 392 39 297 q 90 628 39 518 q 225 819 140 738 q 418 947 310 900 q 643 993 526 993 q 761 978 706 993 q 861 935 817 964 q 936 867 906 907 q 982 778 967 828 l 749 624 q 688 717 733 682 q 582 753 642 753 q 482 727 529 753 q 398 658 435 701 q 340 554 361 614 q 318 426 318 494 q 360 286 318 339 q 478 233 401 233 q 692 331 586 233 l 531 331 l 571 525 l 965 525 l 853 0 l 631 0 l 647 83 z "},"Ģ":{"ha":988,"x_min":39,"x_max":982,"o":"m 285 -296 l 353 -211 l 274 -211 l 306 -64 l 522 -64 l 492 -211 l 399 -296 l 285 -296 m 647 83 q 528 15 586 36 q 403 -7 469 -7 q 258 20 325 -7 q 143 99 192 47 q 67 224 94 150 q 39 392 39 297 q 90 628 39 518 q 225 819 140 738 q 418 947 310 900 q 643 993 526 993 q 761 978 706 993 q 861 935 817 964 q 936 867 906 907 q 982 778 967 828 l 749 624 q 688 717 733 682 q 582 753 642 753 q 482 727 529 753 q 398 658 435 701 q 340 554 361 614 q 318 426 318 494 q 360 286 318 339 q 478 233 401 233 q 692 331 586 233 l 531 331 l 571 525 l 965 525 l 853 0 l 631 0 l 647 83 z "},"":{"ha":328,"x_min":40,"x_max":289,"o":"m 51 -296 l 119 -211 l 40 -211 l 72 -64 l 289 -64 l 258 -211 l 165 -296 l 51 -296 z "},"Ġ":{"ha":988,"x_min":39,"x_max":982,"o":"m 647 83 q 528 15 586 36 q 403 -7 469 -7 q 258 20 325 -7 q 143 99 192 47 q 67 224 94 150 q 39 392 39 297 q 90 628 39 518 q 225 819 140 738 q 418 947 310 900 q 643 993 526 993 q 761 978 706 993 q 861 935 817 964 q 936 867 906 907 q 982 778 967 828 l 749 624 q 688 717 733 682 q 582 753 642 753 q 482 727 529 753 q 398 658 435 701 q 340 554 361 614 q 318 426 318 494 q 360 286 318 339 q 478 233 401 233 q 692 331 586 233 l 531 331 l 571 525 l 965 525 l 853 0 l 631 0 l 647 83 m 538 1064 l 582 1272 l 818 1272 l 774 1064 l 538 1064 z "},"H":{"ha":1006,"x_min":-4,"x_max":1042,"o":"m 206 986 l 476 986 l 399 622 l 693 622 l 771 986 l 1042 986 l 832 0 l 561 0 l 643 386 l 349 386 l 267 0 l -4 0 l 206 986 z "},"Ħ":{"ha":1013,"x_min":0,"x_max":1086,"o":"m 119 869 l 185 869 l 210 986 l 481 986 l 456 869 l 750 869 l 775 986 l 1046 986 l 1021 869 l 1086 869 l 1061 747 l 994 747 l 836 0 l 565 0 l 647 386 l 353 386 l 271 0 l 0 0 l 158 747 l 93 747 l 119 869 m 697 622 l 724 747 l 429 747 l 403 622 l 697 622 z "},"Ĥ":{"ha":1006,"x_min":-4,"x_max":1042,"o":"m 407 1113 l 592 1272 l 781 1272 l 897 1113 l 751 1054 l 658 1142 l 528 1054 l 407 1113 m 206 986 l 476 986 l 399 622 l 693 622 l 771 986 l 1042 986 l 832 0 l 561 0 l 643 386 l 349 386 l 267 0 l -4 0 l 206 986 z "},"I":{"ha":440,"x_min":-4,"x_max":476,"o":"m 206 986 l 476 986 l 267 0 l -4 0 l 206 986 z "},"Ĳ":{"ha":1118,"x_min":-4,"x_max":1165,"o":"m 206 986 l 476 986 l 267 0 l -4 0 l 206 986 m 564 -15 q 374 46 446 -15 l 476 267 q 490 257 479 264 q 520 243 501 250 q 563 231 539 236 q 615 225 588 225 q 680 239 654 225 q 724 284 706 253 q 758 365 743 315 q 788 485 772 414 l 894 986 l 1165 986 l 1058 485 q 1003 280 1035 372 q 917 122 971 188 q 778 21 863 57 q 564 -15 693 -15 z "},"J":{"ha":678,"x_min":-67,"x_max":725,"o":"m 124 -15 q -67 46 6 -15 l 36 267 q 50 257 39 264 q 80 243 61 250 q 123 231 99 236 q 175 225 147 225 q 240 239 214 225 q 284 284 265 253 q 317 365 303 315 q 347 485 332 414 l 454 986 l 725 986 l 618 485 q 563 280 594 372 q 476 122 531 188 q 338 21 422 57 q 124 -15 253 -15 z "},"Í":{"ha":440,"x_min":-4,"x_max":567,"o":"m 206 986 l 476 986 l 267 0 l -4 0 l 206 986 m 404 1058 l 226 1075 l 333 1272 l 567 1272 l 404 1058 z "},"Ĭ":{"ha":440,"x_min":-4,"x_max":618,"o":"m 206 986 l 476 986 l 267 0 l -4 0 l 206 986 m 378 1160 q 438 1192 408 1160 q 482 1272 467 1224 l 618 1272 q 583 1181 607 1222 q 524 1110 558 1140 q 445 1064 489 1081 q 354 1047 401 1047 q 224 1093 271 1047 q 178 1215 178 1139 q 185 1272 178 1240 l 321 1272 q 317 1240 317 1256 q 333 1183 317 1206 q 378 1160 350 1160 z "},"Î":{"ha":440,"x_min":-4,"x_max":618,"o":"m 206 986 l 476 986 l 267 0 l -4 0 l 206 986 m 128 1113 l 313 1272 l 501 1272 l 618 1113 l 472 1054 l 379 1142 l 249 1054 l 128 1113 z "},"Ï":{"ha":440,"x_min":-4,"x_max":664,"o":"m 206 986 l 476 986 l 267 0 l -4 0 l 206 986 m 94 1065 l 136 1260 l 353 1260 l 311 1065 l 94 1065 m 407 1065 l 449 1260 l 664 1260 l 624 1065 l 407 1065 z "},"İ":{"ha":440,"x_min":-4,"x_max":524,"o":"m 206 986 l 476 986 l 267 0 l -4 0 l 206 986 m 243 1064 l 288 1272 l 524 1272 l 479 1064 l 243 1064 z "},"Ì":{"ha":440,"x_min":-4,"x_max":476,"o":"m 206 986 l 476 986 l 267 0 l -4 0 l 206 986 m 215 1274 l 449 1274 l 472 1076 l 289 1057 l 215 1274 z "},"Ī":{"ha":440,"x_min":-4,"x_max":606,"o":"m 206 986 l 476 986 l 267 0 l -4 0 l 206 986 m 161 1101 l 194 1258 l 606 1258 l 572 1101 l 161 1101 z "},"Į":{"ha":440,"x_min":-26,"x_max":476,"o":"m 206 986 l 476 986 l 267 1 q 179 -60 210 -31 q 149 -114 149 -89 q 169 -146 149 -133 q 233 -158 189 -158 l 156 -297 q 17 -252 61 -286 q -26 -174 -26 -218 q 11 -85 -26 -131 q 122 0 49 -40 l -4 0 l 206 986 z "},"Ĩ":{"ha":440,"x_min":-4,"x_max":693,"o":"m 206 986 l 476 986 l 267 0 l -4 0 l 206 986 m 453 1053 q 401 1063 422 1053 q 363 1086 381 1074 q 328 1109 346 1099 q 289 1119 311 1119 q 252 1110 267 1119 q 229 1088 238 1100 q 218 1065 221 1075 q 215 1053 215 1054 l 75 1053 q 97 1108 79 1071 q 146 1181 115 1144 q 218 1244 176 1217 q 310 1272 260 1272 q 364 1261 343 1272 q 402 1237 385 1250 q 435 1213 419 1224 q 474 1201 451 1201 q 510 1212 494 1201 q 535 1235 525 1222 q 549 1260 544 1249 q 554 1272 554 1271 l 693 1272 q 672 1224 690 1260 q 622 1151 653 1189 q 547 1083 590 1113 q 453 1053 504 1053 z "},"Ĵ":{"ha":678,"x_min":-67,"x_max":860,"o":"m 369 1113 l 554 1272 l 743 1272 l 860 1113 l 714 1054 l 621 1142 l 490 1054 l 369 1113 m 124 -15 q -67 46 6 -15 l 36 267 q 50 257 39 264 q 80 243 61 250 q 123 231 99 236 q 175 225 147 225 q 240 239 214 225 q 284 284 265 253 q 317 365 303 315 q 347 485 332 414 l 454 986 l 725 986 l 618 485 q 563 280 594 372 q 476 122 531 188 q 338 21 422 57 q 124 -15 253 -15 z "},"K":{"ha":924,"x_min":-4,"x_max":1049,"o":"m 206 986 l 476 986 l 397 611 l 742 986 l 1049 986 l 617 544 l 863 0 l 550 0 l 406 363 l 328 285 l 267 0 l -4 0 l 206 986 z "},"Ķ":{"ha":924,"x_min":-4,"x_max":1049,"o":"m 282 -296 l 350 -211 l 271 -211 l 303 -64 l 519 -64 l 489 -211 l 396 -296 l 282 -296 m 206 986 l 476 986 l 397 611 l 742 986 l 1049 986 l 617 544 l 863 0 l 550 0 l 406 363 l 328 285 l 267 0 l -4 0 l 206 986 z "},"L":{"ha":783,"x_min":-4,"x_max":732,"o":"m 206 986 l 476 986 l 317 236 l 732 236 l 682 0 l -4 0 l 206 986 z "},"Ĺ":{"ha":783,"x_min":-4,"x_max":732,"o":"m 410 1058 l 232 1075 l 339 1272 l 572 1272 l 410 1058 m 206 986 l 476 986 l 317 236 l 732 236 l 682 0 l -4 0 l 206 986 z "},"Ľ":{"ha":785,"x_min":-4,"x_max":860,"o":"m 519 817 l 626 1014 l 860 1014 l 676 772 l 519 817 m 206 986 l 476 986 l 317 236 l 732 236 l 682 0 l -4 0 l 206 986 z "},"Ļ":{"ha":783,"x_min":-4,"x_max":732,"o":"m 204 -296 l 272 -211 l 193 -211 l 225 -64 l 442 -64 l 411 -211 l 318 -296 l 204 -296 m 206 986 l 476 986 l 317 236 l 732 236 l 682 0 l -4 0 l 206 986 z "},"Ŀ":{"ha":785,"x_min":-4,"x_max":750,"o":"m 206 986 l 476 986 l 317 236 l 732 236 l 682 0 l -4 0 l 206 986 m 482 467 l 536 722 l 750 722 l 696 467 l 482 467 z "},"·":{"ha":353,"x_min":50,"x_max":318,"o":"m 50 331 l 104 586 l 318 586 l 264 331 l 50 331 z "},"Ł":{"ha":796,"x_min":-6,"x_max":746,"o":"m -6 490 l 126 551 l 219 986 l 490 986 l 426 689 l 521 732 l 550 592 l 390 518 l 331 236 l 746 236 l 696 0 l 10 0 l 90 381 l 24 350 l -6 490 z "},"M":{"ha":1139,"x_min":-4,"x_max":1175,"o":"m 206 986 l 501 986 l 592 522 l 881 986 l 1175 986 l 965 0 l 694 0 l 804 519 l 585 154 l 442 154 l 378 519 l 267 0 l -4 0 l 206 986 z "},"N":{"ha":1007,"x_min":-4,"x_max":1043,"o":"m 206 986 l 417 986 l 667 485 l 772 986 l 1043 986 l 833 0 l 619 0 l 369 485 l 267 0 l -4 0 l 206 986 z "},"A":{"ha":883,"x_min":-85,"x_max":803,"o":"m 444 986 l 693 986 l 803 0 l 528 0 l 518 193 l 282 193 l 192 0 l -85 0 l 444 986 m 514 374 l 503 679 l 360 374 l 514 374 z "},"Ń":{"ha":1007,"x_min":-4,"x_max":1043,"o":"m 692 1058 l 514 1075 l 621 1272 l 854 1272 l 692 1058 m 206 986 l 417 986 l 667 485 l 772 986 l 1043 986 l 833 0 l 619 0 l 369 485 l 267 0 l -4 0 l 206 986 z "},"Ň":{"ha":1007,"x_min":-4,"x_max":1043,"o":"m 403 1214 l 549 1272 l 642 1185 l 772 1272 l 893 1214 l 708 1054 l 519 1054 l 403 1214 m 206 986 l 417 986 l 667 485 l 772 986 l 1043 986 l 833 0 l 619 0 l 369 485 l 267 0 l -4 0 l 206 986 z "},"Ņ":{"ha":1007,"x_min":-4,"x_max":1043,"o":"m 288 -296 l 356 -211 l 276 -211 l 308 -64 l 525 -64 l 494 -211 l 401 -296 l 288 -296 m 206 986 l 417 986 l 667 485 l 772 986 l 1043 986 l 833 0 l 619 0 l 369 485 l 267 0 l -4 0 l 206 986 z "},"Ṅ":{"ha":1007,"x_min":-4,"x_max":1043,"o":"m 510 1064 l 554 1272 l 790 1272 l 746 1064 l 510 1064 m 206 986 l 417 986 l 667 485 l 772 986 l 1043 986 l 833 0 l 619 0 l 369 485 l 267 0 l -4 0 l 206 986 z "},"Ñ":{"ha":1007,"x_min":-4,"x_max":1043,"o":"m 206 986 l 417 986 l 667 485 l 772 986 l 1043 986 l 833 0 l 619 0 l 369 485 l 267 0 l -4 0 l 206 986 m 726 1053 q 675 1063 696 1053 q 637 1086 654 1074 q 602 1109 619 1099 q 563 1119 585 1119 q 526 1110 540 1119 q 503 1088 511 1100 q 492 1065 494 1075 q 489 1053 489 1054 l 349 1053 q 371 1108 353 1071 q 419 1181 389 1144 q 492 1244 450 1217 q 583 1272 533 1272 q 638 1261 617 1272 q 676 1237 658 1250 q 709 1213 693 1224 q 747 1201 725 1201 q 783 1212 768 1201 q 808 1235 799 1222 q 823 1260 818 1249 q 828 1272 828 1271 l 967 1272 q 945 1224 964 1260 q 895 1151 926 1189 q 821 1083 864 1113 q 726 1053 778 1053 z "},"O":{"ha":1025,"x_min":39,"x_max":1018,"o":"m 421 -8 q 258 26 329 -8 q 138 118 186 61 q 64 250 89 175 q 39 406 39 325 q 88 624 39 518 q 219 811 136 729 q 410 942 301 893 q 639 992 519 992 q 801 957 731 992 q 920 865 872 922 q 993 733 968 807 q 1018 578 1018 658 q 969 361 1018 467 q 839 174 921 256 q 649 42 757 92 q 421 -8 540 -8 m 474 232 q 590 263 540 232 q 674 342 640 294 q 725 448 708 390 q 742 560 742 506 q 733 633 742 599 q 705 694 724 668 q 656 736 686 721 q 583 751 625 751 q 468 721 518 751 q 385 643 418 690 q 334 538 351 596 q 317 426 317 481 q 326 353 317 388 q 353 291 335 318 q 402 248 372 264 q 474 232 432 232 z "},"Œ":{"ha":1357,"x_min":39,"x_max":1424,"o":"m 392 -7 q 241 27 307 -7 q 131 117 175 61 q 63 247 86 174 q 39 400 39 321 q 86 619 39 513 q 213 810 133 726 q 395 943 292 893 q 611 993 499 993 q 702 976 660 993 q 782 931 744 960 l 793 986 l 1424 986 l 1374 750 l 1014 750 l 986 619 l 1275 619 l 1225 383 l 936 383 l 904 236 l 1276 236 l 1226 0 l 583 0 l 596 57 q 494 10 544 28 q 392 -7 443 -7 m 446 233 q 549 265 504 233 q 625 347 594 297 q 671 455 656 396 q 686 568 686 514 q 678 639 686 606 q 655 697 671 672 q 615 738 639 722 q 556 753 590 753 q 453 721 497 753 q 378 640 408 689 q 331 531 347 590 q 315 418 315 472 q 323 347 315 381 q 346 289 331 314 q 386 249 361 264 q 446 233 411 233 z "},"Ó":{"ha":1025,"x_min":39,"x_max":1018,"o":"m 721 1058 l 543 1075 l 650 1272 l 883 1272 l 721 1058 m 421 -8 q 258 26 329 -8 q 138 118 186 61 q 64 250 89 175 q 39 406 39 325 q 88 624 39 518 q 219 811 136 729 q 410 942 301 893 q 639 992 519 992 q 801 957 731 992 q 920 865 872 922 q 993 733 968 807 q 1018 578 1018 658 q 969 361 1018 467 q 839 174 921 256 q 649 42 757 92 q 421 -8 540 -8 m 474 232 q 590 263 540 232 q 674 342 640 294 q 725 448 708 390 q 742 560 742 506 q 733 633 742 599 q 705 694 724 668 q 656 736 686 721 q 583 751 625 751 q 468 721 518 751 q 385 643 418 690 q 334 538 351 596 q 317 426 317 481 q 326 353 317 388 q 353 291 335 318 q 402 248 372 264 q 474 232 432 232 z "},"Ŏ":{"ha":1025,"x_min":39,"x_max":1018,"o":"m 421 -8 q 258 26 329 -8 q 138 118 186 61 q 64 250 89 175 q 39 406 39 325 q 88 624 39 518 q 219 811 136 729 q 410 942 301 893 q 639 992 519 992 q 801 957 731 992 q 920 865 872 922 q 993 733 968 807 q 1018 578 1018 658 q 969 361 1018 467 q 839 174 921 256 q 649 42 757 92 q 421 -8 540 -8 m 474 232 q 590 263 540 232 q 674 342 640 294 q 725 448 708 390 q 742 560 742 506 q 733 633 742 599 q 705 694 724 668 q 656 736 686 721 q 583 751 625 751 q 468 721 518 751 q 385 643 418 690 q 334 538 351 596 q 317 426 317 481 q 326 353 317 388 q 353 291 335 318 q 402 248 372 264 q 474 232 432 232 m 672 1160 q 732 1192 703 1160 q 776 1272 761 1224 l 913 1272 q 877 1181 901 1222 q 818 1110 853 1140 q 740 1064 783 1081 q 649 1047 696 1047 q 519 1093 565 1047 q 472 1215 472 1139 q 479 1272 472 1240 l 615 1272 q 611 1240 611 1256 q 628 1183 611 1206 q 672 1160 644 1160 z "},"Ô":{"ha":1025,"x_min":39,"x_max":1018,"o":"m 417 1113 l 601 1272 l 790 1272 l 907 1113 l 761 1054 l 668 1142 l 538 1054 l 417 1113 m 421 -8 q 258 26 329 -8 q 138 118 186 61 q 64 250 89 175 q 39 406 39 325 q 88 624 39 518 q 219 811 136 729 q 410 942 301 893 q 639 992 519 992 q 801 957 731 992 q 920 865 872 922 q 993 733 968 807 q 1018 578 1018 658 q 969 361 1018 467 q 839 174 921 256 q 649 42 757 92 q 421 -8 540 -8 m 474 232 q 590 263 540 232 q 674 342 640 294 q 725 448 708 390 q 742 560 742 506 q 733 633 742 599 q 705 694 724 668 q 656 736 686 721 q 583 751 625 751 q 468 721 518 751 q 385 643 418 690 q 334 538 351 596 q 317 426 317 481 q 326 353 317 388 q 353 291 335 318 q 402 248 372 264 q 474 232 432 232 z "},"Ö":{"ha":1025,"x_min":39,"x_max":1018,"o":"m 386 1065 l 428 1260 l 644 1260 l 603 1065 l 386 1065 m 699 1065 l 740 1260 l 956 1260 l 915 1065 l 699 1065 m 421 -8 q 258 26 329 -8 q 138 118 186 61 q 64 250 89 175 q 39 406 39 325 q 88 624 39 518 q 219 811 136 729 q 410 942 301 893 q 639 992 519 992 q 801 957 731 992 q 920 865 872 922 q 993 733 968 807 q 1018 578 1018 658 q 969 361 1018 467 q 839 174 921 256 q 649 42 757 92 q 421 -8 540 -8 m 474 232 q 590 263 540 232 q 674 342 640 294 q 725 448 708 390 q 742 560 742 506 q 733 633 742 599 q 705 694 724 668 q 656 736 686 721 q 583 751 625 751 q 468 721 518 751 q 385 643 418 690 q 334 538 351 596 q 317 426 317 481 q 326 353 317 388 q 353 291 335 318 q 402 248 372 264 q 474 232 432 232 z "},"Ò":{"ha":1025,"x_min":39,"x_max":1018,"o":"m 421 -8 q 258 26 329 -8 q 138 118 186 61 q 64 250 89 175 q 39 406 39 325 q 88 624 39 518 q 219 811 136 729 q 410 942 301 893 q 639 992 519 992 q 801 957 731 992 q 920 865 872 922 q 993 733 968 807 q 1018 578 1018 658 q 969 361 1018 467 q 839 174 921 256 q 649 42 757 92 q 421 -8 540 -8 m 474 232 q 590 263 540 232 q 674 342 640 294 q 725 448 708 390 q 742 560 742 506 q 733 633 742 599 q 705 694 724 668 q 656 736 686 721 q 583 751 625 751 q 468 721 518 751 q 385 643 418 690 q 334 538 351 596 q 317 426 317 481 q 326 353 317 388 q 353 291 335 318 q 402 248 372 264 q 474 232 432 232 m 500 1274 l 733 1274 l 757 1076 l 574 1057 l 500 1274 z "},"Ő":{"ha":1025,"x_min":39,"x_max":1018,"o":"m 547 1029 l 410 1042 l 503 1239 l 694 1239 l 547 1029 m 804 1029 l 668 1042 l 760 1239 l 951 1239 l 804 1029 m 421 -8 q 258 26 329 -8 q 138 118 186 61 q 64 250 89 175 q 39 406 39 325 q 88 624 39 518 q 219 811 136 729 q 410 942 301 893 q 639 992 519 992 q 801 957 731 992 q 920 865 872 922 q 993 733 968 807 q 1018 578 1018 658 q 969 361 1018 467 q 839 174 921 256 q 649 42 757 92 q 421 -8 540 -8 m 474 232 q 590 263 540 232 q 674 342 640 294 q 725 448 708 390 q 742 560 742 506 q 733 633 742 599 q 705 694 724 668 q 656 736 686 721 q 583 751 625 751 q 468 721 518 751 q 385 643 418 690 q 334 538 351 596 q 317 426 317 481 q 326 353 317 388 q 353 291 335 318 q 402 248 372 264 q 474 232 432 232 z "},"˝":{"ha":533,"x_min":-4,"x_max":538,"o":"m 133 804 l -4 817 l 89 1014 l 281 1014 l 133 804 m 390 804 l 254 817 l 346 1014 l 538 1014 l 390 804 z "},"Ō":{"ha":1025,"x_min":39,"x_max":1018,"o":"m 453 1101 l 486 1258 l 897 1258 l 864 1101 l 453 1101 m 421 -8 q 258 26 329 -8 q 138 118 186 61 q 64 250 89 175 q 39 406 39 325 q 88 624 39 518 q 219 811 136 729 q 410 942 301 893 q 639 992 519 992 q 801 957 731 992 q 920 865 872 922 q 993 733 968 807 q 1018 578 1018 658 q 969 361 1018 467 q 839 174 921 256 q 649 42 757 92 q 421 -8 540 -8 m 474 232 q 590 263 540 232 q 674 342 640 294 q 725 448 708 390 q 742 560 742 506 q 733 633 742 599 q 705 694 724 668 q 656 736 686 721 q 583 751 625 751 q 468 721 518 751 q 385 643 418 690 q 334 538 351 596 q 317 426 317 481 q 326 353 317 388 q 353 291 335 318 q 402 248 372 264 q 474 232 432 232 z "},"Ǫ":{"ha":1025,"x_min":39,"x_max":1018,"o":"m 408 -297 q 270 -252 314 -286 q 226 -174 226 -218 q 262 -88 226 -132 q 367 -4 297 -44 q 226 43 288 6 q 124 136 165 81 q 60 261 82 192 q 39 406 39 331 q 88 624 39 518 q 219 811 136 729 q 410 942 301 893 q 639 992 519 992 q 801 957 731 992 q 920 865 872 922 q 993 733 968 807 q 1018 578 1018 658 q 978 383 1018 478 q 872 209 939 288 q 713 75 804 131 q 517 0 621 19 q 432 -60 463 -31 q 401 -114 401 -89 q 422 -146 401 -133 q 486 -158 442 -158 l 408 -297 m 474 232 q 590 263 540 232 q 674 342 640 294 q 725 448 708 390 q 742 560 742 506 q 733 633 742 599 q 705 694 724 668 q 656 736 686 721 q 583 751 625 751 q 468 721 518 751 q 385 643 418 690 q 334 538 351 596 q 317 426 317 481 q 326 353 317 388 q 353 291 335 318 q 402 248 372 264 q 474 232 432 232 z "},"Ø":{"ha":1025,"x_min":-64,"x_max":1121,"o":"m 1121 986 l 960 808 q 1003 699 988 757 q 1018 578 1018 640 q 969 361 1018 467 q 839 174 921 256 q 649 42 757 92 q 421 -8 540 -8 q 251 28 326 -8 l 226 0 l -64 0 l 96 176 q 39 406 39 279 q 88 624 39 518 q 219 811 136 729 q 410 942 301 893 q 639 992 519 992 q 726 982 685 992 q 803 956 767 972 l 831 986 l 1121 986 m 474 232 q 590 263 540 232 q 674 342 640 294 q 725 448 708 390 q 742 560 742 506 l 742 568 l 439 235 q 456 233 447 233 q 474 232 464 232 m 317 419 l 615 749 q 600 751 608 750 q 583 751 592 751 q 468 721 518 751 q 385 643 418 690 q 334 538 351 596 q 317 426 317 481 l 317 419 z "},"/":{"ha":1071,"x_min":-39,"x_max":1146,"o":"m 1146 986 l 251 0 l -39 0 l 856 986 l 1146 986 z "},"Ǿ":{"ha":1025,"x_min":-64,"x_max":1121,"o":"m 722 1058 l 544 1075 l 651 1272 l 885 1272 l 722 1058 m 1121 986 l 960 808 q 1003 699 988 757 q 1018 578 1018 640 q 969 361 1018 467 q 839 174 921 256 q 649 42 757 92 q 421 -8 540 -8 q 251 28 326 -8 l 226 0 l -64 0 l 96 176 q 39 406 39 279 q 88 624 39 518 q 219 811 136 729 q 410 942 301 893 q 639 992 519 992 q 726 982 685 992 q 803 956 767 972 l 831 986 l 1121 986 m 474 232 q 590 263 540 232 q 674 342 640 294 q 725 448 708 390 q 742 560 742 506 l 742 568 l 439 235 q 456 233 447 233 q 474 232 464 232 m 317 419 l 615 749 q 600 751 608 750 q 583 751 592 751 q 468 721 518 751 q 385 643 418 690 q 334 538 351 596 q 317 426 317 481 l 317 419 z "},"Õ":{"ha":1025,"x_min":39,"x_max":1018,"o":"m 421 -8 q 258 26 329 -8 q 138 118 186 61 q 64 250 89 175 q 39 406 39 325 q 88 624 39 518 q 219 811 136 729 q 410 942 301 893 q 639 992 519 992 q 801 957 731 992 q 920 865 872 922 q 993 733 968 807 q 1018 578 1018 658 q 969 361 1018 467 q 839 174 921 256 q 649 42 757 92 q 421 -8 540 -8 m 474 232 q 590 263 540 232 q 674 342 640 294 q 725 448 708 390 q 742 560 742 506 q 733 633 742 599 q 705 694 724 668 q 656 736 686 721 q 583 751 625 751 q 468 721 518 751 q 385 643 418 690 q 334 538 351 596 q 317 426 317 481 q 326 353 317 388 q 353 291 335 318 q 402 248 372 264 q 474 232 432 232 m 744 1053 q 693 1063 714 1053 q 655 1086 672 1074 q 620 1109 638 1099 q 581 1119 603 1119 q 544 1110 558 1119 q 521 1088 529 1100 q 510 1065 513 1075 q 507 1053 507 1054 l 367 1053 q 389 1108 371 1071 q 438 1181 407 1144 q 510 1244 468 1217 q 601 1272 551 1272 q 656 1261 635 1272 q 694 1237 676 1250 q 727 1213 711 1224 q 765 1201 743 1201 q 801 1212 786 1201 q 826 1235 817 1222 q 841 1260 836 1249 q 846 1272 846 1271 l 985 1272 q 963 1224 982 1260 q 913 1151 944 1189 q 839 1083 882 1113 q 744 1053 796 1053 z "},"P":{"ha":836,"x_min":-4,"x_max":864,"o":"m 206 986 l 611 986 q 717 962 671 986 q 797 898 764 938 q 847 807 829 858 q 864 701 864 756 q 833 558 864 629 q 748 430 801 486 q 624 338 694 374 q 472 303 553 303 l 331 303 l 267 0 l -4 0 l 206 986 m 504 539 q 531 547 517 539 q 558 573 546 556 q 578 617 569 590 q 586 679 586 643 q 572 735 586 719 q 542 750 557 750 l 426 750 l 382 539 l 504 539 z "},"Q":{"ha":1024,"x_min":38,"x_max":1017,"o":"m 647 43 q 537 6 594 19 q 419 -7 479 -7 q 257 27 328 -7 q 137 119 186 61 q 63 251 88 176 q 38 406 38 325 q 87 624 38 518 q 219 811 136 729 q 410 943 301 893 q 638 993 518 993 q 800 958 729 993 q 919 866 871 924 q 992 733 967 808 q 1017 578 1017 658 q 963 351 1017 460 q 821 158 910 242 l 929 0 l 676 0 l 647 43 m 474 233 q 494 234 485 233 q 514 236 504 235 l 392 417 l 643 417 l 683 358 q 726 457 711 404 q 740 560 740 510 q 731 633 740 599 q 703 694 722 668 q 654 737 685 721 q 582 753 624 753 q 467 722 517 753 q 383 644 417 692 q 333 538 350 596 q 315 426 315 481 q 324 353 315 389 q 352 292 333 318 q 401 249 371 265 q 474 233 432 233 z "},"R":{"ha":907,"x_min":-4,"x_max":892,"o":"m -4 0 l 206 986 l 639 986 q 746 962 699 986 q 825 898 793 938 q 874 807 857 858 q 892 701 892 756 q 878 605 892 653 q 838 513 864 557 q 776 430 813 468 q 696 363 740 392 l 814 0 l 508 0 l 413 303 l 331 303 l 267 0 l -4 0 m 532 539 q 557 549 543 539 q 583 576 571 558 q 604 619 596 594 q 613 674 613 644 q 599 730 613 710 q 569 750 586 750 l 426 750 l 382 539 l 532 539 z "},"Ŕ":{"ha":907,"x_min":-4,"x_max":892,"o":"m 651 1061 l 474 1078 l 581 1275 l 814 1275 l 651 1061 m -4 0 l 206 986 l 639 986 q 746 962 699 986 q 825 898 793 938 q 874 807 857 858 q 892 701 892 756 q 878 605 892 653 q 838 513 864 557 q 776 430 813 468 q 696 363 740 392 l 814 0 l 508 0 l 413 303 l 331 303 l 267 0 l -4 0 m 532 539 q 557 549 543 539 q 583 576 571 558 q 604 619 596 594 q 613 674 613 644 q 599 730 613 710 q 569 750 586 750 l 426 750 l 382 539 l 532 539 z "},"Ř":{"ha":907,"x_min":-4,"x_max":892,"o":"m 350 1217 l 496 1275 l 589 1188 l 719 1275 l 840 1217 l 656 1057 l 467 1057 l 350 1217 m -4 0 l 206 986 l 639 986 q 746 962 699 986 q 825 898 793 938 q 874 807 857 858 q 892 701 892 756 q 878 605 892 653 q 838 513 864 557 q 776 430 813 468 q 696 363 740 392 l 814 0 l 508 0 l 413 303 l 331 303 l 267 0 l -4 0 m 532 539 q 557 549 543 539 q 583 576 571 558 q 604 619 596 594 q 613 674 613 644 q 599 730 613 710 q 569 750 586 750 l 426 750 l 382 539 l 532 539 z "},"Ŗ":{"ha":907,"x_min":-4,"x_max":892,"o":"m 228 -296 l 296 -211 l 217 -211 l 249 -64 l 465 -64 l 435 -211 l 342 -296 l 228 -296 m -4 0 l 206 986 l 639 986 q 746 962 699 986 q 825 898 793 938 q 874 807 857 858 q 892 701 892 756 q 878 605 892 653 q 838 513 864 557 q 776 430 813 468 q 696 363 740 392 l 814 0 l 508 0 l 413 303 l 331 303 l 267 0 l -4 0 m 532 539 q 557 549 543 539 q 583 576 571 558 q 604 619 596 594 q 613 674 613 644 q 599 730 613 710 q 569 750 586 750 l 426 750 l 382 539 l 532 539 z "},"S":{"ha":828,"x_min":-46,"x_max":868,"o":"m 340 -12 q 236 -4 289 -12 q 133 19 183 4 q 38 56 83 35 q -46 103 -8 76 l 121 339 q 156 314 131 332 q 217 278 181 296 q 300 246 254 260 q 396 232 346 232 q 456 248 443 232 q 468 283 468 264 q 453 315 468 301 q 413 339 438 328 q 355 360 388 350 q 288 385 322 371 q 151 472 196 421 q 106 603 106 524 q 143 769 106 696 q 242 892 181 842 q 380 968 303 942 q 536 994 457 994 q 635 984 588 994 q 726 958 683 974 q 804 923 768 942 q 868 888 840 904 l 704 664 q 683 680 703 665 q 631 711 663 694 q 558 741 599 728 q 476 754 518 754 q 424 740 446 754 q 403 696 403 726 q 443 647 403 664 q 550 607 483 631 q 641 567 600 588 q 712 518 682 546 q 758 453 742 490 q 774 364 774 415 q 734 187 774 258 q 632 71 694 115 q 492 7 569 26 q 340 -12 415 -12 z "},"Ś":{"ha":828,"x_min":-46,"x_max":868,"o":"m 631 1078 l 453 1094 l 560 1292 l 793 1292 l 631 1078 m 340 -12 q 236 -4 289 -12 q 133 19 183 4 q 38 56 83 35 q -46 103 -8 76 l 121 339 q 156 314 131 332 q 217 278 181 296 q 300 246 254 260 q 396 232 346 232 q 456 248 443 232 q 468 283 468 264 q 453 315 468 301 q 413 339 438 328 q 355 360 388 350 q 288 385 322 371 q 151 472 196 421 q 106 603 106 524 q 143 769 106 696 q 242 892 181 842 q 380 968 303 942 q 536 994 457 994 q 635 984 588 994 q 726 958 683 974 q 804 923 768 942 q 868 888 840 904 l 704 664 q 683 680 703 665 q 631 711 663 694 q 558 741 599 728 q 476 754 518 754 q 424 740 446 754 q 403 696 403 726 q 443 647 403 664 q 550 607 483 631 q 641 567 600 588 q 712 518 682 546 q 758 453 742 490 q 774 364 774 415 q 734 187 774 258 q 632 71 694 115 q 492 7 569 26 q 340 -12 415 -12 z "},"Š":{"ha":828,"x_min":-46,"x_max":868,"o":"m 349 1233 l 494 1292 l 588 1204 l 718 1292 l 839 1233 l 654 1074 l 465 1074 l 349 1233 m 340 -12 q 236 -4 289 -12 q 133 19 183 4 q 38 56 83 35 q -46 103 -8 76 l 121 339 q 156 314 131 332 q 217 278 181 296 q 300 246 254 260 q 396 232 346 232 q 456 248 443 232 q 468 283 468 264 q 453 315 468 301 q 413 339 438 328 q 355 360 388 350 q 288 385 322 371 q 151 472 196 421 q 106 603 106 524 q 143 769 106 696 q 242 892 181 842 q 380 968 303 942 q 536 994 457 994 q 635 984 588 994 q 726 958 683 974 q 804 923 768 942 q 868 888 840 904 l 704 664 q 683 680 703 665 q 631 711 663 694 q 558 741 599 728 q 476 754 518 754 q 424 740 446 754 q 403 696 403 726 q 443 647 403 664 q 550 607 483 631 q 641 567 600 588 q 712 518 682 546 q 758 453 742 490 q 774 364 774 415 q 734 187 774 258 q 632 71 694 115 q 492 7 569 26 q 340 -12 415 -12 z "},"Ŝ":{"ha":828,"x_min":-46,"x_max":868,"o":"m 338 1132 l 522 1292 l 711 1292 l 828 1132 l 682 1074 l 589 1161 l 458 1074 l 338 1132 m 340 -12 q 236 -4 289 -12 q 133 19 183 4 q 38 56 83 35 q -46 103 -8 76 l 121 339 q 156 314 131 332 q 217 278 181 296 q 300 246 254 260 q 396 232 346 232 q 456 248 443 232 q 468 283 468 264 q 453 315 468 301 q 413 339 438 328 q 355 360 388 350 q 288 385 322 371 q 151 472 196 421 q 106 603 106 524 q 143 769 106 696 q 242 892 181 842 q 380 968 303 942 q 536 994 457 994 q 635 984 588 994 q 726 958 683 974 q 804 923 768 942 q 868 888 840 904 l 704 664 q 683 680 703 665 q 631 711 663 694 q 558 741 599 728 q 476 754 518 754 q 424 740 446 754 q 403 696 403 726 q 443 647 403 664 q 550 607 483 631 q 641 567 600 588 q 712 518 682 546 q 758 453 742 490 q 774 364 774 415 q 734 187 774 258 q 632 71 694 115 q 492 7 569 26 q 340 -12 415 -12 z "},"T":{"ha":833,"x_min":88,"x_max":938,"o":"m 353 750 l 88 750 l 138 986 l 938 986 l 888 750 l 624 750 l 464 0 l 193 0 l 353 750 z "},"Ŧ":{"ha":861,"x_min":74,"x_max":950,"o":"m 100 494 l 311 494 l 365 750 l 100 750 l 150 986 l 950 986 l 900 750 l 636 750 l 582 494 l 793 494 l 767 372 l 556 372 l 478 0 l 207 0 l 285 372 l 74 372 l 100 494 z "},"Ť":{"ha":833,"x_min":88,"x_max":938,"o":"m 332 1214 l 478 1272 l 571 1185 l 701 1272 l 822 1214 l 638 1054 l 449 1054 l 332 1214 m 353 750 l 88 750 l 138 986 l 938 986 l 888 750 l 624 750 l 464 0 l 193 0 l 353 750 z "},"Þ":{"ha":813,"x_min":-4,"x_max":810,"o":"m 206 986 l 476 986 l 442 822 l 556 822 q 663 798 615 822 q 742 734 710 774 q 792 644 775 694 q 810 539 810 593 q 778 394 810 465 q 694 267 747 324 q 569 175 640 210 q 418 140 499 140 l 296 140 l 267 0 l -4 0 l 206 986 m 454 376 q 481 387 467 376 q 508 415 496 397 q 528 458 519 433 q 536 511 536 482 q 522 567 536 547 q 492 586 508 586 l 392 586 l 347 376 l 454 376 z "},"U":{"ha":990,"x_min":67,"x_max":1042,"o":"m 404 -8 q 249 17 314 -8 q 144 89 185 43 q 85 197 104 135 q 67 331 67 258 q 83 479 67 401 l 192 986 l 463 986 l 354 479 q 343 381 343 424 q 369 274 343 315 q 456 232 394 232 q 531 253 497 232 q 590 308 564 274 q 634 386 617 342 q 663 479 651 431 l 771 986 l 1042 986 l 933 479 q 867 287 911 376 q 756 132 822 197 q 601 29 689 67 q 404 -8 513 -8 z "},"Ú":{"ha":989,"x_min":65,"x_max":1040,"o":"m 696 1058 l 518 1075 l 625 1272 l 858 1272 l 696 1058 m 403 -8 q 248 17 313 -8 q 143 89 183 43 q 84 197 103 135 q 65 331 65 258 q 82 479 65 401 l 190 986 l 461 986 l 353 479 q 342 381 342 424 q 367 274 342 315 q 454 232 393 232 q 529 253 496 232 q 589 308 563 274 q 633 386 615 342 q 661 479 650 431 l 769 986 l 1040 986 l 932 479 q 865 287 910 376 q 754 132 821 197 q 599 29 688 67 q 403 -8 511 -8 z "},"Ŭ":{"ha":989,"x_min":65,"x_max":1040,"o":"m 403 -8 q 248 17 313 -8 q 143 89 183 43 q 84 197 103 135 q 65 331 65 258 q 82 479 65 401 l 190 986 l 461 986 l 353 479 q 342 381 342 424 q 367 274 342 315 q 454 232 393 232 q 529 253 496 232 q 589 308 563 274 q 633 386 615 342 q 661 479 650 431 l 769 986 l 1040 986 l 932 479 q 865 287 910 376 q 754 132 821 197 q 599 29 688 67 q 403 -8 511 -8 m 628 1160 q 688 1192 658 1160 q 732 1272 717 1224 l 868 1272 q 833 1181 857 1222 q 774 1110 808 1140 q 695 1064 739 1081 q 604 1047 651 1047 q 474 1093 521 1047 q 428 1215 428 1139 q 435 1272 428 1240 l 571 1272 q 567 1240 567 1256 q 583 1183 567 1206 q 628 1160 600 1160 z "},"Û":{"ha":989,"x_min":65,"x_max":1040,"o":"m 394 1113 l 579 1272 l 768 1272 l 885 1113 l 739 1054 l 646 1142 l 515 1054 l 394 1113 m 403 -8 q 248 17 313 -8 q 143 89 183 43 q 84 197 103 135 q 65 331 65 258 q 82 479 65 401 l 190 986 l 461 986 l 353 479 q 342 381 342 424 q 367 274 342 315 q 454 232 393 232 q 529 253 496 232 q 589 308 563 274 q 633 386 615 342 q 661 479 650 431 l 769 986 l 1040 986 l 932 479 q 865 287 910 376 q 754 132 821 197 q 599 29 688 67 q 403 -8 511 -8 z "},"Ü":{"ha":989,"x_min":65,"x_max":1040,"o":"m 364 1065 l 406 1260 l 622 1260 l 581 1065 l 364 1065 m 676 1065 l 718 1260 l 933 1260 l 893 1065 l 676 1065 m 403 -8 q 248 17 313 -8 q 143 89 183 43 q 84 197 103 135 q 65 331 65 258 q 82 479 65 401 l 190 986 l 461 986 l 353 479 q 342 381 342 424 q 367 274 342 315 q 454 232 393 232 q 529 253 496 232 q 589 308 563 274 q 633 386 615 342 q 661 479 650 431 l 769 986 l 1040 986 l 932 479 q 865 287 910 376 q 754 132 821 197 q 599 29 688 67 q 403 -8 511 -8 z "},"Ù":{"ha":989,"x_min":65,"x_max":1040,"o":"m 403 -8 q 248 17 313 -8 q 143 89 183 43 q 84 197 103 135 q 65 331 65 258 q 82 479 65 401 l 190 986 l 461 986 l 353 479 q 342 381 342 424 q 367 274 342 315 q 454 232 393 232 q 529 253 496 232 q 589 308 563 274 q 633 386 615 342 q 661 479 650 431 l 769 986 l 1040 986 l 932 479 q 865 287 910 376 q 754 132 821 197 q 599 29 688 67 q 403 -8 511 -8 m 486 1274 l 719 1274 l 743 1076 l 560 1057 l 486 1274 z "},"Ű":{"ha":989,"x_min":65,"x_max":1040,"o":"m 403 -8 q 248 17 313 -8 q 143 89 183 43 q 84 197 103 135 q 65 331 65 258 q 82 479 65 401 l 190 986 l 461 986 l 353 479 q 342 381 342 424 q 367 274 342 315 q 454 232 393 232 q 529 253 496 232 q 589 308 563 274 q 633 386 615 342 q 661 479 650 431 l 769 986 l 1040 986 l 932 479 q 865 287 910 376 q 754 132 821 197 q 599 29 688 67 q 403 -8 511 -8 m 526 1064 l 389 1076 l 482 1274 l 674 1274 l 526 1064 m 783 1064 l 647 1076 l 739 1274 l 931 1274 l 783 1064 z "},"Ū":{"ha":989,"x_min":65,"x_max":1040,"o":"m 403 -8 q 248 17 313 -8 q 143 89 183 43 q 84 197 103 135 q 65 331 65 258 q 82 479 65 401 l 190 986 l 461 986 l 353 479 q 342 381 342 424 q 367 274 342 315 q 454 232 393 232 q 529 253 496 232 q 589 308 563 274 q 633 386 615 342 q 661 479 650 431 l 769 986 l 1040 986 l 932 479 q 865 287 910 376 q 754 132 821 197 q 599 29 688 67 q 403 -8 511 -8 m 429 1101 l 463 1258 l 874 1258 l 840 1101 l 429 1101 z "},"Ų":{"ha":989,"x_min":65,"x_max":1040,"o":"m 394 -297 q 256 -252 300 -286 q 213 -174 213 -218 q 247 -90 213 -133 q 350 -6 282 -46 q 219 30 274 1 q 131 103 165 58 q 81 206 97 147 q 65 331 65 264 q 82 479 65 401 l 190 986 l 461 986 l 353 479 q 342 381 342 424 q 367 274 342 315 q 454 232 393 232 q 529 253 496 232 q 589 308 563 274 q 633 386 615 342 q 661 479 650 431 l 769 986 l 1040 986 l 932 479 q 876 309 913 389 q 785 167 839 229 q 662 61 732 104 q 506 1 592 18 q 419 -60 450 -31 q 388 -114 388 -89 q 408 -146 388 -133 q 472 -158 428 -158 l 394 -297 l 394 -297 z "},"Ů":{"ha":989,"x_min":65,"x_max":1040,"o":"m 485 1128 q 537 1235 485 1199 q 674 1272 589 1272 q 774 1248 738 1272 q 810 1175 810 1224 q 758 1067 810 1104 q 622 1031 706 1031 q 522 1055 558 1031 q 485 1128 485 1079 m 657 1197 q 613 1183 631 1197 q 594 1144 594 1168 q 638 1106 594 1106 q 682 1121 663 1106 q 701 1160 701 1136 q 689 1187 701 1176 q 657 1197 676 1197 m 403 -8 q 248 17 313 -8 q 143 89 183 43 q 84 197 103 135 q 65 331 65 258 q 82 479 65 401 l 190 986 l 461 986 l 353 479 q 342 381 342 424 q 367 274 342 315 q 454 232 393 232 q 529 253 496 232 q 589 308 563 274 q 633 386 615 342 q 661 479 650 431 l 769 986 l 1040 986 l 932 479 q 865 287 910 376 q 754 132 821 197 q 599 29 688 67 q 403 -8 511 -8 z "},"Ũ":{"ha":989,"x_min":65,"x_max":1040,"o":"m 403 -8 q 248 17 313 -8 q 143 89 183 43 q 84 197 103 135 q 65 331 65 258 q 82 479 65 401 l 190 986 l 461 986 l 353 479 q 342 381 342 424 q 367 274 342 315 q 454 232 393 232 q 529 253 496 232 q 589 308 563 274 q 633 386 615 342 q 661 479 650 431 l 769 986 l 1040 986 l 932 479 q 865 287 910 376 q 754 132 821 197 q 599 29 688 67 q 403 -8 511 -8 m 718 1053 q 667 1063 688 1053 q 628 1086 646 1074 q 594 1109 611 1099 q 554 1119 576 1119 q 517 1110 532 1119 q 494 1088 503 1100 q 483 1065 486 1075 q 481 1053 481 1054 l 340 1053 q 363 1108 344 1071 q 411 1181 381 1144 q 483 1244 442 1217 q 575 1272 525 1272 q 629 1261 608 1272 q 667 1237 650 1250 q 701 1213 685 1224 q 739 1201 717 1201 q 775 1212 760 1201 q 800 1235 790 1222 q 815 1260 810 1249 q 819 1272 819 1271 l 958 1272 q 937 1224 956 1260 q 887 1151 918 1189 q 813 1083 856 1113 q 718 1053 769 1053 z "},"V":{"ha":890,"x_min":106,"x_max":1015,"o":"m 106 986 l 392 986 l 425 340 l 731 986 l 1015 986 l 465 0 l 240 0 l 106 986 z "},"W":{"ha":1392,"x_min":96,"x_max":1529,"o":"m 96 986 l 389 986 l 438 310 l 536 515 l 486 986 l 733 986 l 747 682 l 890 986 l 1139 986 l 885 515 l 900 310 l 1233 986 l 1529 986 l 954 0 l 731 0 l 676 353 l 475 0 l 251 0 l 96 986 z "},"Ẃ":{"ha":1392,"x_min":96,"x_max":1529,"o":"m 897 1058 l 719 1075 l 826 1272 l 1060 1272 l 897 1058 m 96 986 l 389 986 l 438 310 l 536 515 l 486 986 l 733 986 l 747 682 l 890 986 l 1139 986 l 885 515 l 900 310 l 1233 986 l 1529 986 l 954 0 l 731 0 l 676 353 l 475 0 l 251 0 l 96 986 z "},"Ŵ":{"ha":1392,"x_min":96,"x_max":1529,"o":"m 593 1113 l 778 1272 l 967 1272 l 1083 1113 l 938 1054 l 844 1142 l 714 1054 l 593 1113 m 96 986 l 389 986 l 438 310 l 536 515 l 486 986 l 733 986 l 747 682 l 890 986 l 1139 986 l 885 515 l 900 310 l 1233 986 l 1529 986 l 954 0 l 731 0 l 676 353 l 475 0 l 251 0 l 96 986 z "},"Ẅ":{"ha":1392,"x_min":96,"x_max":1529,"o":"m 565 1065 l 607 1260 l 824 1260 l 782 1065 l 565 1065 m 878 1065 l 919 1260 l 1135 1260 l 1094 1065 l 878 1065 m 96 986 l 389 986 l 438 310 l 536 515 l 486 986 l 733 986 l 747 682 l 890 986 l 1139 986 l 885 515 l 900 310 l 1233 986 l 1529 986 l 954 0 l 731 0 l 676 353 l 475 0 l 251 0 l 96 986 z "},"Ẁ":{"ha":1392,"x_min":96,"x_max":1529,"o":"m 96 986 l 389 986 l 438 310 l 536 515 l 486 986 l 733 986 l 747 682 l 890 986 l 1139 986 l 885 515 l 900 310 l 1233 986 l 1529 986 l 954 0 l 731 0 l 676 353 l 475 0 l 251 0 l 96 986 m 696 1274 l 929 1274 l 953 1076 l 769 1057 l 696 1274 z "},"X":{"ha":876,"x_min":-92,"x_max":1010,"o":"m 310 486 l 107 986 l 400 986 l 493 675 l 718 986 l 1010 986 l 594 486 l 789 0 l 497 0 l 413 297 l 201 0 l -92 0 l 310 486 z "},"Y":{"ha":871,"x_min":100,"x_max":1004,"o":"m 275 329 l 100 986 l 393 986 l 458 560 l 710 986 l 1004 986 l 543 326 l 474 0 l 204 0 l 275 329 z "},"Ý":{"ha":871,"x_min":100,"x_max":1004,"o":"m 275 329 l 100 986 l 393 986 l 458 560 l 710 986 l 1004 986 l 543 326 l 474 0 l 204 0 l 275 329 m 621 1058 l 443 1075 l 550 1272 l 783 1272 l 621 1058 z "},"Ŷ":{"ha":871,"x_min":100,"x_max":1004,"o":"m 275 329 l 100 986 l 393 986 l 458 560 l 710 986 l 1004 986 l 543 326 l 474 0 l 204 0 l 275 329 m 331 1113 l 515 1272 l 704 1272 l 821 1113 l 675 1054 l 582 1142 l 451 1054 l 331 1113 z "},"Ÿ":{"ha":871,"x_min":100,"x_max":1004,"o":"m 275 329 l 100 986 l 393 986 l 458 560 l 710 986 l 1004 986 l 543 326 l 474 0 l 204 0 l 275 329 m 300 1065 l 342 1260 l 558 1260 l 517 1065 l 300 1065 m 613 1065 l 654 1260 l 869 1260 l 829 1065 l 613 1065 z "},"Ỳ":{"ha":871,"x_min":100,"x_max":1004,"o":"m 275 329 l 100 986 l 393 986 l 458 560 l 710 986 l 1004 986 l 543 326 l 474 0 l 204 0 l 275 329 m 426 1274 l 660 1274 l 683 1076 l 500 1057 l 426 1274 z "},"Ỹ":{"ha":871,"x_min":100,"x_max":1004,"o":"m 275 329 l 100 986 l 393 986 l 458 560 l 710 986 l 1004 986 l 543 326 l 474 0 l 204 0 l 275 329 m 658 1053 q 607 1063 628 1053 q 569 1086 586 1074 q 534 1109 551 1099 q 494 1119 517 1119 q 458 1110 472 1119 q 435 1088 443 1100 q 424 1065 426 1075 q 421 1053 421 1054 l 281 1053 q 303 1108 285 1071 q 351 1181 321 1144 q 424 1244 382 1217 q 515 1272 465 1272 q 569 1261 549 1272 q 608 1237 590 1250 q 641 1213 625 1224 q 679 1201 657 1201 q 715 1212 700 1201 q 740 1235 731 1222 q 755 1260 750 1249 q 760 1272 760 1271 l 899 1272 q 877 1224 896 1260 q 827 1151 858 1189 q 753 1083 796 1113 q 658 1053 710 1053 z "},"Z":{"ha":824,"x_min":-51,"x_max":893,"o":"m -8 201 l 529 750 l 129 750 l 179 986 l 893 986 l 850 785 l 339 236 l 742 236 l 692 0 l -51 0 l -8 201 z "},"Ź":{"ha":824,"x_min":-51,"x_max":893,"o":"m 601 1058 l 424 1075 l 531 1272 l 764 1272 l 601 1058 m -8 201 l 529 750 l 129 750 l 179 986 l 893 986 l 850 785 l 339 236 l 742 236 l 692 0 l -51 0 l -8 201 z "},"Ž":{"ha":824,"x_min":-51,"x_max":893,"o":"m 322 1214 l 468 1272 l 561 1185 l 692 1272 l 813 1214 l 628 1054 l 439 1054 l 322 1214 m -8 201 l 529 750 l 129 750 l 179 986 l 893 986 l 850 785 l 339 236 l 742 236 l 692 0 l -51 0 l -8 201 z "},"Ż":{"ha":824,"x_min":-51,"x_max":893,"o":"m -8 201 l 529 750 l 129 750 l 179 986 l 893 986 l 850 785 l 339 236 l 742 236 l 692 0 l -51 0 l -8 201 m 428 1064 l 472 1272 l 708 1272 l 664 1064 l 428 1064 z "},"a":{"ha":897,"x_min":10,"x_max":871,"o":"m 268 -14 q 159 8 207 -14 q 78 68 111 29 q 27 161 44 107 q 10 281 10 215 q 42 459 10 375 q 128 607 74 543 q 253 708 182 671 q 404 744 325 744 q 519 713 471 744 q 583 622 567 681 l 606 725 l 871 725 l 778 292 q 774 258 774 271 q 811 222 774 224 l 764 0 q 651 -14 694 -14 q 553 10 589 -14 q 517 93 517 33 q 518 114 517 107 q 402 17 468 47 q 268 -14 336 -14 m 388 208 q 450 227 421 208 q 514 283 479 246 l 542 414 q 508 492 535 463 q 443 522 481 522 q 386 506 414 522 q 336 462 358 489 q 301 399 314 435 q 288 324 288 363 q 313 240 288 271 q 388 208 339 208 z "},"á":{"ha":897,"x_min":10,"x_max":871,"o":"m 268 -14 q 159 8 207 -14 q 78 68 111 29 q 27 161 44 107 q 10 281 10 215 q 42 459 10 375 q 128 607 74 543 q 253 708 182 671 q 404 744 325 744 q 519 713 471 744 q 583 622 567 681 l 606 725 l 871 725 l 778 292 q 774 258 774 271 q 811 222 774 224 l 764 0 q 651 -14 694 -14 q 553 10 589 -14 q 517 93 517 33 q 518 114 517 107 q 402 17 468 47 q 268 -14 336 -14 m 388 208 q 450 227 421 208 q 514 283 479 246 l 542 414 q 508 492 535 463 q 443 522 481 522 q 386 506 414 522 q 336 462 358 489 q 301 399 314 435 q 288 324 288 363 q 313 240 288 271 q 388 208 339 208 m 518 800 l 340 817 l 447 1014 l 681 1014 l 518 800 z "},"ă":{"ha":897,"x_min":10,"x_max":871,"o":"m 268 -14 q 159 8 207 -14 q 78 68 111 29 q 27 161 44 107 q 10 281 10 215 q 42 459 10 375 q 128 607 74 543 q 253 708 182 671 q 404 744 325 744 q 519 713 471 744 q 583 622 567 681 l 606 725 l 871 725 l 778 292 q 774 258 774 271 q 811 222 774 224 l 764 0 q 651 -14 694 -14 q 553 10 589 -14 q 517 93 517 33 q 518 114 517 107 q 402 17 468 47 q 268 -14 336 -14 m 388 208 q 450 227 421 208 q 514 283 479 246 l 542 414 q 508 492 535 463 q 443 522 481 522 q 386 506 414 522 q 336 462 358 489 q 301 399 314 435 q 288 324 288 363 q 313 240 288 271 q 388 208 339 208 m 456 901 q 515 933 486 901 q 560 1014 544 965 l 696 1014 q 660 923 685 964 q 601 852 636 882 q 523 806 567 822 q 432 789 479 789 q 302 835 349 789 q 256 957 256 881 q 263 1014 256 982 l 399 1014 q 394 982 394 997 q 411 924 394 947 q 456 901 428 901 z "},"â":{"ha":897,"x_min":10,"x_max":871,"o":"m 268 -14 q 159 8 207 -14 q 78 68 111 29 q 27 161 44 107 q 10 281 10 215 q 42 459 10 375 q 128 607 74 543 q 253 708 182 671 q 404 744 325 744 q 519 713 471 744 q 583 622 567 681 l 606 725 l 871 725 l 778 292 q 774 258 774 271 q 811 222 774 224 l 764 0 q 651 -14 694 -14 q 553 10 589 -14 q 517 93 517 33 q 518 114 517 107 q 402 17 468 47 q 268 -14 336 -14 m 388 208 q 450 227 421 208 q 514 283 479 246 l 542 414 q 508 492 535 463 q 443 522 481 522 q 386 506 414 522 q 336 462 358 489 q 301 399 314 435 q 288 324 288 363 q 313 240 288 271 q 388 208 339 208 m 210 854 l 394 1014 l 583 1014 l 700 854 l 554 796 l 461 883 l 331 796 l 210 854 z "},"ä":{"ha":897,"x_min":10,"x_max":871,"o":"m 268 -14 q 159 8 207 -14 q 78 68 111 29 q 27 161 44 107 q 10 281 10 215 q 42 459 10 375 q 128 607 74 543 q 253 708 182 671 q 404 744 325 744 q 519 713 471 744 q 583 622 567 681 l 606 725 l 871 725 l 778 292 q 774 258 774 271 q 811 222 774 224 l 764 0 q 651 -14 694 -14 q 553 10 589 -14 q 517 93 517 33 q 518 114 517 107 q 402 17 468 47 q 268 -14 336 -14 m 388 208 q 450 227 421 208 q 514 283 479 246 l 542 414 q 508 492 535 463 q 443 522 481 522 q 386 506 414 522 q 336 462 358 489 q 301 399 314 435 q 288 324 288 363 q 313 240 288 271 q 388 208 339 208 m 185 806 l 226 1000 l 443 1000 l 401 806 l 185 806 m 497 806 l 539 1000 l 754 1000 l 714 806 l 497 806 z "},"æ":{"ha":1253,"x_min":-19,"x_max":1231,"o":"m 181 -14 q 35 40 89 -14 q -19 181 -19 94 q 9 295 -19 242 q 86 388 38 349 q 200 449 135 426 q 340 471 265 471 q 471 443 424 471 q 476 472 474 457 q 478 499 478 486 q 455 550 478 533 q 381 567 432 567 q 267 547 322 567 q 150 488 213 526 l 108 651 q 444 744 265 744 q 675 675 597 744 q 787 726 726 707 q 918 744 847 744 q 1056 720 997 744 q 1154 654 1115 696 q 1212 558 1193 613 q 1231 442 1231 503 q 1219 350 1231 388 q 1196 285 1207 313 l 719 285 q 717 272 718 278 q 717 258 717 267 q 744 194 717 214 q 807 175 771 175 q 882 194 843 175 q 939 249 921 214 l 1149 185 q 986 42 1086 97 q 757 -14 886 -14 q 581 25 650 -14 q 478 128 511 64 q 406 63 444 90 q 328 19 367 36 q 251 -6 289 3 q 181 -14 213 -14 m 304 175 q 373 188 336 175 q 438 221 410 201 q 436 232 436 226 q 436 243 436 238 q 438 274 436 258 q 442 308 439 289 q 398 322 422 317 q 354 328 374 328 q 311 320 332 328 q 274 299 290 313 q 247 269 257 286 q 238 232 238 251 q 254 191 238 207 q 304 175 271 175 m 953 443 q 953 453 953 450 q 954 465 954 456 q 933 532 954 507 q 874 557 913 557 q 797 526 831 557 q 747 443 764 496 l 953 443 z "},"ǽ":{"ha":1253,"x_min":-19,"x_max":1231,"o":"m 749 800 l 571 817 l 678 1014 l 911 1014 l 749 800 m 181 -14 q 35 40 89 -14 q -19 181 -19 94 q 9 295 -19 242 q 86 388 38 349 q 200 449 135 426 q 340 471 265 471 q 471 443 424 471 q 476 472 474 457 q 478 499 478 486 q 455 550 478 533 q 381 567 432 567 q 267 547 322 567 q 150 488 213 526 l 108 651 q 444 744 265 744 q 675 675 597 744 q 787 726 726 707 q 918 744 847 744 q 1056 720 997 744 q 1154 654 1115 696 q 1212 558 1193 613 q 1231 442 1231 503 q 1219 350 1231 388 q 1196 285 1207 313 l 719 285 q 717 272 718 278 q 717 258 717 267 q 744 194 717 214 q 807 175 771 175 q 882 194 843 175 q 939 249 921 214 l 1149 185 q 986 42 1086 97 q 757 -14 886 -14 q 581 25 650 -14 q 478 128 511 64 q 406 63 444 90 q 328 19 367 36 q 251 -6 289 3 q 181 -14 213 -14 m 304 175 q 373 188 336 175 q 438 221 410 201 q 436 232 436 226 q 436 243 436 238 q 438 274 436 258 q 442 308 439 289 q 398 322 422 317 q 354 328 374 328 q 311 320 332 328 q 274 299 290 313 q 247 269 257 286 q 238 232 238 251 q 254 191 238 207 q 304 175 271 175 m 953 443 q 953 453 953 450 q 954 465 954 456 q 933 532 954 507 q 874 557 913 557 q 797 526 831 557 q 747 443 764 496 l 953 443 z "},"à":{"ha":897,"x_min":10,"x_max":871,"o":"m 268 -14 q 159 8 207 -14 q 78 68 111 29 q 27 161 44 107 q 10 281 10 215 q 42 459 10 375 q 128 607 74 543 q 253 708 182 671 q 404 744 325 744 q 519 713 471 744 q 583 622 567 681 l 606 725 l 871 725 l 778 292 q 774 258 774 271 q 811 222 774 224 l 764 0 q 651 -14 694 -14 q 553 10 589 -14 q 517 93 517 33 q 518 114 517 107 q 402 17 468 47 q 268 -14 336 -14 m 388 208 q 450 227 421 208 q 514 283 479 246 l 542 414 q 508 492 535 463 q 443 522 481 522 q 386 506 414 522 q 336 462 358 489 q 301 399 314 435 q 288 324 288 363 q 313 240 288 271 q 388 208 339 208 m 288 1014 l 521 1014 l 544 817 l 361 797 l 288 1014 z "},"ā":{"ha":897,"x_min":10,"x_max":871,"o":"m 268 -14 q 159 8 207 -14 q 78 68 111 29 q 27 161 44 107 q 10 281 10 215 q 42 459 10 375 q 128 607 74 543 q 253 708 182 671 q 404 744 325 744 q 519 713 471 744 q 583 622 567 681 l 606 725 l 871 725 l 778 292 q 774 258 774 271 q 811 222 774 224 l 764 0 q 651 -14 694 -14 q 553 10 589 -14 q 517 93 517 33 q 518 114 517 107 q 402 17 468 47 q 268 -14 336 -14 m 388 208 q 450 227 421 208 q 514 283 479 246 l 542 414 q 508 492 535 463 q 443 522 481 522 q 386 506 414 522 q 336 462 358 489 q 301 399 314 435 q 288 324 288 363 q 313 240 288 271 q 388 208 339 208 m 247 843 l 281 1000 l 692 1000 l 658 843 l 247 843 z "},"&":{"ha":1011,"x_min":17,"x_max":964,"o":"m 542 51 q 414 2 478 18 q 292 -14 350 -14 q 167 8 219 -14 q 82 67 115 31 q 33 149 49 103 q 17 244 17 196 q 33 337 17 296 q 77 412 49 378 q 143 474 106 446 q 224 529 181 503 q 181 619 194 579 q 167 704 167 660 q 194 824 167 769 q 267 917 221 878 q 372 977 313 956 q 493 999 431 999 q 581 986 539 999 q 659 948 624 974 q 719 881 694 922 q 754 785 743 840 l 568 715 q 532 788 557 767 q 479 808 507 808 q 434 794 456 808 q 413 749 413 779 q 418 723 413 735 q 435 697 424 711 q 463 661 446 682 q 501 608 479 640 l 649 394 q 683 479 668 433 q 704 578 697 525 l 964 578 l 943 399 l 858 399 q 812 311 838 351 q 758 235 786 271 l 921 0 l 576 0 l 542 51 m 367 186 q 442 200 406 186 l 333 364 q 287 320 300 342 q 274 271 274 299 q 300 206 274 226 q 367 186 326 186 z "},"ą":{"ha":897,"x_min":10,"x_max":871,"o":"m 653 -299 q 515 -253 558 -287 q 471 -175 471 -219 q 504 -92 471 -135 q 603 -10 538 -49 q 540 22 563 -3 q 517 93 517 46 q 518 114 517 107 q 402 17 468 47 q 268 -14 336 -14 q 159 8 207 -14 q 78 68 111 29 q 27 161 44 107 q 10 281 10 215 q 42 459 10 375 q 128 607 74 543 q 253 708 182 671 q 404 744 325 744 q 519 713 471 744 q 583 622 567 681 l 606 725 l 871 725 l 778 292 q 774 258 774 271 q 811 222 774 224 l 764 0 q 677 -61 708 -32 q 646 -115 646 -90 q 666 -147 646 -135 q 731 -160 686 -160 l 653 -299 m 388 208 q 450 227 421 208 q 514 283 479 246 l 542 414 q 508 492 535 463 q 443 522 481 522 q 386 506 414 522 q 336 462 358 489 q 301 399 314 435 q 288 324 288 363 q 313 240 288 271 q 388 208 339 208 z "},"ʼ":{"ha":703,"x_min":299,"x_max":639,"o":"m 299 817 l 364 938 l 364 1014 l 639 1014 l 456 772 l 299 817 z "},"å":{"ha":897,"x_min":10,"x_max":871,"o":"m 268 -14 q 159 8 207 -14 q 78 68 111 29 q 27 161 44 107 q 10 281 10 215 q 42 459 10 375 q 128 607 74 543 q 253 708 182 671 q 404 744 325 744 q 519 713 471 744 q 583 622 567 681 l 606 725 l 871 725 l 778 292 q 774 258 774 271 q 811 222 774 224 l 764 0 q 651 -14 694 -14 q 553 10 589 -14 q 517 93 517 33 q 518 114 517 107 q 402 17 468 47 q 268 -14 336 -14 m 388 208 q 450 227 421 208 q 514 283 479 246 l 542 414 q 508 492 535 463 q 443 522 481 522 q 386 506 414 522 q 336 462 358 489 q 301 399 314 435 q 288 324 288 363 q 313 240 288 271 q 388 208 339 208 m 300 869 q 352 977 300 940 q 489 1014 404 1014 q 589 990 553 1014 q 625 917 625 965 q 573 809 625 846 q 438 772 521 772 q 337 797 374 772 q 300 869 300 821 m 472 939 q 428 924 446 939 q 410 886 410 910 q 453 847 410 847 q 497 863 478 847 q 517 901 517 878 q 504 928 517 918 q 472 939 492 939 z "},"ǻ":{"ha":897,"x_min":10,"x_max":871,"o":"m 268 -14 q 159 8 207 -14 q 78 68 111 29 q 27 161 44 107 q 10 281 10 215 q 42 459 10 375 q 128 607 74 543 q 253 708 182 671 q 404 744 325 744 q 519 713 471 744 q 583 622 567 681 l 606 725 l 871 725 l 778 292 q 774 258 774 271 q 811 222 774 224 l 764 0 q 651 -14 694 -14 q 553 10 589 -14 q 517 93 517 33 q 518 114 517 107 q 402 17 468 47 q 268 -14 336 -14 m 388 208 q 450 227 421 208 q 514 283 479 246 l 542 414 q 508 492 535 463 q 443 522 481 522 q 386 506 414 522 q 336 462 358 489 q 301 399 314 435 q 288 324 288 363 q 313 240 288 271 q 388 208 339 208 m 576 1017 l 399 1033 l 506 1231 l 739 1231 l 576 1017 m 297 869 q 349 977 297 940 q 486 1014 401 1014 q 586 990 550 1014 q 622 917 622 965 q 570 809 622 846 q 435 772 518 772 q 334 797 371 772 q 297 869 297 821 m 469 939 q 425 924 443 939 q 407 886 407 910 q 450 847 407 847 q 494 863 475 847 q 514 901 514 878 q 501 928 514 918 q 469 939 489 939 z "},"^":{"ha":875,"x_min":61,"x_max":829,"o":"m 61 421 l 336 986 l 556 986 l 829 421 l 617 421 l 446 772 l 271 421 l 61 421 z "},"~":{"ha":815,"x_min":44,"x_max":772,"o":"m 44 300 q 56 353 44 317 q 94 427 67 390 q 165 492 121 464 q 275 519 208 519 q 351 508 317 519 q 415 484 385 497 q 475 460 446 471 q 538 449 504 449 q 588 459 568 449 q 617 482 607 469 q 630 506 626 494 q 633 519 633 517 l 772 519 q 760 473 772 508 q 722 399 749 438 q 649 330 694 360 q 536 300 604 300 q 463 310 496 300 q 398 333 429 321 q 337 356 367 346 q 274 367 307 367 q 224 357 242 367 q 197 335 206 347 q 187 312 189 322 q 185 300 185 301 l 44 300 l 44 300 z "},"*":{"ha":494,"x_min":147,"x_max":525,"o":"m 149 693 l 236 801 l 147 831 l 203 938 l 292 888 l 307 1001 l 439 1001 l 406 888 l 515 938 l 525 831 l 424 801 l 467 693 l 358 631 l 318 746 l 231 631 l 149 693 z "},"@":{"ha":1139,"x_min":22,"x_max":1071,"o":"m 817 89 q 872 117 844 89 q 919 189 899 144 q 953 290 940 233 q 967 404 967 346 q 942 544 967 482 q 874 649 918 606 q 766 717 829 693 q 624 740 703 740 q 428 700 519 740 q 271 590 338 660 q 165 428 204 521 q 126 228 126 335 q 208 -17 126 71 q 435 -106 290 -106 q 534 -93 485 -106 q 647 -53 583 -81 l 657 -147 q 415 -203 538 -203 q 252 -173 325 -203 q 128 -89 179 -143 q 50 42 78 -35 q 22 215 22 119 q 72 458 22 344 q 206 656 121 572 q 405 789 290 740 q 649 838 519 838 q 822 810 744 838 q 955 731 900 783 q 1040 603 1010 679 q 1071 432 1071 528 q 1047 265 1071 346 q 983 119 1024 183 q 885 17 942 56 q 764 -22 829 -22 q 683 1 714 -22 q 651 68 651 25 q 651 75 651 71 q 653 83 651 79 q 545 13 594 35 q 443 -8 496 -8 q 278 62 339 -8 q 218 247 218 132 q 247 401 218 328 q 326 529 276 474 q 439 617 375 585 q 572 650 503 650 q 678 622 636 650 q 731 547 721 594 l 744 625 l 860 625 l 778 188 q 774 164 775 176 q 772 142 772 151 q 784 103 772 118 q 817 89 796 89 m 492 114 q 583 145 547 114 q 643 235 618 176 l 665 394 q 635 472 663 439 q 560 504 608 504 q 491 485 525 504 q 430 433 457 467 q 386 355 403 400 q 369 258 369 310 q 376 203 369 229 q 397 157 382 176 q 435 126 411 138 q 492 114 458 114 z "},"ã":{"ha":897,"x_min":10,"x_max":871,"o":"m 268 -14 q 159 8 207 -14 q 78 68 111 29 q 27 161 44 107 q 10 281 10 215 q 42 459 10 375 q 128 607 74 543 q 253 708 182 671 q 404 744 325 744 q 519 713 471 744 q 583 622 567 681 l 606 725 l 871 725 l 778 292 q 774 258 774 271 q 811 222 774 224 l 764 0 q 651 -14 694 -14 q 553 10 589 -14 q 517 93 517 33 q 518 114 517 107 q 402 17 468 47 q 268 -14 336 -14 m 388 208 q 450 227 421 208 q 514 283 479 246 l 542 414 q 508 492 535 463 q 443 522 481 522 q 386 506 414 522 q 336 462 358 489 q 301 399 314 435 q 288 324 288 363 q 313 240 288 271 q 388 208 339 208 m 533 794 q 482 805 503 794 q 444 828 461 815 q 409 851 426 840 q 369 861 392 861 q 333 851 347 861 q 310 829 318 842 q 299 806 301 817 q 296 794 296 796 l 156 794 q 178 849 160 813 q 226 922 196 886 q 299 986 257 958 q 390 1014 340 1014 q 444 1003 424 1014 q 483 978 465 992 q 516 954 500 965 q 554 943 532 943 q 590 953 575 943 q 615 977 606 964 q 630 1001 625 990 q 635 1014 635 1013 l 774 1014 q 752 966 771 1001 q 702 892 733 931 q 628 824 671 854 q 533 794 585 794 z "},"b":{"ha":871,"x_min":-22,"x_max":839,"o":"m 424 -14 q 231 114 269 -14 l 207 0 l -22 0 l 193 1014 l 457 1014 l 374 622 q 474 712 413 679 q 606 744 536 744 q 705 723 661 744 q 778 663 749 701 q 824 569 808 624 q 839 451 839 515 q 805 269 839 354 q 713 122 771 185 q 581 22 656 58 q 424 -14 506 -14 m 399 208 q 461 223 432 208 q 513 263 490 238 q 548 324 535 289 q 561 399 561 358 q 538 487 561 451 q 474 522 514 522 q 397 492 438 522 q 329 414 357 463 l 301 283 q 342 227 321 246 q 399 208 363 208 z "},"\\":{"ha":921,"x_min":147,"x_max":803,"o":"m 439 986 l 803 0 l 513 0 l 147 986 l 439 986 z "},"|":{"ha":497,"x_min":144,"x_max":367,"o":"m 144 -181 l 144 1076 l 367 1076 l 367 -181 l 144 -181 z "},"{":{"ha":500,"x_min":39,"x_max":568,"o":"m 451 819 l 406 606 q 375 543 397 567 q 328 500 353 519 q 352 465 340 485 q 364 419 364 446 q 363 407 364 413 q 361 394 363 401 l 313 165 l 385 165 l 340 -43 l 63 -43 q 47 -38 56 -43 q 39 -15 39 -33 q 40 -1 39 -7 l 106 304 q 108 316 107 311 q 108 328 108 321 q 89 384 108 363 q 47 411 69 406 l 85 592 q 115 601 99 592 q 147 624 132 610 q 173 658 161 639 q 189 696 185 676 l 250 986 q 269 1019 256 1011 q 290 1028 282 1028 l 568 1028 l 524 819 l 451 819 z "},"}":{"ha":506,"x_min":-29,"x_max":500,"o":"m 154 819 l 199 1028 l 476 1028 q 492 1022 483 1028 q 500 1000 500 1015 q 499 986 500 992 l 436 696 q 433 675 433 682 q 452 617 433 642 q 496 592 471 592 l 457 411 q 395 376 428 404 q 353 304 363 349 l 289 -1 q 269 -35 283 -28 q 249 -43 256 -43 l -29 -43 l 15 165 l 88 165 l 136 394 q 167 456 144 432 q 214 500 190 481 q 190 534 201 515 q 179 579 179 553 q 179 592 179 586 q 182 606 179 599 l 228 819 l 154 819 z "},"[":{"ha":481,"x_min":-14,"x_max":553,"o":"m -14 -56 l 217 1028 l 553 1028 l 508 819 l 415 819 l 274 153 l 367 153 l 324 -56 l -14 -56 z "},"]":{"ha":482,"x_min":-43,"x_max":524,"o":"m -43 -56 l 1 153 l 96 153 l 238 819 l 143 819 l 188 1028 l 524 1028 l 294 -56 l -43 -56 z "},"¦":{"ha":486,"x_min":139,"x_max":361,"o":"m 361 353 l 361 -181 l 139 -181 l 139 353 l 361 353 m 361 1076 l 361 543 l 139 543 l 139 1076 l 361 1076 z "},"•":{"ha":506,"x_min":106,"x_max":428,"o":"m 428 519 q 411 446 428 481 q 367 385 394 411 q 305 343 340 358 q 232 328 269 328 q 140 366 175 328 q 106 461 106 404 q 122 535 106 500 q 167 596 139 569 q 230 638 194 622 q 301 653 265 653 q 394 614 360 653 q 428 519 428 575 z "},"c":{"ha":771,"x_min":8,"x_max":785,"o":"m 322 -14 q 184 11 243 -14 q 86 78 125 36 q 28 175 47 119 q 8 293 8 231 q 42 459 8 378 q 138 603 75 540 q 288 706 200 667 q 483 744 375 744 q 686 689 613 744 q 785 546 760 633 l 511 468 q 435 522 489 522 q 378 508 406 522 q 330 467 351 493 q 296 403 308 440 q 283 322 283 367 q 306 239 283 269 q 368 208 329 208 q 467 263 421 208 l 707 185 q 547 42 644 97 q 322 -14 450 -14 z "},"ć":{"ha":771,"x_min":8,"x_max":785,"o":"m 557 800 l 379 817 l 486 1014 l 719 1014 l 557 800 m 322 -14 q 184 11 243 -14 q 86 78 125 36 q 28 175 47 119 q 8 293 8 231 q 42 459 8 378 q 138 603 75 540 q 288 706 200 667 q 483 744 375 744 q 686 689 613 744 q 785 546 760 633 l 511 468 q 435 522 489 522 q 378 508 406 522 q 330 467 351 493 q 296 403 308 440 q 283 322 283 367 q 306 239 283 269 q 368 208 329 208 q 467 263 421 208 l 707 185 q 547 42 644 97 q 322 -14 450 -14 z "},"č":{"ha":771,"x_min":8,"x_max":785,"o":"m 281 956 l 426 1014 l 519 926 l 650 1014 l 771 956 l 586 796 l 397 796 l 281 956 m 322 -14 q 184 11 243 -14 q 86 78 125 36 q 28 175 47 119 q 8 293 8 231 q 42 459 8 378 q 138 603 75 540 q 288 706 200 667 q 483 744 375 744 q 686 689 613 744 q 785 546 760 633 l 511 468 q 435 522 489 522 q 378 508 406 522 q 330 467 351 493 q 296 403 308 440 q 283 322 283 367 q 306 239 283 269 q 368 208 329 208 q 467 263 421 208 l 707 185 q 547 42 644 97 q 322 -14 450 -14 z "},"ç":{"ha":771,"x_min":8,"x_max":785,"o":"m 168 -178 q 213 -197 179 -187 q 282 -206 246 -206 q 340 -194 315 -206 q 365 -156 365 -183 q 348 -128 365 -136 q 300 -121 331 -121 q 240 -126 272 -121 q 193 -133 208 -131 l 275 -11 q 157 23 207 -4 q 74 91 107 50 q 24 184 40 132 q 8 293 8 236 q 42 459 8 378 q 138 603 75 540 q 288 706 200 667 q 483 744 375 744 q 686 689 613 744 q 785 546 760 633 l 511 468 q 435 522 489 522 q 378 508 406 522 q 330 467 351 493 q 296 403 308 440 q 283 322 283 367 q 306 239 283 269 q 368 208 329 208 q 467 263 421 208 l 707 185 q 567 53 650 106 q 376 -11 485 0 l 344 -47 q 360 -45 351 -46 q 379 -44 369 -44 q 453 -65 421 -44 q 485 -132 485 -85 q 470 -193 485 -164 q 426 -245 456 -222 q 352 -282 397 -268 q 246 -296 307 -296 q 161 -287 197 -296 q 101 -267 125 -278 l 168 -178 z "},"ĉ":{"ha":771,"x_min":8,"x_max":785,"o":"m 271 854 l 456 1014 l 644 1014 l 761 854 l 615 796 l 522 883 l 392 796 l 271 854 m 322 -14 q 184 11 243 -14 q 86 78 125 36 q 28 175 47 119 q 8 293 8 231 q 42 459 8 378 q 138 603 75 540 q 288 706 200 667 q 483 744 375 744 q 686 689 613 744 q 785 546 760 633 l 511 468 q 435 522 489 522 q 378 508 406 522 q 330 467 351 493 q 296 403 308 440 q 283 322 283 367 q 306 239 283 269 q 368 208 329 208 q 467 263 421 208 l 707 185 q 547 42 644 97 q 322 -14 450 -14 z "},"ċ":{"ha":771,"x_min":8,"x_max":785,"o":"m 322 -14 q 184 11 243 -14 q 86 78 125 36 q 28 175 47 119 q 8 293 8 231 q 42 459 8 378 q 138 603 75 540 q 288 706 200 667 q 483 744 375 744 q 686 689 613 744 q 785 546 760 633 l 511 468 q 435 522 489 522 q 378 508 406 522 q 330 467 351 493 q 296 403 308 440 q 283 322 283 367 q 306 239 283 269 q 368 208 329 208 q 467 263 421 208 l 707 185 q 547 42 644 97 q 322 -14 450 -14 m 378 806 l 422 1014 l 658 1014 l 614 806 l 378 806 z "},"¢":{"ha":832,"x_min":35,"x_max":813,"o":"m 249 -167 l 282 -12 q 178 19 224 -8 q 100 90 132 47 q 51 185 68 132 q 35 296 35 239 q 61 442 35 371 q 139 574 88 514 q 266 679 190 635 q 442 742 342 724 l 475 896 l 585 896 l 551 742 q 635 728 594 740 q 710 691 676 715 q 771 631 744 667 q 813 546 797 594 l 539 468 q 525 498 536 485 q 504 514 514 511 l 440 215 q 472 237 460 225 q 494 263 483 249 l 735 185 q 656 97 701 135 q 562 35 610 60 q 469 -1 514 11 q 392 -14 424 -14 l 358 -167 l 249 -167 m 308 314 q 314 267 308 290 q 332 228 319 243 l 390 501 q 359 470 374 490 q 333 424 344 450 q 315 370 321 399 q 308 314 308 342 z "},":":{"ha":415,"x_min":13,"x_max":379,"o":"m 111 465 l 165 721 l 379 721 l 325 465 l 111 465 m 13 0 l 67 256 l 281 256 l 226 0 l 13 0 z "},",":{"ha":356,"x_min":-36,"x_max":253,"o":"m -36 -218 l 60 0 l -19 0 l 36 256 l 253 256 l 197 0 l 78 -218 l -36 -218 z "},"©":{"ha":1197,"x_min":79,"x_max":1151,"o":"m 608 -10 q 397 28 494 -10 q 229 134 300 67 q 119 293 158 201 q 79 493 79 385 q 119 692 79 600 q 229 850 158 783 q 397 955 300 917 q 608 993 494 993 q 825 955 725 993 q 997 850 925 917 q 1110 692 1069 783 q 1151 493 1151 600 q 1110 293 1151 385 q 997 134 1069 201 q 825 28 925 67 q 608 -10 725 -10 m 608 79 q 783 110 701 79 q 925 194 865 140 q 1019 325 985 249 q 1054 493 1054 401 q 1020 653 1054 578 q 927 784 986 728 q 786 872 868 840 q 608 904 704 904 q 438 872 517 904 q 300 784 358 840 q 209 653 242 728 q 176 493 176 578 q 209 331 176 407 q 299 199 242 256 q 436 111 357 143 q 608 79 515 79 m 622 154 q 462 182 532 154 q 344 256 392 210 q 273 364 297 303 q 249 492 249 425 q 273 619 249 558 q 344 727 297 681 q 462 801 392 774 q 622 829 532 829 q 836 774 750 829 q 965 631 922 718 l 708 553 q 621 607 676 607 q 549 577 579 607 q 519 492 519 547 q 549 406 519 436 q 621 376 579 376 q 708 431 676 376 l 965 353 q 836 210 922 265 q 622 154 750 154 z "},"d":{"ha":896,"x_min":10,"x_max":932,"o":"m 268 -14 q 159 8 207 -14 q 78 68 111 29 q 27 161 44 107 q 10 281 10 215 q 42 459 10 375 q 128 607 74 543 q 253 708 182 671 q 404 744 325 744 q 519 713 471 744 q 583 622 567 681 l 667 1014 l 932 1014 l 778 292 q 774 258 774 271 q 811 222 774 224 l 764 0 q 651 -14 694 -14 q 553 8 592 -14 q 515 86 515 31 q 516 100 515 93 q 518 114 517 107 q 402 17 468 47 q 268 -14 336 -14 m 388 208 q 450 227 421 208 q 514 283 479 246 l 542 414 q 508 492 535 463 q 443 522 481 522 q 386 506 414 522 q 336 462 358 489 q 301 399 314 435 q 288 324 288 363 q 313 240 288 271 q 388 208 339 208 z "},"†":{"ha":689,"x_min":13,"x_max":660,"o":"m 93 -181 l 186 258 l 13 258 l 63 494 l 238 494 l 361 1076 l 611 1076 l 486 494 l 660 494 l 610 258 l 436 258 l 343 -181 l 93 -181 z "},"‡":{"ha":726,"x_min":-7,"x_max":724,"o":"m 114 -181 l 167 74 l -7 74 l 43 310 l 218 310 l 251 467 l 76 467 l 126 703 l 301 703 l 381 1076 l 631 1076 l 551 703 l 724 703 l 674 467 l 500 467 l 467 310 l 640 310 l 590 74 l 417 74 l 363 -181 l 114 -181 z "},"ď":{"ha":896,"x_min":10,"x_max":1285,"o":"m 944 817 l 1051 1014 l 1285 1014 l 1101 772 l 944 817 m 268 -14 q 159 8 207 -14 q 78 68 111 29 q 27 161 44 107 q 10 281 10 215 q 42 459 10 375 q 128 607 74 543 q 253 708 182 671 q 404 744 325 744 q 519 713 471 744 q 583 622 567 681 l 667 1014 l 932 1014 l 778 292 q 774 258 774 271 q 811 222 774 224 l 764 0 q 651 -14 694 -14 q 553 8 592 -14 q 515 86 515 31 q 516 100 515 93 q 518 114 517 107 q 402 17 468 47 q 268 -14 336 -14 m 388 208 q 450 227 421 208 q 514 283 479 246 l 542 414 q 508 492 535 463 q 443 522 481 522 q 386 506 414 522 q 336 462 358 489 q 301 399 314 435 q 288 324 288 363 q 313 240 288 271 q 388 208 339 208 z "},"đ":{"ha":896,"x_min":10,"x_max":1008,"o":"m 557 956 l 654 956 l 667 1014 l 932 1014 l 919 956 l 1008 956 l 975 804 l 888 804 l 778 292 q 774 258 774 271 q 811 222 774 224 l 764 0 q 651 -14 694 -14 q 518 88 518 -14 l 518 114 q 402 17 468 47 q 268 -14 336 -14 q 159 8 207 -14 q 78 68 111 29 q 27 161 44 107 q 10 281 10 215 q 42 459 10 375 q 128 607 74 543 q 253 708 182 671 q 404 744 325 744 q 519 713 471 744 q 583 622 567 681 l 622 804 l 525 804 l 557 956 m 388 208 q 450 227 421 208 q 514 283 479 246 l 542 414 q 508 492 535 463 q 443 522 481 522 q 386 506 414 522 q 336 462 358 489 q 301 399 314 435 q 288 324 288 363 q 313 240 288 271 q 388 208 339 208 z "},"°":{"ha":408,"x_min":126,"x_max":457,"o":"m 256 675 q 160 709 194 675 q 126 801 126 743 q 142 877 126 840 q 183 942 157 914 q 247 988 210 971 q 326 1006 283 1006 q 422 969 388 1006 q 457 876 457 933 q 441 797 457 833 q 398 733 425 760 q 334 690 371 706 q 256 675 297 675 m 282 796 q 316 813 300 796 q 332 850 332 829 q 322 876 332 869 q 300 883 311 883 q 265 868 281 883 q 249 833 249 853 q 257 807 249 818 q 282 796 265 796 z "},"÷":{"ha":701,"x_min":74,"x_max":635,"o":"m 244 604 l 244 826 l 465 826 l 465 604 l 244 604 m 244 38 l 244 260 l 465 260 l 465 38 l 244 38 m 74 326 l 74 535 l 635 535 l 635 326 l 74 326 z "},"$":{"ha":875,"x_min":-22,"x_max":892,"o":"m 728 664 q 708 678 724 668 q 669 702 693 689 q 615 728 646 715 q 547 749 583 742 l 521 625 l 574 607 q 663 569 622 590 q 734 520 704 549 q 781 453 764 492 q 797 364 797 415 q 763 197 797 265 q 672 83 728 128 q 547 16 617 39 q 406 -11 476 -7 l 371 -179 l 260 -179 l 296 -8 q 124 29 208 0 q -22 103 40 58 l 144 339 q 165 322 147 336 q 214 292 183 308 q 284 259 244 275 q 368 236 324 243 l 393 356 l 311 385 q 174 471 218 418 q 129 603 129 524 q 161 756 129 688 q 247 875 193 825 q 368 954 300 925 q 508 992 436 983 l 539 1132 l 649 1132 l 618 990 q 699 974 660 985 q 774 948 739 963 q 838 917 808 933 q 892 888 868 901 l 728 664 m 492 283 q 457 328 492 310 l 438 232 q 482 250 472 235 q 492 283 492 265 m 426 696 q 456 653 426 669 l 478 751 q 441 733 456 747 q 426 696 426 719 z "},"ı":{"ha":397,"x_min":-22,"x_max":397,"o":"m 133 731 l 397 731 l 242 0 l -22 0 l 133 731 z "},"ȷ":{"ha":397,"x_min":-282,"x_max":397,"o":"m -97 -290 q -201 -271 -153 -290 q -282 -215 -249 -251 l -136 -36 q -83 -64 -119 -64 q -24 -4 -37 -64 l 132 731 l 397 731 l 246 17 q 199 -108 231 -51 q 122 -205 167 -164 q 20 -268 76 -246 q -97 -290 -36 -290 z "},"e":{"ha":786,"x_min":10,"x_max":774,"o":"m 324 -14 q 194 8 253 -14 q 95 71 136 31 q 32 168 54 111 q 10 296 10 225 q 47 471 10 389 q 150 614 85 553 q 303 710 215 675 q 492 744 392 744 q 699 688 625 744 q 774 532 774 632 q 660 346 774 408 q 325 283 547 283 l 285 283 q 305 199 285 224 q 374 175 325 175 q 510 250 463 175 l 717 183 q 642 103 686 139 q 547 40 599 67 q 438 0 494 14 q 324 -14 381 -14 m 444 557 q 370 526 404 557 q 314 442 336 494 l 324 442 q 473 455 431 442 q 515 503 515 468 q 496 542 515 526 q 444 557 476 557 z "},"é":{"ha":786,"x_min":10,"x_max":774,"o":"m 558 800 l 381 817 l 488 1014 l 721 1014 l 558 800 m 324 -14 q 194 8 253 -14 q 95 71 136 31 q 32 168 54 111 q 10 296 10 225 q 47 471 10 389 q 150 614 85 553 q 303 710 215 675 q 492 744 392 744 q 699 688 625 744 q 774 532 774 632 q 660 346 774 408 q 325 283 547 283 l 285 283 q 305 199 285 224 q 374 175 325 175 q 510 250 463 175 l 717 183 q 642 103 686 139 q 547 40 599 67 q 438 0 494 14 q 324 -14 381 -14 m 444 557 q 370 526 404 557 q 314 442 336 494 l 324 442 q 473 455 431 442 q 515 503 515 468 q 496 542 515 526 q 444 557 476 557 z "},"ĕ":{"ha":786,"x_min":10,"x_max":774,"o":"m 324 -14 q 194 8 253 -14 q 95 71 136 31 q 32 168 54 111 q 10 296 10 225 q 47 471 10 389 q 150 614 85 553 q 303 710 215 675 q 492 744 392 744 q 699 688 625 744 q 774 532 774 632 q 660 346 774 408 q 325 283 547 283 l 285 283 q 305 199 285 224 q 374 175 325 175 q 510 250 463 175 l 717 183 q 642 103 686 139 q 547 40 599 67 q 438 0 494 14 q 324 -14 381 -14 m 444 557 q 370 526 404 557 q 314 442 336 494 l 324 442 q 473 455 431 442 q 515 503 515 468 q 496 542 515 526 q 444 557 476 557 m 513 901 q 572 933 543 901 q 617 1014 601 965 l 753 1014 q 717 923 742 964 q 658 852 693 882 q 580 806 624 822 q 489 789 536 789 q 359 835 406 789 q 313 957 313 881 q 319 1014 313 982 l 456 1014 q 451 982 451 997 q 468 924 451 947 q 513 901 485 901 z "},"ě":{"ha":786,"x_min":10,"x_max":774,"o":"m 281 956 l 426 1014 l 519 926 l 650 1014 l 771 956 l 586 796 l 397 796 l 281 956 m 324 -14 q 194 8 253 -14 q 95 71 136 31 q 32 168 54 111 q 10 296 10 225 q 47 471 10 389 q 150 614 85 553 q 303 710 215 675 q 492 744 392 744 q 699 688 625 744 q 774 532 774 632 q 660 346 774 408 q 325 283 547 283 l 285 283 q 305 199 285 224 q 374 175 325 175 q 510 250 463 175 l 717 183 q 642 103 686 139 q 547 40 599 67 q 438 0 494 14 q 324 -14 381 -14 m 444 557 q 370 526 404 557 q 314 442 336 494 l 324 442 q 473 455 431 442 q 515 503 515 468 q 496 542 515 526 q 444 557 476 557 z "},"ê":{"ha":786,"x_min":10,"x_max":774,"o":"m 275 854 l 460 1014 l 649 1014 l 765 854 l 619 796 l 526 883 l 396 796 l 275 854 m 324 -14 q 194 8 253 -14 q 95 71 136 31 q 32 168 54 111 q 10 296 10 225 q 47 471 10 389 q 150 614 85 553 q 303 710 215 675 q 492 744 392 744 q 699 688 625 744 q 774 532 774 632 q 660 346 774 408 q 325 283 547 283 l 285 283 q 305 199 285 224 q 374 175 325 175 q 510 250 463 175 l 717 183 q 642 103 686 139 q 547 40 599 67 q 438 0 494 14 q 324 -14 381 -14 m 444 557 q 370 526 404 557 q 314 442 336 494 l 324 442 q 473 455 431 442 q 515 503 515 468 q 496 542 515 526 q 444 557 476 557 z "},"ë":{"ha":786,"x_min":10,"x_max":813,"o":"m 243 806 l 285 1000 l 501 1000 l 460 806 l 243 806 m 556 806 l 597 1000 l 813 1000 l 772 806 l 556 806 m 324 -14 q 194 8 253 -14 q 95 71 136 31 q 32 168 54 111 q 10 296 10 225 q 47 471 10 389 q 150 614 85 553 q 303 710 215 675 q 492 744 392 744 q 699 688 625 744 q 774 532 774 632 q 660 346 774 408 q 325 283 547 283 l 285 283 q 305 199 285 224 q 374 175 325 175 q 510 250 463 175 l 717 183 q 642 103 686 139 q 547 40 599 67 q 438 0 494 14 q 324 -14 381 -14 m 444 557 q 370 526 404 557 q 314 442 336 494 l 324 442 q 473 455 431 442 q 515 503 515 468 q 496 542 515 526 q 444 557 476 557 z "},"ė":{"ha":786,"x_min":10,"x_max":774,"o":"m 324 -14 q 194 8 253 -14 q 95 71 136 31 q 32 168 54 111 q 10 296 10 225 q 47 471 10 389 q 150 614 85 553 q 303 710 215 675 q 492 744 392 744 q 699 688 625 744 q 774 532 774 632 q 660 346 774 408 q 325 283 547 283 l 285 283 q 305 199 285 224 q 374 175 325 175 q 510 250 463 175 l 717 183 q 642 103 686 139 q 547 40 599 67 q 438 0 494 14 q 324 -14 381 -14 m 444 557 q 370 526 404 557 q 314 442 336 494 l 324 442 q 473 455 431 442 q 515 503 515 468 q 496 542 515 526 q 444 557 476 557 m 383 806 l 428 1014 l 664 1014 l 619 806 l 383 806 z "},"è":{"ha":786,"x_min":10,"x_max":774,"o":"m 324 -14 q 194 8 253 -14 q 95 71 136 31 q 32 168 54 111 q 10 296 10 225 q 47 471 10 389 q 150 614 85 553 q 303 710 215 675 q 492 744 392 744 q 699 688 625 744 q 774 532 774 632 q 660 346 774 408 q 325 283 547 283 l 285 283 q 305 199 285 224 q 374 175 325 175 q 510 250 463 175 l 717 183 q 642 103 686 139 q 547 40 599 67 q 438 0 494 14 q 324 -14 381 -14 m 444 557 q 370 526 404 557 q 314 442 336 494 l 324 442 q 473 455 431 442 q 515 503 515 468 q 496 542 515 526 q 444 557 476 557 m 356 1014 l 589 1014 l 613 817 l 429 797 l 356 1014 z "},"₈":{"ha":592,"x_min":-40,"x_max":514,"o":"m 481 85 q 455 -1 481 39 q 388 -70 429 -40 q 292 -117 346 -100 q 181 -133 238 -133 q 93 -121 133 -133 q 23 -85 53 -108 q -24 -32 -7 -62 q -40 36 -40 -1 q -30 94 -40 69 q -1 139 -19 119 q 43 173 18 158 q 96 201 68 188 q 53 236 71 214 q 36 293 36 258 q 62 370 36 335 q 128 431 88 406 q 216 472 168 457 q 310 486 264 486 q 384 475 347 486 q 450 444 421 464 q 497 396 479 424 q 514 335 514 368 q 482 253 514 286 q 406 201 450 221 q 460 153 439 182 q 481 85 481 125 m 329 82 q 301 119 329 106 q 235 133 274 133 q 153 116 188 133 q 118 71 118 99 q 147 33 118 47 q 213 18 175 18 q 256 23 235 18 q 293 36 276 28 q 319 56 310 44 q 329 82 329 68 m 185 294 q 209 267 185 276 q 261 257 233 257 q 294 260 278 257 q 325 269 311 263 q 348 283 339 275 q 357 303 357 292 q 334 330 357 319 q 279 340 311 340 q 214 328 243 340 q 185 294 185 315 z "},"⁸":{"ha":590,"x_min":97,"x_max":651,"o":"m 618 738 q 592 652 618 692 q 525 583 567 613 q 429 536 483 553 q 318 519 375 519 q 231 532 271 519 q 160 567 190 544 q 114 621 131 590 q 97 689 97 651 q 108 747 97 722 q 137 792 118 772 q 181 826 156 811 q 233 854 206 840 q 191 889 208 867 q 174 946 174 911 q 199 1023 174 988 q 265 1084 225 1058 q 353 1124 306 1110 q 447 1139 401 1139 q 522 1128 485 1139 q 588 1097 558 1117 q 634 1049 617 1076 q 651 988 651 1021 q 619 906 651 939 q 543 854 588 874 q 597 806 576 835 q 618 738 618 778 m 467 735 q 439 772 467 758 q 372 786 411 786 q 290 769 325 786 q 256 724 256 751 q 284 685 256 700 q 350 671 313 671 q 393 676 372 671 q 431 689 414 681 q 457 709 447 697 q 467 735 467 721 m 322 947 q 347 919 322 929 q 399 910 371 910 q 432 913 415 910 q 463 922 449 915 q 485 936 476 928 q 494 956 494 944 q 472 983 494 972 q 417 993 449 993 q 351 981 381 993 q 322 947 322 968 z "},"…":{"ha":992,"x_min":-18,"x_max":889,"o":"m -18 0 l 36 256 l 250 256 l 196 0 l -18 0 m 301 0 l 356 256 l 569 256 l 515 0 l 301 0 m 621 0 l 675 256 l 889 256 l 835 0 l 621 0 z "},"ē":{"ha":786,"x_min":10,"x_max":774,"o":"m 324 -14 q 194 8 253 -14 q 95 71 136 31 q 32 168 54 111 q 10 296 10 225 q 47 471 10 389 q 150 614 85 553 q 303 710 215 675 q 492 744 392 744 q 699 688 625 744 q 774 532 774 632 q 660 346 774 408 q 325 283 547 283 l 285 283 q 305 199 285 224 q 374 175 325 175 q 510 250 463 175 l 717 183 q 642 103 686 139 q 547 40 599 67 q 438 0 494 14 q 324 -14 381 -14 m 444 557 q 370 526 404 557 q 314 442 336 494 l 324 442 q 473 455 431 442 q 515 503 515 468 q 496 542 515 526 q 444 557 476 557 m 304 843 l 338 1000 l 749 1000 l 715 843 l 304 843 z "},"—":{"ha":1265,"x_min":36,"x_max":1214,"o":"m 36 265 l 86 501 l 1214 501 l 1164 265 l 36 265 z "},"–":{"ha":846,"x_min":36,"x_max":794,"o":"m 36 265 l 86 501 l 794 501 l 744 265 l 36 265 z "},"ŋ":{"ha":833,"x_min":-22,"x_max":799,"o":"m 344 -290 q 242 -271 289 -290 q 161 -215 194 -251 l 307 -36 q 360 -64 324 -64 q 421 -4 407 -64 l 510 411 q 514 447 514 432 q 498 498 514 482 q 460 514 482 514 q 394 485 432 514 q 329 410 356 456 l 242 0 l -22 0 l 133 731 l 371 731 l 347 622 q 469 713 396 682 q 632 744 542 744 q 715 731 682 744 q 766 694 747 717 q 792 642 785 671 q 799 582 799 613 q 795 530 799 556 q 786 481 792 504 l 688 17 q 640 -108 672 -51 q 563 -205 608 -164 q 461 -268 517 -246 q 344 -290 406 -290 z "},"ę":{"ha":786,"x_min":10,"x_max":774,"o":"m 300 -304 q 162 -259 206 -293 q 118 -181 118 -225 q 155 -94 118 -139 q 263 -10 192 -50 q 77 89 144 8 q 10 296 10 169 q 47 471 10 389 q 150 614 85 553 q 303 710 215 675 q 492 744 392 744 q 699 688 625 744 q 774 532 774 632 q 660 346 774 408 q 325 283 547 283 l 285 283 q 305 199 285 224 q 374 175 325 175 q 510 250 463 175 l 717 183 q 585 61 667 111 q 411 -6 503 11 q 324 -67 356 -37 q 293 -121 293 -96 q 313 -153 293 -140 q 378 -165 333 -165 l 300 -304 m 444 557 q 370 526 404 557 q 314 442 336 494 l 324 442 q 473 455 431 442 q 515 503 515 468 q 496 542 515 526 q 444 557 476 557 z "},"=":{"ha":683,"x_min":108,"x_max":557,"o":"m 108 140 l 108 307 l 557 307 l 557 140 l 108 140 m 108 460 l 108 626 l 557 626 l 557 460 l 108 460 z "},"ð":{"ha":838,"x_min":6,"x_max":840,"o":"m 840 890 l 740 842 q 794 693 775 774 q 813 526 813 613 q 778 305 813 404 q 679 135 743 206 q 525 25 615 64 q 325 -14 435 -14 q 192 7 251 -14 q 92 65 133 28 q 28 153 50 101 q 6 265 6 204 q 38 415 6 344 q 125 539 71 486 q 250 623 179 592 q 397 654 321 654 q 490 638 446 654 q 565 590 533 621 q 553 679 563 638 q 540 717 547 699 q 525 756 533 736 l 424 708 l 372 807 l 464 851 q 378 935 428 896 q 267 1014 329 975 l 583 1014 q 633 980 610 1000 q 679 935 657 960 l 789 989 l 840 890 m 281 300 q 304 233 281 258 q 372 208 328 208 q 473 249 433 208 q 513 353 513 290 q 490 419 513 394 q 422 444 467 444 q 320 403 360 444 q 281 300 281 363 z "},"ẽ":{"ha":786,"x_min":10,"x_max":828,"o":"m 324 -14 q 194 8 253 -14 q 95 71 136 31 q 32 168 54 111 q 10 296 10 225 q 47 471 10 389 q 150 614 85 553 q 303 710 215 675 q 492 744 392 744 q 699 688 625 744 q 774 532 774 632 q 660 346 774 408 q 325 283 547 283 l 285 283 q 305 199 285 224 q 374 175 325 175 q 510 250 463 175 l 717 183 q 642 103 686 139 q 547 40 599 67 q 438 0 494 14 q 324 -14 381 -14 m 444 557 q 370 526 404 557 q 314 442 336 494 l 324 442 q 473 455 431 442 q 515 503 515 468 q 496 542 515 526 q 444 557 476 557 m 588 794 q 536 805 557 794 q 498 828 515 815 q 463 851 481 840 q 424 861 446 861 q 387 851 401 861 q 364 829 372 842 q 353 806 356 817 q 350 794 350 796 l 210 794 q 232 849 214 813 q 281 922 250 886 q 353 986 311 958 q 444 1014 394 1014 q 499 1003 478 1014 q 537 978 519 992 q 570 954 554 965 q 608 943 586 943 q 644 953 629 943 q 669 977 660 964 q 684 1001 679 990 q 689 1014 689 1013 l 828 1014 q 806 966 825 1001 q 756 892 788 931 q 682 824 725 854 q 588 794 639 794 z "},"!":{"ha":458,"x_min":8,"x_max":483,"o":"m 97 417 l 219 996 l 483 996 l 361 417 l 97 417 m 8 0 l 63 256 l 326 256 l 272 0 l 8 0 z "},"¡":{"ha":460,"x_min":7,"x_max":482,"o":"m 394 569 l 271 -10 l 7 -10 l 131 569 l 394 569 m 482 986 l 428 731 l 164 731 l 218 986 l 482 986 z "},"f":{"ha":547,"x_min":-39,"x_max":690,"o":"m 119 447 l 35 447 l 78 646 l 163 646 l 179 725 q 224 849 193 793 q 297 945 254 906 q 392 1006 340 985 q 503 1028 444 1028 q 690 986 590 1028 l 604 786 q 560 800 585 794 q 515 806 535 806 q 444 735 458 806 l 425 646 l 575 646 l 532 447 l 383 447 l 225 -296 l -39 -296 l 119 447 z "},"ﬀ":{"ha":933,"x_min":25,"x_max":1076,"o":"m 119 447 l 35 447 l 78 646 l 163 646 l 169 678 q 215 802 185 746 q 288 898 246 858 q 383 959 331 938 q 496 981 436 981 q 678 939 578 981 q 774 1004 721 981 q 892 1028 828 1028 q 1076 986 974 1028 l 990 786 q 944 800 969 794 q 903 806 919 806 q 833 735 847 806 l 814 646 l 960 646 l 918 447 l 772 447 l 676 0 l 413 0 l 508 447 l 383 447 l 289 0 l 25 0 l 119 447 m 550 646 q 560 696 556 671 q 569 746 565 721 q 536 755 553 751 q 504 758 519 758 q 435 688 449 758 l 426 646 l 550 646 z "},"ﬃ":{"ha":1232,"x_min":25,"x_max":1240,"o":"m 119 447 l 35 447 l 78 646 l 163 646 l 169 678 q 215 802 185 746 q 288 898 246 858 q 383 959 331 938 q 496 981 436 981 q 678 939 578 981 q 799 1004 729 981 q 949 1028 868 1028 q 1088 1001 1015 1028 q 1240 917 1160 975 l 1099 717 q 1016 781 1063 757 q 931 806 969 806 q 833 735 847 806 l 814 646 l 1214 646 l 1076 0 l 811 0 l 907 447 l 772 447 l 676 0 l 413 0 l 508 447 l 383 447 l 289 0 l 25 0 l 119 447 m 550 646 q 560 696 556 671 q 569 746 565 721 q 536 755 553 751 q 504 758 519 758 q 435 688 449 758 l 426 646 l 550 646 z "},"ﬄ":{"ha":1347,"x_min":25,"x_max":1285,"o":"m 1054 -12 q 916 28 963 -12 q 869 129 869 69 q 874 163 869 146 l 982 671 q 989 708 986 690 q 992 742 992 726 q 977 789 992 772 q 925 806 963 806 q 856 770 881 806 q 821 686 831 735 l 813 646 l 899 646 l 857 447 l 769 447 l 675 0 l 411 0 l 506 447 l 383 447 l 289 0 l 25 0 l 119 447 l 35 447 l 78 646 l 163 646 l 169 678 q 215 802 185 746 q 288 898 246 858 q 381 959 329 938 q 492 981 433 981 q 679 939 579 981 q 808 1006 733 985 q 969 1028 882 1028 q 1194 966 1124 1028 q 1264 799 1264 904 q 1262 755 1264 778 q 1254 708 1260 732 l 1167 301 q 1165 288 1165 294 q 1164 275 1164 282 q 1173 238 1164 254 q 1206 222 1182 222 q 1230 226 1217 222 q 1256 233 1243 229 q 1276 241 1268 238 q 1285 244 1285 244 l 1272 33 q 1249 24 1269 32 q 1198 8 1229 17 q 1128 -6 1167 0 q 1054 -12 1090 -12 m 549 646 q 559 697 554 671 q 568 747 564 722 q 504 758 532 758 q 435 688 449 758 l 426 646 l 549 646 z "},"ﬁ":{"ha":843,"x_min":25,"x_max":853,"o":"m 119 447 l 35 447 l 78 646 l 163 646 l 179 725 q 229 849 193 793 q 317 945 265 906 q 432 1006 368 985 q 565 1028 496 1028 q 709 1001 642 1028 q 853 917 776 974 l 711 717 q 626 782 672 758 q 536 806 581 806 q 476 788 500 806 q 444 735 451 771 l 425 646 l 825 646 l 688 0 l 424 0 l 518 447 l 383 447 l 289 0 l 25 0 l 119 447 z "},"ﬂ":{"ha":961,"x_min":25,"x_max":900,"o":"m 668 -12 q 530 28 576 -12 q 483 129 483 69 q 488 163 483 146 l 593 657 q 602 707 599 685 q 606 746 606 729 q 593 791 606 776 q 549 806 581 806 q 471 772 496 806 q 435 686 446 739 l 426 646 l 513 646 l 471 447 l 383 447 l 289 0 l 25 0 l 119 447 l 35 447 l 78 646 l 163 646 l 185 750 q 237 875 200 822 q 326 962 274 928 q 443 1012 378 996 q 583 1028 508 1028 q 808 966 738 1028 q 878 799 878 904 q 876 755 878 778 q 868 708 874 732 l 782 301 q 780 288 781 294 q 779 274 779 281 q 788 238 779 254 q 819 222 796 222 q 844 226 831 222 q 869 233 857 229 q 890 241 882 238 q 900 244 899 244 l 886 33 q 863 24 883 32 q 812 8 843 17 q 743 -6 781 0 q 668 -12 706 -12 z "},"⅝":{"ha":1268,"x_min":58,"x_max":1203,"o":"m 869 -8 q 782 4 822 -8 q 712 40 742 17 q 665 93 682 63 q 649 161 649 124 q 659 219 649 194 q 688 264 669 244 q 732 298 707 283 q 785 326 757 313 q 742 361 760 339 q 725 418 725 383 q 751 495 725 460 q 817 556 776 531 q 905 597 857 582 q 999 611 953 611 q 1073 600 1036 611 q 1139 569 1110 589 q 1185 521 1168 549 q 1203 460 1203 493 q 1171 378 1203 411 q 1094 326 1139 346 q 1149 278 1128 307 q 1169 210 1169 250 q 1144 124 1169 164 q 1076 55 1118 85 q 981 8 1035 25 q 869 -8 926 -8 m 901 143 q 944 148 924 143 q 982 161 965 153 q 1008 181 999 169 q 1018 207 1018 193 q 990 244 1018 231 q 924 258 963 258 q 842 241 876 258 q 807 196 807 224 q 835 158 807 172 q 901 143 864 143 m 950 382 q 983 385 967 382 q 1014 394 1000 388 q 1037 408 1028 400 q 1046 428 1046 417 q 1023 455 1046 444 q 968 465 1000 465 q 903 453 932 465 q 874 419 874 440 q 898 392 874 401 q 950 382 922 382 m 388 804 q 528 758 475 804 q 581 639 581 713 q 556 542 581 586 q 490 465 532 497 q 390 413 447 432 q 267 394 332 394 q 138 420 193 394 q 58 490 82 446 l 167 596 q 224 555 189 569 q 307 540 260 540 q 391 560 356 540 q 426 628 426 579 q 402 678 426 664 q 354 693 378 693 q 324 689 340 693 q 291 676 307 685 q 260 657 275 668 q 238 633 246 646 l 108 633 q 190 824 146 729 q 271 1015 233 918 l 614 1015 l 582 864 l 346 864 l 310 793 q 337 800 318 796 q 388 804 356 804 m 168 90 l 636 533 l 1064 1001 l 1157 897 l 708 468 l 261 -14 l 168 90 z "},"⁵":{"ha":551,"x_min":67,"x_max":622,"o":"m 396 929 q 536 883 483 929 q 589 764 589 838 q 565 667 589 711 q 498 590 540 622 q 398 538 456 557 q 275 519 340 519 q 146 545 201 519 q 67 615 90 571 l 175 721 q 233 680 197 694 q 315 665 268 665 q 399 685 364 665 q 435 753 435 704 q 410 803 435 789 q 363 818 386 818 q 332 814 349 818 q 299 801 315 810 q 269 782 283 793 q 246 758 254 771 l 117 758 q 198 949 154 854 q 279 1140 242 1043 l 622 1140 l 590 989 l 354 989 l 318 918 q 345 925 326 921 q 396 929 364 929 z "},"⁄":{"ha":333,"x_min":-311,"x_max":678,"o":"m -311 90 l 157 533 l 585 1001 l 678 897 l 229 468 l -218 -14 l -311 90 z "},"₅":{"ha":553,"x_min":-71,"x_max":485,"o":"m 258 276 q 399 231 346 276 q 451 111 451 185 q 427 14 451 58 q 360 -63 403 -31 q 260 -115 318 -96 q 138 -133 203 -133 q 8 -108 64 -133 q -71 -37 -47 -82 l 38 68 q 95 27 60 42 q 178 13 131 13 q 262 32 226 13 q 297 100 297 51 q 273 151 297 136 q 225 165 249 165 q 194 161 211 165 q 162 149 178 157 q 131 129 146 140 q 108 106 117 118 l -21 106 q 60 296 17 201 q 142 488 104 390 l 485 488 l 453 336 l 217 336 l 181 265 q 208 272 189 268 q 258 276 226 276 z "},"ƒ":{"ha":756,"x_min":-96,"x_max":829,"o":"m 89 -290 q -15 -271 33 -290 q -96 -215 -62 -251 l 50 -36 q 103 -64 67 -64 q 163 -4 149 -64 l 258 447 l 174 447 l 217 646 l 301 646 l 318 725 q 363 849 332 793 q 436 945 393 906 q 531 1006 479 985 q 642 1028 583 1028 q 829 986 729 1028 l 743 786 q 699 800 724 794 q 654 806 674 806 q 583 735 597 806 l 564 646 l 714 646 l 671 447 l 522 447 l 428 3 q 381 -117 414 -62 q 304 -209 349 -171 q 204 -269 260 -247 q 89 -290 149 -290 z "},"₄":{"ha":579,"x_min":-64,"x_max":485,"o":"m 194 -124 l 218 -8 l -64 -8 l -32 140 l 371 488 l 474 488 l 400 140 l 485 140 l 453 -8 l 368 -8 l 343 -124 l 194 -124 m 107 140 l 256 140 l 292 308 l 107 140 z "},"⁴":{"ha":579,"x_min":75,"x_max":624,"o":"m 333 529 l 357 644 l 75 644 l 107 793 l 510 1140 l 613 1140 l 539 793 l 624 793 l 592 644 l 507 644 l 482 529 l 333 529 m 246 793 l 394 793 l 431 961 l 246 793 z "},"g":{"ha":869,"x_min":-90,"x_max":871,"o":"m 221 -310 q 35 -274 111 -310 q -90 -169 -40 -237 l 79 -25 q 156 -88 108 -62 q 261 -114 203 -114 q 327 -104 294 -114 q 387 -73 360 -94 q 435 -17 414 -51 q 465 67 456 18 l 475 114 q 373 28 435 56 q 244 0 311 0 q 145 22 189 0 q 72 81 101 43 q 26 170 42 118 q 11 283 11 222 q 44 463 11 379 q 135 610 78 547 q 267 708 192 672 q 426 744 343 744 q 549 713 500 744 q 618 622 599 682 l 642 731 l 871 731 l 729 67 q 666 -89 711 -19 q 554 -207 621 -158 q 403 -283 488 -256 q 221 -310 318 -310 m 385 208 q 448 227 418 208 q 511 283 478 246 l 539 414 q 504 493 532 464 q 440 522 476 522 q 384 506 411 522 q 335 461 357 489 q 299 398 313 433 q 286 324 286 363 q 313 240 286 272 q 385 208 339 208 z "},"ğ":{"ha":869,"x_min":-90,"x_max":871,"o":"m 221 -310 q 35 -274 111 -310 q -90 -169 -40 -237 l 79 -25 q 156 -88 108 -62 q 261 -114 203 -114 q 327 -104 294 -114 q 387 -73 360 -94 q 435 -17 414 -51 q 465 67 456 18 l 475 114 q 373 28 435 56 q 244 0 311 0 q 145 22 189 0 q 72 81 101 43 q 26 170 42 118 q 11 283 11 222 q 44 463 11 379 q 135 610 78 547 q 267 708 192 672 q 426 744 343 744 q 549 713 500 744 q 618 622 599 682 l 642 731 l 871 731 l 729 67 q 666 -89 711 -19 q 554 -207 621 -158 q 403 -283 488 -256 q 221 -310 318 -310 m 385 208 q 448 227 418 208 q 511 283 478 246 l 539 414 q 504 493 532 464 q 440 522 476 522 q 384 506 411 522 q 335 461 357 489 q 299 398 313 433 q 286 324 286 363 q 313 240 286 272 q 385 208 339 208 m 506 901 q 565 933 536 901 q 610 1014 594 965 l 746 1014 q 710 923 735 964 q 651 852 686 882 q 573 806 617 822 q 482 789 529 789 q 352 835 399 789 q 306 957 306 881 q 313 1014 306 982 l 449 1014 q 444 982 444 997 q 461 924 444 947 q 506 901 478 901 z "},"ĝ":{"ha":869,"x_min":-90,"x_max":871,"o":"m 257 854 l 442 1014 l 631 1014 l 747 854 l 601 796 l 508 883 l 378 796 l 257 854 m 221 -310 q 35 -274 111 -310 q -90 -169 -40 -237 l 79 -25 q 156 -88 108 -62 q 261 -114 203 -114 q 327 -104 294 -114 q 387 -73 360 -94 q 435 -17 414 -51 q 465 67 456 18 l 475 114 q 373 28 435 56 q 244 0 311 0 q 145 22 189 0 q 72 81 101 43 q 26 170 42 118 q 11 283 11 222 q 44 463 11 379 q 135 610 78 547 q 267 708 192 672 q 426 744 343 744 q 549 713 500 744 q 618 622 599 682 l 642 731 l 871 731 l 729 67 q 666 -89 711 -19 q 554 -207 621 -158 q 403 -283 488 -256 q 221 -310 318 -310 m 385 208 q 448 227 418 208 q 511 283 478 246 l 539 414 q 504 493 532 464 q 440 522 476 522 q 384 506 411 522 q 335 461 357 489 q 299 398 313 433 q 286 324 286 363 q 313 240 286 272 q 385 208 339 208 z "},"ģ":{"ha":869,"x_min":-90,"x_max":871,"o":"m 221 -310 q 35 -274 111 -310 q -90 -169 -40 -237 l 79 -25 q 156 -88 108 -62 q 261 -114 203 -114 q 327 -104 294 -114 q 387 -73 360 -94 q 435 -17 414 -51 q 465 67 456 18 l 475 114 q 373 28 435 56 q 244 0 311 0 q 145 22 189 0 q 72 81 101 43 q 26 170 42 118 q 11 283 11 222 q 44 463 11 379 q 135 610 78 547 q 267 708 192 672 q 426 744 343 744 q 549 713 500 744 q 618 622 599 682 l 642 731 l 871 731 l 729 67 q 666 -89 711 -19 q 554 -207 621 -158 q 403 -283 488 -256 q 221 -310 318 -310 m 385 208 q 448 227 418 208 q 511 283 478 246 l 539 414 q 504 493 532 464 q 440 522 476 522 q 384 506 411 522 q 335 461 357 489 q 299 398 313 433 q 286 324 286 363 q 313 240 286 272 q 385 208 339 208 m 615 1035 l 547 950 l 626 950 l 594 803 l 378 803 l 408 950 l 501 1035 l 615 1035 z "},"ġ":{"ha":869,"x_min":-90,"x_max":871,"o":"m 221 -310 q 35 -274 111 -310 q -90 -169 -40 -237 l 79 -25 q 156 -88 108 -62 q 261 -114 203 -114 q 327 -104 294 -114 q 387 -73 360 -94 q 435 -17 414 -51 q 465 67 456 18 l 475 114 q 373 28 435 56 q 244 0 311 0 q 145 22 189 0 q 72 81 101 43 q 26 170 42 118 q 11 283 11 222 q 44 463 11 379 q 135 610 78 547 q 267 708 192 672 q 426 744 343 744 q 549 713 500 744 q 618 622 599 682 l 642 731 l 871 731 l 729 67 q 666 -89 711 -19 q 554 -207 621 -158 q 403 -283 488 -256 q 221 -310 318 -310 m 385 208 q 448 227 418 208 q 511 283 478 246 l 539 414 q 504 493 532 464 q 440 522 476 522 q 384 506 411 522 q 335 461 357 489 q 299 398 313 433 q 286 324 286 363 q 313 240 286 272 q 385 208 339 208 m 378 806 l 422 1014 l 658 1014 l 614 806 l 378 806 z "},"ß":{"ha":758,"x_min":-22,"x_max":738,"o":"m 304 233 q 352 241 329 233 q 393 263 375 249 q 422 299 411 278 q 433 347 433 319 q 426 381 433 367 q 409 403 419 394 q 388 417 399 413 q 369 421 376 421 l 339 421 l 389 657 l 417 657 q 446 665 435 657 q 463 683 457 672 q 472 705 469 693 q 474 725 474 717 q 463 758 474 746 q 435 769 451 769 q 396 748 410 769 q 374 686 382 726 l 228 0 l -22 0 l 133 735 q 181 837 146 790 q 266 918 215 883 q 379 972 317 953 q 510 992 442 992 q 675 942 613 992 q 738 803 738 893 q 725 723 738 761 q 692 652 713 685 q 647 596 672 619 q 599 560 622 572 q 681 484 651 536 q 710 358 710 432 q 666 179 710 250 q 556 67 622 108 q 408 8 489 25 q 253 -8 328 -8 l 304 233 z "},">":{"ha":771,"x_min":115,"x_max":704,"o":"m 704 292 l 115 -56 l 115 239 l 321 360 l 115 492 l 115 772 l 704 414 l 704 292 z "},"«":{"ha":963,"x_min":15,"x_max":946,"o":"m 42 414 l 468 689 l 424 478 l 236 360 l 375 253 l 331 42 l 15 292 l 42 414 m 518 414 l 946 689 l 900 478 l 714 360 l 853 253 l 808 42 l 493 292 l 518 414 z "},"»":{"ha":963,"x_min":-6,"x_max":919,"o":"m 893 292 l 472 42 l 517 253 l 701 360 l 564 478 l 610 689 l 919 414 l 893 292 m 417 292 l -6 42 l 39 253 l 224 360 l 88 478 l 132 689 l 442 414 l 417 292 z "},"‹":{"ha":485,"x_min":15,"x_max":468,"o":"m 42 414 l 468 689 l 424 478 l 236 360 l 375 253 l 331 42 l 15 292 l 42 414 z "},"›":{"ha":485,"x_min":-6,"x_max":442,"o":"m 417 292 l -6 42 l 39 253 l 224 360 l 88 478 l 132 689 l 442 414 l 417 292 z "},"h":{"ha":835,"x_min":-22,"x_max":800,"o":"m 193 1014 l 457 1014 l 374 622 q 488 713 422 682 q 626 744 553 744 q 712 731 678 744 q 765 695 746 718 q 792 643 785 672 q 800 583 800 614 q 797 531 800 557 q 788 481 793 504 l 686 0 l 422 0 l 510 411 q 514 449 514 432 q 498 499 514 483 q 457 514 482 514 q 430 506 446 514 q 396 485 414 499 q 360 453 378 472 q 329 410 343 433 l 242 0 l -22 0 l 193 1014 z "},"ħ":{"ha":835,"x_min":-22,"x_max":800,"o":"m 117 956 l 181 956 l 193 1014 l 457 1014 l 444 956 l 568 956 l 536 804 l 413 804 l 374 622 q 488 713 422 682 q 626 744 553 744 q 712 731 678 744 q 765 695 746 718 q 792 643 785 672 q 800 583 800 614 q 797 531 800 557 q 788 481 793 504 l 686 0 l 422 0 l 510 411 q 514 449 514 432 q 498 499 514 483 q 457 514 482 514 q 430 506 446 514 q 396 485 414 499 q 360 453 378 472 q 329 410 343 433 l 242 0 l -22 0 l 149 804 l 85 804 l 117 956 z "},"ĥ":{"ha":835,"x_min":-22,"x_max":899,"o":"m 444 854 l 615 1013 l 790 1013 l 899 854 l 764 797 l 676 883 l 556 797 l 444 854 m 193 1014 l 457 1014 l 374 622 q 488 713 422 682 q 626 744 553 744 q 712 731 678 744 q 765 695 746 718 q 792 643 785 672 q 800 583 800 614 q 797 531 800 557 q 788 481 793 504 l 686 0 l 422 0 l 510 411 q 514 449 514 432 q 498 499 514 483 q 457 514 482 514 q 430 506 446 514 q 396 485 414 499 q 360 453 378 472 q 329 410 343 433 l 242 0 l -22 0 l 193 1014 z "},"-":{"ha":553,"x_min":36,"x_max":501,"o":"m 36 265 l 86 501 l 501 501 l 451 265 l 36 265 z "},"i":{"ha":397,"x_min":-22,"x_max":457,"o":"m 133 731 l 397 731 l 242 0 l -22 0 l 133 731 m 193 1014 l 457 1014 l 410 792 l 146 792 l 193 1014 z "},"í":{"ha":397,"x_min":-22,"x_max":507,"o":"m 344 800 l 167 817 l 274 1014 l 507 1014 l 344 800 m 133 731 l 397 731 l 242 0 l -22 0 l 133 731 z "},"ĭ":{"ha":397,"x_min":-22,"x_max":529,"o":"m 133 731 l 397 731 l 242 0 l -22 0 l 133 731 m 289 901 q 349 933 319 901 q 393 1014 378 965 l 529 1014 q 494 923 518 964 q 435 852 469 882 q 356 806 400 822 q 265 789 313 789 q 135 835 182 789 q 89 957 89 881 q 96 1014 89 982 l 232 1014 q 228 982 228 997 q 244 924 228 947 q 289 901 261 901 z "},"î":{"ha":397,"x_min":-22,"x_max":546,"o":"m 56 854 l 240 1014 l 429 1014 l 546 854 l 400 796 l 307 883 l 176 796 l 56 854 m 133 731 l 397 731 l 242 0 l -22 0 l 133 731 z "},"ï":{"ha":397,"x_min":-22,"x_max":588,"o":"m 18 806 l 60 1000 l 276 1000 l 235 806 l 18 806 m 331 806 l 372 1000 l 588 1000 l 547 806 l 331 806 m 133 731 l 397 731 l 242 0 l -22 0 l 133 731 z "},"ì":{"ha":397,"x_min":-22,"x_max":397,"o":"m 133 731 l 397 731 l 242 0 l -22 0 l 133 731 m 136 1014 l 369 1014 l 393 817 l 210 797 l 136 1014 z "},"ĳ":{"ha":800,"x_min":-22,"x_max":860,"o":"m 133 731 l 397 731 l 242 0 l -22 0 l 133 731 m 193 1014 l 457 1014 l 410 792 l 146 792 l 193 1014 m 306 -290 q 202 -271 250 -290 q 121 -215 154 -251 l 267 -36 q 319 -64 283 -64 q 379 -4 365 -64 l 535 731 l 800 731 l 649 17 q 601 -108 633 -51 q 524 -205 569 -164 q 423 -268 479 -246 q 306 -290 367 -290 m 596 1014 l 860 1014 l 813 792 l 549 792 l 596 1014 z "},"j":{"ha":403,"x_min":-276,"x_max":463,"o":"m -92 -290 q -195 -271 -147 -290 q -276 -215 -243 -251 l -131 -36 q -78 -64 -114 -64 q -18 -4 -32 -64 l 138 731 l 403 731 l 251 17 q 204 -108 236 -51 q 127 -205 172 -164 q 26 -268 82 -246 q -92 -290 -31 -290 m 199 1014 l 463 1014 l 415 792 l 151 792 l 199 1014 z "},"ī":{"ha":397,"x_min":-22,"x_max":528,"o":"m 133 731 l 397 731 l 242 0 l -22 0 l 133 731 m 83 843 l 117 1000 l 528 1000 l 494 843 l 83 843 z "},"į":{"ha":397,"x_min":-53,"x_max":457,"o":"m 133 731 l 397 731 l 242 0 q 153 -60 183 -31 q 122 -114 122 -89 q 142 -146 122 -133 q 207 -158 163 -158 l 129 -297 q -9 -252 35 -286 q -53 -174 -53 -218 q -15 -85 -53 -131 q 96 0 22 -40 l -22 0 l 133 731 m 193 1014 l 457 1014 l 410 792 l 146 792 l 193 1014 z "},"ĩ":{"ha":397,"x_min":-22,"x_max":613,"o":"m 133 731 l 397 731 l 242 0 l -22 0 l 133 731 m 372 794 q 321 805 342 794 q 283 828 300 815 q 248 851 265 840 q 208 861 231 861 q 172 851 186 861 q 149 829 157 842 q 138 806 140 817 q 135 794 135 796 l -6 794 q 17 849 -1 813 q 65 922 35 886 q 138 986 96 958 q 229 1014 179 1014 q 283 1003 263 1014 q 322 978 304 992 q 355 954 339 965 q 393 943 371 943 q 429 953 414 943 q 454 977 444 964 q 469 1001 464 990 q 474 1014 474 1013 l 613 1014 q 591 966 610 1001 q 541 892 572 931 q 467 824 510 854 q 372 794 424 794 z "},"ĵ":{"ha":397,"x_min":-282,"x_max":533,"o":"m -97 -290 q -201 -271 -153 -290 q -282 -215 -249 -251 l -136 -36 q -83 -64 -119 -64 q -24 -4 -37 -64 l 132 731 l 397 731 l 246 17 q 199 -108 231 -51 q 122 -205 167 -164 q 20 -268 76 -246 q -97 -290 -36 -290 m 43 854 l 228 1014 l 417 1014 l 533 854 l 388 796 l 294 883 l 164 796 l 43 854 z "},"k":{"ha":808,"x_min":-22,"x_max":781,"o":"m 193 1014 l 454 1014 l 356 553 q 621 738 461 738 q 739 693 697 738 q 781 565 781 649 q 733 394 781 472 q 600 263 686 315 l 707 0 l 429 0 l 326 299 q 485 357 426 317 q 544 450 544 397 q 528 495 544 478 q 485 513 511 513 q 437 499 461 513 q 390 461 413 485 q 346 406 367 438 q 310 338 325 374 l 239 0 l -22 0 l 193 1014 z "},"ķ":{"ha":808,"x_min":-22,"x_max":781,"o":"m 201 -296 l 269 -211 l 190 -211 l 222 -64 l 439 -64 l 408 -211 l 315 -296 l 201 -296 m 193 1014 l 454 1014 l 356 553 q 621 738 461 738 q 739 693 697 738 q 781 565 781 649 q 733 394 781 472 q 600 263 686 315 l 707 0 l 429 0 l 326 299 q 485 357 426 317 q 544 450 544 397 q 528 495 544 478 q 485 513 511 513 q 437 499 461 513 q 390 461 413 485 q 346 406 367 438 q 310 338 325 374 l 239 0 l -22 0 l 193 1014 z "},"ĸ":{"ha":783,"x_min":-22,"x_max":842,"o":"m 133 731 l 397 731 l 339 460 l 565 731 l 842 731 l 539 411 l 713 0 l 433 0 l 340 267 l 286 208 l 242 0 l -22 0 l 133 731 z "},"l":{"ha":479,"x_min":7,"x_max":451,"o":"m 183 -14 q 51 24 96 -14 q 7 135 7 63 q 8 165 7 150 q 14 197 10 181 l 188 1014 l 451 1014 l 297 290 q 293 260 293 274 q 343 207 293 207 q 378 213 358 207 q 415 228 397 218 l 407 33 q 296 -1 357 11 q 183 -14 235 -14 z "},"ĺ":{"ha":479,"x_min":7,"x_max":544,"o":"m 382 1024 l 204 1040 l 311 1238 l 544 1238 l 382 1024 m 183 -14 q 51 24 96 -14 q 7 135 7 63 q 8 165 7 150 q 14 197 10 181 l 188 1014 l 451 1014 l 297 290 q 293 260 293 274 q 343 207 293 207 q 378 213 358 207 q 415 228 397 218 l 407 33 q 296 -1 357 11 q 183 -14 235 -14 z "},"ľ":{"ha":479,"x_min":7,"x_max":792,"o":"m 451 817 l 558 1014 l 792 1014 l 608 772 l 451 817 m 183 -14 q 51 24 96 -14 q 7 135 7 63 q 8 165 7 150 q 14 197 10 181 l 188 1014 l 451 1014 l 297 290 q 293 260 293 274 q 343 207 293 207 q 378 213 358 207 q 415 228 397 218 l 407 33 q 296 -1 357 11 q 183 -14 235 -14 z "},"ļ":{"ha":479,"x_min":7,"x_max":451,"o":"m 21 -296 l 89 -211 l 10 -211 l 42 -64 l 258 -64 l 228 -211 l 135 -296 l 21 -296 m 183 -14 q 51 24 96 -14 q 7 135 7 63 q 8 165 7 150 q 14 197 10 181 l 188 1014 l 451 1014 l 297 290 q 293 260 293 274 q 343 207 293 207 q 378 213 358 207 q 415 228 397 218 l 407 33 q 296 -1 357 11 q 183 -14 235 -14 z "},"ŀ":{"ha":660,"x_min":7,"x_max":682,"o":"m 183 -14 q 51 24 96 -14 q 7 135 7 63 q 8 165 7 150 q 14 197 10 181 l 188 1014 l 451 1014 l 297 290 q 293 260 293 274 q 343 207 293 207 q 378 213 358 207 q 415 228 397 218 l 407 33 q 296 -1 357 11 q 183 -14 235 -14 m 414 364 l 468 619 l 682 619 l 628 364 l 414 364 z "},"<":{"ha":769,"x_min":39,"x_max":628,"o":"m 39 414 l 628 772 l 628 492 l 422 360 l 628 239 l 628 -56 l 39 292 l 39 414 z "},"¬":{"ha":854,"x_min":53,"x_max":811,"o":"m 811 599 l 710 124 l 488 124 l 539 363 l 53 363 l 103 599 l 811 599 z "},"ł":{"ha":547,"x_min":6,"x_max":568,"o":"m 6 490 l 157 558 l 254 1014 l 518 1014 l 449 692 l 539 732 l 568 592 l 413 521 l 364 290 q 360 260 360 274 q 410 207 360 207 q 444 213 425 207 q 482 228 464 218 l 474 33 q 362 -1 422 11 q 250 -14 301 -14 q 118 24 163 -14 q 74 135 74 63 q 75 165 74 150 q 81 197 76 181 l 121 389 l 35 350 l 6 490 z "},"m":{"ha":1254,"x_min":-22,"x_max":1219,"o":"m 133 731 l 371 731 l 347 622 q 469 713 396 682 q 621 744 542 744 q 697 734 667 744 q 747 706 728 724 q 774 666 765 689 q 786 618 783 643 q 906 711 835 678 q 1056 744 978 744 q 1137 731 1106 744 q 1187 694 1168 717 q 1213 643 1206 672 q 1219 583 1219 614 q 1217 546 1219 571 q 1207 481 1215 521 l 1104 0 l 840 0 l 928 411 q 932 451 932 433 q 919 499 932 483 q 888 514 906 514 q 856 506 874 514 q 822 483 839 497 q 788 451 804 469 q 760 410 772 432 l 674 0 l 410 0 l 497 411 q 501 451 501 433 q 488 499 501 483 q 456 514 475 514 q 424 506 442 514 q 390 483 407 497 q 356 450 372 469 q 329 410 340 431 l 242 0 l -22 0 l 133 731 z "},"−":{"ha":761,"x_min":113,"x_max":674,"o":"m 113 389 l 113 597 l 674 597 l 674 389 l 113 389 z "},"µ":{"ha":928,"x_min":-68,"x_max":857,"o":"m 150 731 l 414 731 l 325 310 q 321 289 322 299 q 319 271 319 279 q 378 208 319 208 q 428 222 397 208 q 499 283 458 236 l 593 731 l 857 731 l 764 292 q 760 263 760 275 q 813 222 760 224 l 765 0 q 692 -10 724 -7 q 638 -14 661 -14 q 504 88 504 -14 l 504 114 q 476 77 496 99 q 428 35 456 56 q 372 1 401 15 q 314 -14 342 -14 q 250 36 250 -14 l 196 -296 l -68 -296 l 150 731 z "},"×":{"ha":703,"x_min":56,"x_max":625,"o":"m 625 265 l 460 101 l 339 222 l 218 101 l 56 265 l 175 385 l 64 497 l 229 661 l 340 550 l 451 661 l 614 497 l 503 386 l 625 265 z "},"n":{"ha":835,"x_min":-22,"x_max":799,"o":"m 133 731 l 371 731 l 347 622 q 469 713 396 682 q 632 744 542 744 q 715 731 682 744 q 766 693 747 717 q 792 640 785 669 q 799 579 799 610 q 795 528 799 553 q 788 481 792 503 l 686 0 l 422 0 l 510 411 q 514 447 514 432 q 498 498 514 482 q 460 514 482 514 q 394 485 432 514 q 329 410 356 456 l 242 0 l -22 0 l 133 731 z "},"ń":{"ha":835,"x_min":-22,"x_max":799,"o":"m 536 800 l 358 817 l 465 1014 l 699 1014 l 536 800 m 133 731 l 371 731 l 347 622 q 469 713 396 682 q 632 744 542 744 q 715 731 682 744 q 766 693 747 717 q 792 640 785 669 q 799 579 799 610 q 795 528 799 553 q 788 481 792 503 l 686 0 l 422 0 l 510 411 q 514 447 514 432 q 498 498 514 482 q 460 514 482 514 q 394 485 432 514 q 329 410 356 456 l 242 0 l -22 0 l 133 731 z "},"ŉ":{"ha":835,"x_min":-140,"x_max":799,"o":"m -140 817 l -75 938 l -75 1014 l 200 1014 l 17 772 l -140 817 m 133 731 l 371 731 l 347 622 q 469 713 396 682 q 632 744 542 744 q 715 731 682 744 q 766 693 747 717 q 792 640 785 669 q 799 579 799 610 q 795 528 799 553 q 788 481 792 503 l 686 0 l 422 0 l 510 411 q 514 447 514 432 q 498 498 514 482 q 460 514 482 514 q 394 485 432 514 q 329 410 356 456 l 242 0 l -22 0 l 133 731 z "},"ň":{"ha":835,"x_min":-22,"x_max":799,"o":"m 275 956 l 421 1014 l 514 926 l 644 1014 l 765 956 l 581 796 l 392 796 l 275 956 m 133 731 l 371 731 l 347 622 q 469 713 396 682 q 632 744 542 744 q 715 731 682 744 q 766 693 747 717 q 792 640 785 669 q 799 579 799 610 q 795 528 799 553 q 788 481 792 503 l 686 0 l 422 0 l 510 411 q 514 447 514 432 q 498 498 514 482 q 460 514 482 514 q 394 485 432 514 q 329 410 356 456 l 242 0 l -22 0 l 133 731 z "},"ņ":{"ha":835,"x_min":-22,"x_max":799,"o":"m 193 -296 l 261 -211 l 182 -211 l 214 -64 l 431 -64 l 400 -211 l 307 -296 l 193 -296 m 133 731 l 371 731 l 347 622 q 469 713 396 682 q 632 744 542 744 q 715 731 682 744 q 766 693 747 717 q 792 640 785 669 q 799 579 799 610 q 795 528 799 553 q 788 481 792 503 l 686 0 l 422 0 l 510 411 q 514 447 514 432 q 498 498 514 482 q 460 514 482 514 q 394 485 432 514 q 329 410 356 456 l 242 0 l -22 0 l 133 731 z "},"ṅ":{"ha":835,"x_min":-22,"x_max":799,"o":"m 375 806 l 419 1014 l 656 1014 l 611 806 l 375 806 m 133 731 l 371 731 l 347 622 q 469 713 396 682 q 632 744 542 744 q 715 731 682 744 q 766 693 747 717 q 792 640 785 669 q 799 579 799 610 q 795 528 799 553 q 788 481 792 503 l 686 0 l 422 0 l 510 411 q 514 447 514 432 q 498 498 514 482 q 460 514 482 514 q 394 485 432 514 q 329 410 356 456 l 242 0 l -22 0 l 133 731 z "},"₉":{"ha":597,"x_min":-39,"x_max":515,"o":"m 1 244 q 26 340 1 294 q 94 419 51 385 q 193 472 138 453 q 311 492 249 492 q 463 433 411 492 q 515 268 515 374 q 490 107 515 181 q 417 -20 464 33 q 303 -103 369 -74 q 158 -133 238 -133 q 44 -112 96 -133 q -39 -51 -7 -92 l 69 56 q 122 22 89 33 q 194 10 154 10 q 295 34 254 10 q 347 103 336 58 q 285 81 324 88 q 214 75 246 75 q 58 123 115 75 q 1 244 1 171 m 279 353 q 231 346 254 353 q 189 327 207 339 q 160 301 171 315 q 149 269 149 286 q 177 224 149 242 q 249 207 206 207 q 297 213 274 207 q 339 230 321 219 q 368 254 357 240 q 379 285 379 268 q 351 333 379 313 q 279 353 324 353 z "},"⁹":{"ha":599,"x_min":99,"x_max":653,"o":"m 139 892 q 164 987 139 942 q 232 1066 189 1032 q 331 1119 275 1100 q 449 1139 386 1139 q 600 1080 547 1139 q 653 915 653 1021 q 627 754 653 828 q 554 627 601 681 q 441 544 507 574 q 296 514 375 514 q 182 535 233 514 q 99 596 131 556 l 207 703 q 259 669 226 681 q 332 657 292 657 q 433 681 392 657 q 485 750 474 706 q 422 728 461 735 q 351 722 383 722 q 196 770 253 722 q 139 892 139 818 m 417 1000 q 368 993 392 1000 q 326 974 344 986 q 297 948 308 963 q 286 917 286 933 q 315 872 286 889 q 386 854 343 854 q 435 860 411 854 q 476 877 458 867 q 506 901 494 888 q 517 932 517 915 q 488 980 517 960 q 417 1000 460 1000 z "},"ñ":{"ha":835,"x_min":-22,"x_max":838,"o":"m 133 731 l 371 731 l 347 622 q 469 713 396 682 q 632 744 542 744 q 715 731 682 744 q 766 693 747 717 q 792 640 785 669 q 799 579 799 610 q 795 528 799 553 q 788 481 792 503 l 686 0 l 422 0 l 510 411 q 514 447 514 432 q 498 498 514 482 q 460 514 482 514 q 394 485 432 514 q 329 410 356 456 l 242 0 l -22 0 l 133 731 m 597 794 q 546 805 567 794 q 508 828 525 815 q 473 851 490 840 q 433 861 456 861 q 397 851 411 861 q 374 829 382 842 q 363 806 365 817 q 360 794 360 796 l 219 794 q 242 849 224 813 q 290 922 260 886 q 363 986 321 958 q 454 1014 404 1014 q 508 1003 488 1014 q 547 978 529 992 q 580 954 564 965 q 618 943 596 943 q 654 953 639 943 q 679 977 669 964 q 694 1001 689 990 q 699 1014 699 1013 l 838 1014 q 816 966 835 1001 q 766 892 797 931 q 692 824 735 854 q 597 794 649 794 z "},"#":{"ha":1010,"x_min":10,"x_max":1028,"o":"m 989 551 l 776 551 l 728 431 l 896 431 l 854 236 l 639 236 l 535 0 l 326 0 l 431 236 l 365 236 l 263 0 l 53 0 l 157 236 l 10 236 l 51 431 l 246 431 l 294 551 l 144 551 l 183 732 l 378 732 l 490 986 l 700 986 l 586 732 l 651 732 l 764 986 l 974 986 l 858 732 l 1028 732 l 989 551 m 519 431 l 568 551 l 503 551 l 454 431 l 519 431 z "},"o":{"ha":828,"x_min":10,"x_max":796,"o":"m 322 -14 q 184 10 243 -14 q 86 76 125 35 q 28 174 47 118 q 10 290 10 229 q 42 457 10 375 q 136 603 75 539 q 285 706 197 667 q 483 744 372 744 q 622 720 563 744 q 719 654 681 696 q 777 558 758 613 q 796 440 796 503 q 763 274 796 356 q 669 128 731 192 q 519 25 607 64 q 322 -14 432 -14 m 369 208 q 428 224 400 208 q 476 265 456 239 q 509 328 497 292 q 521 408 521 365 q 499 492 521 461 q 436 522 476 522 q 378 507 406 522 q 329 465 350 492 q 297 402 308 439 q 285 322 285 365 q 307 239 285 269 q 369 208 329 208 z "},"ó":{"ha":828,"x_min":10,"x_max":796,"o":"m 575 800 l 397 817 l 504 1014 l 738 1014 l 575 800 m 322 -14 q 184 10 243 -14 q 86 76 125 35 q 28 174 47 118 q 10 290 10 229 q 42 457 10 375 q 136 603 75 539 q 285 706 197 667 q 483 744 372 744 q 622 720 563 744 q 719 654 681 696 q 777 558 758 613 q 796 440 796 503 q 763 274 796 356 q 669 128 731 192 q 519 25 607 64 q 322 -14 432 -14 m 369 208 q 428 224 400 208 q 476 265 456 239 q 509 328 497 292 q 521 408 521 365 q 499 492 521 461 q 436 522 476 522 q 378 507 406 522 q 329 465 350 492 q 297 402 308 439 q 285 322 285 365 q 307 239 285 269 q 369 208 329 208 z "},"ŏ":{"ha":828,"x_min":10,"x_max":796,"o":"m 322 -14 q 184 10 243 -14 q 86 76 125 35 q 28 174 47 118 q 10 290 10 229 q 42 457 10 375 q 136 603 75 539 q 285 706 197 667 q 483 744 372 744 q 622 720 563 744 q 719 654 681 696 q 777 558 758 613 q 796 440 796 503 q 763 274 796 356 q 669 128 731 192 q 519 25 607 64 q 322 -14 432 -14 m 369 208 q 428 224 400 208 q 476 265 456 239 q 509 328 497 292 q 521 408 521 365 q 499 492 521 461 q 436 522 476 522 q 378 507 406 522 q 329 465 350 492 q 297 402 308 439 q 285 322 285 365 q 307 239 285 269 q 369 208 329 208 m 517 901 q 576 933 547 901 q 621 1014 606 965 l 757 1014 q 722 923 746 964 q 663 852 697 882 q 584 806 628 822 q 493 789 540 789 q 363 835 410 789 q 317 957 317 881 q 324 1014 317 982 l 460 1014 q 456 982 456 997 q 472 924 456 947 q 517 901 489 901 z "},"ô":{"ha":828,"x_min":10,"x_max":796,"o":"m 278 854 l 463 1014 l 651 1014 l 768 854 l 622 796 l 529 883 l 399 796 l 278 854 m 322 -14 q 184 10 243 -14 q 86 76 125 35 q 28 174 47 118 q 10 290 10 229 q 42 457 10 375 q 136 603 75 539 q 285 706 197 667 q 483 744 372 744 q 622 720 563 744 q 719 654 681 696 q 777 558 758 613 q 796 440 796 503 q 763 274 796 356 q 669 128 731 192 q 519 25 607 64 q 322 -14 432 -14 m 369 208 q 428 224 400 208 q 476 265 456 239 q 509 328 497 292 q 521 408 521 365 q 499 492 521 461 q 436 522 476 522 q 378 507 406 522 q 329 465 350 492 q 297 402 308 439 q 285 322 285 365 q 307 239 285 269 q 369 208 329 208 z "},"ö":{"ha":828,"x_min":10,"x_max":811,"o":"m 242 806 l 283 1000 l 500 1000 l 458 806 l 242 806 m 554 806 l 596 1000 l 811 1000 l 771 806 l 554 806 m 322 -14 q 184 10 243 -14 q 86 76 125 35 q 28 174 47 118 q 10 290 10 229 q 42 457 10 375 q 136 603 75 539 q 285 706 197 667 q 483 744 372 744 q 622 720 563 744 q 719 654 681 696 q 777 558 758 613 q 796 440 796 503 q 763 274 796 356 q 669 128 731 192 q 519 25 607 64 q 322 -14 432 -14 m 369 208 q 428 224 400 208 q 476 265 456 239 q 509 328 497 292 q 521 408 521 365 q 499 492 521 461 q 436 522 476 522 q 378 507 406 522 q 329 465 350 492 q 297 402 308 439 q 285 322 285 365 q 307 239 285 269 q 369 208 329 208 z "},"œ":{"ha":1315,"x_min":10,"x_max":1293,"o":"m 319 -14 q 190 8 247 -14 q 93 71 133 31 q 31 167 53 111 q 10 290 10 224 q 47 469 10 386 q 148 614 85 553 q 297 710 211 675 q 478 744 382 744 q 610 716 556 744 q 706 625 664 688 q 847 717 782 689 q 986 744 913 744 q 1114 722 1057 744 q 1210 659 1171 700 q 1272 563 1250 618 q 1293 440 1293 507 q 1281 350 1293 388 q 1258 285 1269 313 l 781 285 q 778 273 779 278 q 778 263 778 268 q 803 195 778 221 q 869 169 828 169 q 949 192 910 169 q 1007 249 988 214 l 1211 185 q 1042 39 1144 92 q 822 -14 939 -14 q 760 -8 789 -14 q 705 10 732 -3 q 651 45 678 24 q 593 97 624 67 q 513 44 549 65 q 446 10 478 24 q 383 -8 414 -3 q 319 -14 353 -14 m 369 208 q 429 224 401 208 q 477 267 457 240 q 509 331 497 294 q 521 410 521 368 q 499 492 521 461 q 436 522 476 522 q 376 506 404 522 q 328 463 349 490 q 297 399 308 436 q 285 321 285 363 q 307 239 285 269 q 369 208 329 208 m 1021 443 q 1022 453 1021 449 q 1022 461 1022 457 q 1000 531 1022 506 q 938 557 978 557 q 857 526 893 557 q 806 443 821 496 l 1021 443 z "},"ò":{"ha":828,"x_min":10,"x_max":796,"o":"m 322 -14 q 184 10 243 -14 q 86 76 125 35 q 28 174 47 118 q 10 290 10 229 q 42 457 10 375 q 136 603 75 539 q 285 706 197 667 q 483 744 372 744 q 622 720 563 744 q 719 654 681 696 q 777 558 758 613 q 796 440 796 503 q 763 274 796 356 q 669 128 731 192 q 519 25 607 64 q 322 -14 432 -14 m 369 208 q 428 224 400 208 q 476 265 456 239 q 509 328 497 292 q 521 408 521 365 q 499 492 521 461 q 436 522 476 522 q 378 507 406 522 q 329 465 350 492 q 297 402 308 439 q 285 322 285 365 q 307 239 285 269 q 369 208 329 208 m 375 1014 l 608 1014 l 632 817 l 449 797 l 375 1014 z "},"ő":{"ha":828,"x_min":10,"x_max":832,"o":"m 428 804 l 290 817 l 383 1014 l 575 1014 l 428 804 m 685 804 l 549 817 l 640 1014 l 832 1014 l 685 804 m 322 -14 q 184 10 243 -14 q 86 76 125 35 q 28 174 47 118 q 10 290 10 229 q 42 457 10 375 q 136 603 75 539 q 285 706 197 667 q 483 744 372 744 q 622 720 563 744 q 719 654 681 696 q 777 558 758 613 q 796 440 796 503 q 763 274 796 356 q 669 128 731 192 q 519 25 607 64 q 322 -14 432 -14 m 369 208 q 428 224 400 208 q 476 265 456 239 q 509 328 497 292 q 521 408 521 365 q 499 492 521 461 q 436 522 476 522 q 378 507 406 522 q 329 465 350 492 q 297 402 308 439 q 285 322 285 365 q 307 239 285 269 q 369 208 329 208 z "},"ō":{"ha":828,"x_min":10,"x_max":796,"o":"m 308 843 l 342 1000 l 753 1000 l 719 843 l 308 843 m 322 -14 q 184 10 243 -14 q 86 76 125 35 q 28 174 47 118 q 10 290 10 229 q 42 457 10 375 q 136 603 75 539 q 285 706 197 667 q 483 744 372 744 q 622 720 563 744 q 719 654 681 696 q 777 558 758 613 q 796 440 796 503 q 763 274 796 356 q 669 128 731 192 q 519 25 607 64 q 322 -14 432 -14 m 369 208 q 428 224 400 208 q 476 265 456 239 q 509 328 497 292 q 521 408 521 365 q 499 492 521 461 q 436 522 476 522 q 378 507 406 522 q 329 465 350 492 q 297 402 308 439 q 285 322 285 365 q 307 239 285 269 q 369 208 329 208 z "},"⅛":{"ha":1235,"x_min":74,"x_max":1174,"o":"m 840 -8 q 753 4 793 -8 q 683 40 713 17 q 636 93 653 63 q 619 161 619 124 q 630 219 619 194 q 659 264 640 244 q 703 298 678 283 q 756 326 728 313 q 713 361 731 339 q 696 418 696 383 q 722 495 696 460 q 788 556 747 531 q 876 597 828 582 q 969 611 924 611 q 1044 600 1007 611 q 1110 569 1081 589 q 1156 521 1139 549 q 1174 460 1174 493 q 1142 378 1174 411 q 1065 326 1110 346 q 1119 278 1099 307 q 1140 210 1140 250 q 1115 124 1140 164 q 1047 55 1089 85 q 951 8 1006 25 q 840 -8 897 -8 m 872 143 q 915 148 894 143 q 953 161 936 153 q 979 181 969 169 q 989 207 989 193 q 961 244 989 231 q 894 258 933 258 q 813 241 847 258 q 778 196 778 224 q 806 158 778 172 q 872 143 835 143 m 921 382 q 954 385 938 382 q 985 394 971 388 q 1008 408 999 400 q 1017 428 1017 417 q 994 455 1017 444 q 939 465 971 465 q 874 453 903 465 q 844 419 844 440 q 869 392 844 401 q 921 382 893 382 m 444 549 l 413 400 l 74 400 l 106 549 l 206 549 l 271 856 q 244 833 261 846 q 207 809 226 821 q 167 790 188 797 q 132 782 147 782 l 164 933 q 209 946 185 933 q 254 974 233 958 q 290 1001 275 989 q 304 1015 304 1014 l 457 1015 l 357 549 l 444 549 m 126 90 l 594 533 l 1022 1001 l 1115 897 l 667 468 l 219 -14 l 126 90 z "},"¹":{"ha":433,"x_min":86,"x_max":469,"o":"m 457 674 l 425 525 l 86 525 l 118 674 l 218 674 l 283 981 q 256 958 274 971 q 219 934 239 946 q 180 915 200 922 q 144 907 160 907 l 176 1058 q 222 1071 197 1058 q 267 1099 246 1083 q 302 1126 288 1114 q 317 1140 317 1139 l 469 1140 l 369 674 l 457 674 z "},"½":{"ha":1243,"x_min":71,"x_max":1194,"o":"m 604 0 q 633 103 617 60 q 675 181 649 147 q 740 242 701 215 q 836 292 779 268 q 906 320 872 307 q 967 349 940 333 q 1009 384 993 365 q 1025 428 1025 403 q 1003 462 1025 453 q 946 471 982 471 q 856 452 899 471 q 782 410 813 433 l 713 521 q 825 590 750 561 q 999 618 900 618 q 1144 578 1093 618 q 1194 460 1194 539 q 1174 360 1194 401 q 1122 290 1153 318 q 1056 246 1092 263 q 992 221 1021 229 q 915 192 947 207 q 876 149 883 176 l 1135 149 l 1104 0 l 604 0 m 442 549 l 410 400 l 71 400 l 103 549 l 203 549 l 268 856 q 241 833 258 846 q 204 809 224 821 q 165 790 185 797 q 129 782 144 782 l 161 933 q 206 946 182 933 q 251 974 231 958 q 287 1001 272 989 q 301 1015 301 1014 l 454 1015 l 354 549 l 442 549 m 107 90 l 575 533 l 1003 1001 l 1096 897 l 647 468 l 200 -14 l 107 90 z "},"₂":{"ha":603,"x_min":-79,"x_max":532,"o":"m -79 -125 q -50 -22 -67 -65 q -6 56 -33 22 q 61 117 21 90 q 161 167 101 143 q 233 195 199 182 q 296 224 268 208 q 340 259 324 240 q 357 303 357 278 q 334 337 357 328 q 275 346 311 346 q 181 327 226 346 q 104 285 136 308 l 33 396 q 150 465 72 436 q 329 493 228 493 q 480 453 428 493 q 532 335 532 414 q 510 235 532 276 q 458 165 489 193 q 390 121 426 138 q 322 96 353 104 q 242 67 275 82 q 203 24 210 51 l 471 24 l 439 -125 l -79 -125 z "},"₁":{"ha":499,"x_min":-53,"x_max":393,"o":"m 393 24 l 363 -125 l -53 -125 l -21 24 l 117 24 l 182 331 q 149 308 171 321 q 103 284 128 296 q 51 265 78 272 q 6 257 25 257 l 38 408 q 94 421 64 408 q 152 449 125 433 q 197 476 179 464 q 215 490 215 489 l 368 490 l 268 24 l 393 24 z "},"¼":{"ha":1194,"x_min":71,"x_max":1144,"o":"m 847 117 l 565 117 l 597 265 l 1000 613 l 1103 613 l 1029 265 l 1114 265 l 1082 117 l 997 117 l 972 1 l 824 1 l 847 117 m 885 265 l 921 433 l 736 265 l 885 265 m 442 549 l 410 400 l 71 400 l 103 549 l 203 549 l 268 856 q 241 833 258 846 q 204 809 224 821 q 165 790 185 797 q 129 782 144 782 l 161 933 q 206 946 182 933 q 251 974 231 958 q 287 1001 272 989 q 301 1015 301 1014 l 454 1015 l 354 549 l 442 549 m 156 90 l 624 533 l 1051 1001 l 1144 897 l 696 468 l 249 -14 l 156 90 z "},"⅓":{"ha":1222,"x_min":64,"x_max":1171,"o":"m 817 -8 q 679 15 733 -8 q 610 90 625 39 l 713 207 q 722 194 714 204 q 745 174 729 185 q 785 153 761 163 q 846 144 810 144 q 934 156 896 144 q 972 199 972 168 q 924 239 972 228 q 789 250 876 250 l 756 250 l 785 388 l 817 388 q 951 401 897 388 q 1006 447 1006 414 q 997 463 1006 457 q 977 473 989 469 q 952 478 965 476 q 929 479 939 479 q 842 463 878 479 q 771 418 806 446 l 703 542 q 817 600 747 581 q 957 619 888 619 q 1112 578 1053 619 q 1171 474 1171 536 q 1126 377 1171 415 q 1011 328 1082 339 q 1095 283 1067 319 q 1124 197 1124 246 q 1096 103 1124 142 q 1024 39 1068 64 q 926 3 981 14 q 817 -8 871 -8 m 403 549 l 371 400 l 74 400 l 106 549 l 179 549 l 244 856 q 217 833 235 846 q 181 809 200 821 q 141 790 161 797 q 106 782 121 782 l 138 933 q 183 946 158 933 q 228 974 207 958 q 263 1001 249 989 q 278 1015 278 1014 l 431 1015 l 331 549 l 403 549 m 64 90 l 532 533 l 960 1001 l 1053 897 l 604 468 l 157 -14 l 64 90 z "},"₃":{"ha":564,"x_min":-67,"x_max":494,"o":"m 140 -133 q 3 -110 57 -133 q -67 -35 -51 -86 l 36 82 q 45 69 38 79 q 69 49 53 60 q 109 28 85 38 q 169 19 133 19 q 258 31 219 19 q 296 74 296 43 q 248 114 296 103 q 113 125 200 125 l 79 125 l 108 263 l 140 263 q 275 276 221 263 q 329 322 329 289 q 321 338 329 332 q 301 348 313 344 q 276 353 289 351 q 253 354 263 354 q 165 338 201 354 q 94 293 129 321 l 26 417 q 141 475 71 456 q 281 494 211 494 q 435 453 376 494 q 494 349 494 411 q 450 252 494 290 q 335 203 406 214 q 419 158 390 194 q 447 72 447 121 q 419 -22 447 17 q 348 -86 392 -61 q 249 -122 304 -111 q 140 -133 194 -133 z "},"ǫ":{"ha":826,"x_min":10,"x_max":796,"o":"m 304 -304 q 166 -259 210 -293 q 122 -181 122 -225 q 158 -94 122 -139 q 265 -10 194 -50 q 152 26 200 -1 q 72 93 104 53 q 25 184 40 133 q 10 290 10 235 q 42 457 10 375 q 136 603 75 539 q 285 706 197 667 q 483 744 372 744 q 622 720 563 744 q 719 654 681 696 q 777 558 758 613 q 796 440 796 503 q 769 292 796 365 q 694 158 743 218 q 575 53 646 97 q 415 -6 504 10 q 328 -67 360 -37 q 297 -121 297 -96 q 317 -153 297 -140 q 382 -165 338 -165 l 304 -304 m 369 208 q 428 224 400 208 q 476 265 456 239 q 509 328 497 292 q 521 408 521 365 q 499 492 521 461 q 436 522 476 522 q 378 507 406 522 q 329 465 350 492 q 297 402 308 439 q 285 322 285 365 q 307 239 285 269 q 369 208 329 208 z "},"ª":{"ha":603,"x_min":85,"x_max":594,"o":"m 215 463 q 120 499 156 463 q 85 594 85 536 q 103 676 85 639 q 155 742 122 714 q 231 785 188 769 q 324 801 274 801 q 407 782 376 801 l 410 797 q 412 810 411 804 q 413 822 413 817 q 399 858 413 846 q 353 869 385 869 q 277 856 313 869 q 200 814 242 842 l 172 928 q 396 993 276 993 q 541 954 492 993 q 590 838 590 915 q 588 807 590 822 q 583 775 586 792 l 563 676 q 560 665 561 669 q 560 657 560 661 q 594 628 560 629 l 561 472 q 515 465 538 467 q 476 463 492 463 q 407 480 428 463 q 386 533 386 497 l 386 553 q 303 485 346 508 q 215 463 260 463 m 297 594 q 320 599 307 594 q 345 612 333 604 q 366 629 357 619 q 378 650 375 639 l 386 688 q 360 698 375 694 q 335 701 346 701 q 283 681 306 701 q 260 633 260 661 q 270 606 260 617 q 297 594 281 594 z "},"º":{"ha":589,"x_min":99,"x_max":619,"o":"m 303 463 q 212 479 250 463 q 149 524 174 496 q 111 591 124 553 q 99 672 99 629 q 120 790 99 732 q 183 893 142 849 q 283 965 224 938 q 415 993 342 993 q 506 976 468 993 q 569 931 544 960 q 607 865 594 903 q 619 785 619 828 q 598 666 619 724 q 535 563 576 608 q 436 490 494 518 q 303 463 378 463 m 336 618 q 405 659 376 618 q 433 761 433 700 q 420 817 433 797 q 382 838 407 838 q 313 797 342 838 q 285 694 285 756 q 299 638 285 658 q 336 618 313 618 z "},"ø":{"ha":828,"x_min":-72,"x_max":867,"o":"m 58 111 q 22 195 33 150 q 10 290 10 240 q 42 457 10 375 q 137 603 75 539 q 286 706 199 667 q 483 744 374 744 q 591 731 543 744 q 675 692 639 717 l 726 739 l 867 739 l 742 625 q 796 440 796 547 q 763 274 796 356 q 669 128 731 192 q 519 25 607 64 q 322 -14 432 -14 q 122 44 197 -14 l 65 -8 l -72 -8 l 58 111 m 369 208 q 428 224 400 208 q 476 265 456 239 q 510 328 497 292 q 522 408 522 365 q 522 417 522 413 q 521 426 522 422 l 314 229 q 369 208 335 208 m 285 315 l 485 506 q 436 522 464 522 q 378 507 406 522 q 329 465 350 492 q 297 402 308 439 q 285 322 285 365 l 285 315 z "},"ǿ":{"ha":828,"x_min":-72,"x_max":867,"o":"m 58 111 q 22 195 33 150 q 10 290 10 240 q 42 457 10 375 q 137 603 75 539 q 286 706 199 667 q 483 744 374 744 q 591 731 543 744 q 675 692 639 717 l 726 739 l 867 739 l 742 625 q 796 440 796 547 q 763 274 796 356 q 669 128 731 192 q 519 25 607 64 q 322 -14 432 -14 q 122 44 197 -14 l 65 -8 l -72 -8 l 58 111 m 369 208 q 428 224 400 208 q 476 265 456 239 q 510 328 497 292 q 522 408 522 365 q 522 417 522 413 q 521 426 522 422 l 314 229 q 369 208 335 208 m 285 315 l 485 506 q 436 522 464 522 q 378 507 406 522 q 329 465 350 492 q 297 402 308 439 q 285 322 285 365 l 285 315 m 571 800 l 393 817 l 500 1014 l 733 1014 l 571 800 z "},"õ":{"ha":828,"x_min":10,"x_max":832,"o":"m 322 -14 q 184 10 243 -14 q 86 76 125 35 q 28 174 47 118 q 10 290 10 229 q 42 457 10 375 q 136 603 75 539 q 285 706 197 667 q 483 744 372 744 q 622 720 563 744 q 719 654 681 696 q 777 558 758 613 q 796 440 796 503 q 763 274 796 356 q 669 128 731 192 q 519 25 607 64 q 322 -14 432 -14 m 369 208 q 428 224 400 208 q 476 265 456 239 q 509 328 497 292 q 521 408 521 365 q 499 492 521 461 q 436 522 476 522 q 378 507 406 522 q 329 465 350 492 q 297 402 308 439 q 285 322 285 365 q 307 239 285 269 q 369 208 329 208 m 592 794 q 540 805 561 794 q 502 828 519 815 q 467 851 485 840 q 428 861 450 861 q 391 851 406 861 q 368 829 376 842 q 357 806 360 817 q 354 794 354 796 l 214 794 q 236 849 218 813 q 285 922 254 886 q 357 986 315 958 q 449 1014 399 1014 q 503 1003 482 1014 q 541 978 524 992 q 574 954 558 965 q 613 943 590 943 q 649 953 633 943 q 674 977 664 964 q 688 1001 683 990 q 693 1014 693 1013 l 832 1014 q 810 966 829 1001 q 760 892 792 931 q 686 824 729 854 q 592 794 643 794 z "},"p":{"ha":869,"x_min":-86,"x_max":838,"o":"m 132 731 l 361 731 l 338 621 q 447 713 386 681 q 586 744 507 744 q 691 722 644 744 q 770 661 738 700 q 820 568 803 622 q 838 450 838 514 q 806 272 838 356 q 719 124 774 188 q 595 24 665 61 q 450 -14 525 -14 q 327 17 375 -14 q 264 108 279 49 l 178 -296 l -86 -296 l 132 731 m 406 208 q 463 225 435 208 q 513 269 490 242 q 548 332 535 296 q 561 407 561 368 q 535 491 561 460 q 461 522 510 522 q 399 503 429 522 q 336 447 369 485 l 308 321 q 342 240 315 272 q 406 208 369 208 z "},"¶":{"ha":949,"x_min":83,"x_max":1008,"o":"m 83 524 q 115 715 83 629 q 208 860 147 800 q 354 953 268 921 q 547 986 440 986 l 1008 986 l 967 792 l 874 792 l 682 -111 l 460 -111 l 539 261 l 503 261 l 424 -111 l 201 -111 l 281 261 q 198 281 235 261 q 135 334 161 300 q 97 417 110 368 q 83 524 83 465 m 303 538 q 308 482 303 506 q 322 456 313 458 l 394 792 q 365 765 381 788 q 335 706 349 742 q 312 626 321 671 q 303 538 303 582 m 653 792 l 615 792 l 544 456 l 581 456 l 653 792 z "},"(":{"ha":467,"x_min":36,"x_max":567,"o":"m 36 369 q 63 546 36 460 q 137 717 90 632 q 247 890 183 803 q 383 1072 310 978 l 567 992 q 438 806 492 892 q 349 644 383 719 q 299 504 315 569 q 283 382 283 439 q 303 197 283 294 q 350 1 322 99 l 138 -92 q 99 13 117 -43 q 67 129 81 69 q 44 250 53 189 q 36 369 36 311 z "},")":{"ha":465,"x_min":-61,"x_max":457,"o":"m 457 597 q 427 410 457 501 q 348 233 397 319 q 237 66 299 147 q 111 -92 175 -15 l -61 1 q 45 153 -4 81 q 131 295 94 225 q 189 438 168 365 q 210 590 210 510 q 202 715 210 651 q 183 833 194 778 q 161 929 172 888 q 143 992 150 971 l 361 1072 q 429 831 401 954 q 457 597 457 707 z "},"%":{"ha":1146,"x_min":94,"x_max":1083,"o":"m 315 561 q 235 575 271 561 q 173 614 199 589 q 133 672 147 639 q 119 744 119 706 q 144 842 119 796 q 208 924 168 889 q 299 980 247 960 q 408 1000 351 1000 q 488 986 451 1000 q 550 947 524 972 q 590 889 576 922 q 604 817 604 856 q 580 718 604 764 q 516 637 556 672 q 424 581 476 601 q 315 561 371 561 m 342 686 q 370 696 356 686 q 397 722 385 706 q 416 760 408 739 q 424 806 424 782 q 413 855 424 835 q 382 875 401 875 q 353 865 368 875 q 327 839 339 856 q 308 801 315 822 q 300 756 300 779 q 311 706 300 726 q 342 686 322 686 m 769 -14 q 689 0 725 -14 q 627 39 653 14 q 588 97 601 64 q 574 169 574 131 q 598 267 574 221 q 662 349 622 314 q 753 405 701 385 q 863 425 806 425 q 942 411 906 425 q 1004 372 978 397 q 1044 314 1031 347 q 1058 242 1058 281 q 1034 143 1058 189 q 970 62 1010 97 q 878 6 931 26 q 769 -14 825 -14 m 796 111 q 824 121 810 111 q 850 147 839 131 q 869 185 861 164 q 876 231 876 207 q 866 280 876 260 q 836 300 856 300 q 808 290 822 300 q 781 264 793 281 q 762 226 769 247 q 754 181 754 204 q 765 131 754 151 q 796 111 776 111 m 94 90 l 563 533 l 990 1001 l 1083 897 l 635 468 l 188 -14 l 94 90 z "},".":{"ha":353,"x_min":-18,"x_max":250,"o":"m -18 0 l 36 256 l 250 256 l 196 0 l -18 0 z "},"‰":{"ha":1689,"x_min":99,"x_max":1604,"o":"m 322 561 q 240 575 276 561 q 177 614 203 589 q 138 672 151 639 q 124 744 124 706 q 148 842 124 796 q 212 924 172 889 q 303 980 251 960 q 410 1000 356 1000 q 492 986 456 1000 q 555 947 529 972 q 594 889 581 922 q 608 817 608 856 q 584 718 608 764 q 520 637 560 672 q 428 581 481 601 q 322 561 376 561 m 347 686 q 375 696 361 686 q 401 722 389 706 q 420 760 413 739 q 428 806 428 782 q 416 855 428 835 q 385 875 404 875 q 357 865 371 875 q 331 839 343 856 q 312 801 319 822 q 304 756 304 779 q 316 706 304 726 q 347 686 328 686 m 776 -14 q 694 0 731 -14 q 631 39 657 14 q 592 97 606 64 q 578 169 578 131 q 602 267 578 221 q 666 349 626 314 q 758 405 706 385 q 864 425 810 425 q 946 411 910 425 q 1008 372 982 397 q 1049 314 1035 347 q 1063 242 1063 281 q 1038 143 1063 189 q 974 62 1014 97 q 883 6 935 26 q 776 -14 831 -14 m 801 111 q 829 121 815 111 q 854 147 843 131 q 873 186 865 164 q 881 232 881 208 q 869 280 881 260 q 839 300 858 300 q 811 290 825 300 q 785 264 797 281 q 766 226 774 247 q 758 181 758 204 q 770 131 758 151 q 801 111 782 111 m 1318 -14 q 1235 0 1272 -14 q 1172 39 1199 14 q 1132 97 1146 64 q 1118 169 1118 131 q 1142 267 1118 221 q 1206 349 1167 314 q 1298 405 1246 385 q 1404 425 1350 425 q 1487 411 1450 425 q 1550 372 1524 397 q 1590 314 1576 347 q 1604 242 1604 281 q 1580 143 1604 189 q 1516 62 1556 97 q 1424 6 1476 26 q 1318 -14 1372 -14 m 1343 111 q 1371 121 1357 111 q 1396 147 1385 131 q 1415 186 1407 164 q 1422 232 1422 208 q 1411 280 1422 260 q 1381 300 1400 300 q 1353 290 1367 300 q 1327 264 1339 281 q 1308 226 1315 247 q 1300 181 1300 204 q 1312 131 1300 151 q 1343 111 1324 111 m 99 90 l 567 533 l 994 1001 l 1088 897 l 639 468 l 192 -14 l 99 90 z "},"+":{"ha":611,"x_min":83,"x_max":556,"o":"m 556 597 l 556 389 l 438 389 l 438 257 l 201 257 l 201 389 l 83 389 l 83 597 l 201 597 l 201 729 l 438 729 l 438 597 l 556 597 z "},"±":{"ha":753,"x_min":97,"x_max":626,"o":"m 97 1 l 97 210 l 625 210 l 625 1 l 97 1 m 626 642 l 626 433 l 481 433 l 481 274 l 244 274 l 244 433 l 99 433 l 99 642 l 244 642 l 244 801 l 481 801 l 481 642 l 626 642 z "},"q":{"ha":869,"x_min":10,"x_max":869,"o":"m 235 -14 q 140 8 182 -14 q 69 68 99 29 q 25 160 40 107 q 10 278 10 214 q 44 460 10 375 q 135 609 78 546 q 266 708 192 672 q 422 744 340 744 q 547 711 501 744 q 617 618 593 678 l 640 731 l 869 731 l 717 10 q 713 -19 713 -7 q 765 -60 713 -58 l 718 -282 q 641 -292 682 -289 q 569 -296 600 -296 q 460 -262 503 -296 q 418 -168 418 -228 q 422 -133 418 -153 l 474 108 q 372 17 433 49 q 235 -14 310 -14 m 386 208 q 511 283 446 208 l 539 414 q 503 492 531 463 q 440 522 476 522 q 383 506 411 522 q 333 462 354 489 q 298 399 311 435 q 285 325 285 364 q 311 240 285 272 q 386 208 338 208 z "},"?":{"ha":669,"x_min":40,"x_max":690,"o":"m 113 360 q 127 417 118 389 q 152 472 136 446 q 194 520 168 497 q 260 564 219 543 q 351 611 314 590 q 410 651 388 632 q 444 690 433 671 q 454 729 454 708 q 438 771 454 756 q 396 786 421 786 q 356 776 374 786 q 324 753 338 767 q 299 724 310 739 q 279 700 288 710 l 136 819 q 272 951 188 904 q 451 999 356 999 q 539 987 496 999 q 615 948 582 975 q 669 878 649 921 q 690 776 690 836 q 678 677 690 719 q 646 601 667 635 q 597 543 625 568 q 535 497 568 518 q 467 461 501 476 q 403 431 432 446 q 353 399 374 415 q 328 360 332 382 l 113 360 m 40 0 l 89 228 l 304 228 l 256 0 l 40 0 z "},"¿":{"ha":661,"x_min":-53,"x_max":597,"o":"m 525 343 q 510 285 518 314 q 485 231 501 257 q 444 183 469 206 q 378 139 418 160 q 287 92 324 113 q 227 51 250 71 q 194 13 204 32 q 183 -26 183 -6 q 200 -68 183 -53 q 242 -83 217 -83 q 282 -74 264 -83 q 314 -50 300 -64 q 339 -22 328 -36 q 358 3 350 -7 l 501 -117 q 366 -249 450 -201 q 186 -296 282 -296 q 99 -284 142 -296 q 22 -245 56 -272 q -32 -176 -11 -218 q -53 -74 -53 -135 q -41 25 -53 -18 q -8 101 -29 68 q 41 160 13 135 q 103 206 69 185 q 171 242 136 226 q 235 272 206 257 q 285 303 264 288 q 310 343 306 319 l 525 343 m 597 703 l 549 475 l 333 475 l 382 703 l 597 703 z "},"\"":{"ha":656,"x_min":128,"x_max":708,"o":"m 128 689 l 197 1014 l 419 1014 l 350 689 l 128 689 m 417 689 l 486 1014 l 708 1014 l 639 689 l 417 689 z "},"„":{"ha":739,"x_min":-26,"x_max":636,"o":"m -26 -210 l 53 0 l -18 0 l 36 256 l 311 256 l 256 -7 l 156 -210 l -26 -210 m 299 -210 l 379 0 l 307 0 l 361 256 l 636 256 l 581 -7 l 481 -210 l 299 -210 z "},"‚":{"ha":414,"x_min":-26,"x_max":311,"o":"m -26 -210 l 53 0 l -18 0 l 36 256 l 311 256 l 256 -7 l 156 -210 l -26 -210 z "},"“":{"ha":725,"x_min":107,"x_max":750,"o":"m 431 1014 l 357 832 l 429 832 l 382 610 l 107 610 l 156 839 l 250 1014 l 431 1014 m 750 1014 l 676 832 l 749 832 l 701 610 l 426 610 l 475 839 l 569 1014 l 750 1014 z "},"‘":{"ha":406,"x_min":107,"x_max":431,"o":"m 431 1014 l 357 832 l 429 832 l 382 610 l 107 610 l 156 839 l 250 1014 l 431 1014 z "},"”":{"ha":707,"x_min":150,"x_max":793,"o":"m 469 696 l 543 878 l 471 878 l 518 1100 l 793 1100 l 744 871 l 650 696 l 469 696 m 150 696 l 224 878 l 151 878 l 199 1100 l 474 1100 l 425 871 l 331 696 l 150 696 z "},"’":{"ha":388,"x_min":150,"x_max":474,"o":"m 150 696 l 224 878 l 151 878 l 199 1100 l 474 1100 l 425 871 l 331 696 l 150 696 z "},"'":{"ha":367,"x_min":128,"x_max":419,"o":"m 128 689 l 197 1014 l 419 1014 l 350 689 l 128 689 z "},"r":{"ha":567,"x_min":-22,"x_max":617,"o":"m 133 731 l 375 731 l 344 592 q 460 705 397 665 q 586 744 524 744 q 607 744 601 744 q 617 743 613 744 l 567 506 q 433 489 496 506 q 333 433 371 472 l 242 0 l -22 0 l 133 731 z "},"ŕ":{"ha":567,"x_min":-22,"x_max":617,"o":"m 442 800 l 264 817 l 371 1014 l 604 1014 l 442 800 m 133 731 l 375 731 l 344 592 q 460 705 397 665 q 586 744 524 744 q 607 744 601 744 q 617 743 613 744 l 567 506 q 433 489 496 506 q 333 433 371 472 l 242 0 l -22 0 l 133 731 z "},"ř":{"ha":567,"x_min":-22,"x_max":657,"o":"m 167 956 l 313 1014 l 406 926 l 536 1014 l 657 956 l 472 796 l 283 796 l 167 956 m 133 731 l 375 731 l 344 592 q 460 705 397 665 q 586 744 524 744 q 607 744 601 744 q 617 743 613 744 l 567 506 q 433 489 496 506 q 333 433 371 472 l 242 0 l -22 0 l 133 731 z "},"ŗ":{"ha":567,"x_min":-43,"x_max":617,"o":"m -32 -296 l 36 -211 l -43 -211 l -11 -64 l 206 -64 l 175 -211 l 82 -296 l -32 -296 m 133 731 l 375 731 l 344 592 q 460 705 397 665 q 586 744 524 744 q 607 744 601 744 q 617 743 613 744 l 567 506 q 433 489 496 506 q 333 433 371 472 l 242 0 l -22 0 l 133 731 z "},"®":{"ha":1197,"x_min":79,"x_max":1151,"o":"m 611 -10 q 398 28 496 -10 q 229 134 300 67 q 119 293 158 201 q 79 493 79 385 q 119 692 79 600 q 229 850 158 783 q 398 955 300 917 q 611 993 496 993 q 826 955 726 993 q 997 850 925 917 q 1110 692 1069 783 q 1151 493 1151 600 q 1110 293 1151 385 q 997 134 1069 201 q 826 28 925 67 q 611 -10 726 -10 m 613 78 q 784 109 704 78 q 923 195 864 140 q 1015 325 982 250 q 1049 489 1049 400 q 1016 652 1049 576 q 925 784 983 728 q 787 872 867 840 q 613 904 707 904 q 439 872 518 904 q 303 784 360 840 q 214 653 246 728 q 182 492 182 578 q 214 331 182 406 q 303 199 246 256 q 439 110 360 143 q 613 78 518 78 m 375 794 l 651 794 q 732 776 694 794 q 796 728 769 758 q 838 661 822 699 q 853 586 853 624 q 829 492 853 538 q 767 418 806 446 l 900 200 l 696 200 l 583 382 l 558 382 l 558 200 l 375 200 l 375 794 m 632 538 q 660 547 647 538 q 672 586 672 557 q 658 626 672 618 q 629 635 644 635 l 558 635 l 558 538 l 632 538 z "},"s":{"ha":674,"x_min":-37,"x_max":658,"o":"m 265 -14 q 92 17 174 -14 q -37 108 11 49 l 85 267 q 195 196 140 221 q 299 171 250 171 q 338 182 326 171 q 349 213 349 193 q 332 242 349 228 q 271 271 315 256 q 169 310 211 290 q 101 350 128 329 q 61 396 74 371 q 49 453 49 421 q 76 567 49 514 q 150 660 103 621 q 260 723 197 700 q 393 746 322 746 q 535 725 471 746 q 658 640 599 704 l 526 482 q 431 544 469 525 q 356 564 392 564 q 318 552 332 564 q 304 519 304 540 q 323 490 304 501 q 390 463 342 478 q 562 383 511 426 q 613 272 613 340 q 588 156 613 208 q 517 65 563 103 q 407 7 471 28 q 265 -14 343 -14 z "},"ﬆ":{"ha":1218,"x_min":-60,"x_max":1222,"o":"m 272 -14 q 183 -7 229 -14 q 92 11 136 0 q 8 38 47 22 q -60 74 -32 54 l 74 253 q 192 192 135 213 q 301 171 250 171 q 350 181 336 171 q 364 211 364 192 q 345 241 364 231 q 265 271 326 251 q 169 306 208 289 q 105 344 129 324 q 69 391 81 365 q 58 453 58 417 q 87 569 58 515 q 162 662 115 622 q 267 724 208 701 q 385 746 325 746 q 419 744 399 746 q 464 738 440 743 q 512 724 488 733 q 556 701 536 715 q 549 729 550 713 q 547 758 547 746 q 566 856 547 810 q 625 938 585 903 q 729 994 665 974 q 883 1014 793 1014 q 990 1003 947 1014 q 1059 973 1033 993 q 1095 924 1085 953 q 1106 860 1106 896 q 1101 800 1106 833 q 1088 731 1096 767 l 1222 731 l 1181 532 l 1046 532 l 994 290 q 992 278 992 282 q 992 271 992 274 q 1001 234 992 243 q 1031 225 1011 225 q 1075 231 1050 225 q 1128 249 1100 238 l 1128 40 q 1002 1 1067 17 q 879 -15 938 -15 q 810 -8 842 -15 q 754 17 778 0 q 717 64 731 35 q 704 135 704 93 q 706 163 704 146 q 711 197 707 179 l 782 532 l 697 532 l 739 731 l 824 731 q 834 790 831 764 q 838 836 838 817 q 824 888 838 872 q 778 904 810 904 q 688 863 722 904 q 653 763 653 822 q 658 713 653 740 q 679 667 664 686 l 547 499 q 443 549 485 535 q 367 564 401 564 q 301 518 301 564 q 306 499 301 507 q 322 486 311 492 q 351 476 333 481 q 393 463 368 471 q 500 424 457 442 q 569 384 543 406 q 605 335 594 363 q 615 271 615 308 q 591 158 615 210 q 522 67 567 106 q 413 8 476 29 q 272 -14 350 -14 z "},"ś":{"ha":674,"x_min":-37,"x_max":658,"o":"m 489 800 l 311 817 l 418 1014 l 651 1014 l 489 800 m 265 -14 q 92 17 174 -14 q -37 108 11 49 l 85 267 q 195 196 140 221 q 299 171 250 171 q 338 182 326 171 q 349 213 349 193 q 332 242 349 228 q 271 271 315 256 q 169 310 211 290 q 101 350 128 329 q 61 396 74 371 q 49 453 49 421 q 76 567 49 514 q 150 660 103 621 q 260 723 197 700 q 393 746 322 746 q 535 725 471 746 q 658 640 599 704 l 526 482 q 431 544 469 525 q 356 564 392 564 q 318 552 332 564 q 304 519 304 540 q 323 490 304 501 q 390 463 342 478 q 562 383 511 426 q 613 272 613 340 q 588 156 613 208 q 517 65 563 103 q 407 7 471 28 q 265 -14 343 -14 z "},"š":{"ha":674,"x_min":-37,"x_max":693,"o":"m 203 956 l 349 1014 l 442 926 l 572 1014 l 693 956 l 508 796 l 319 796 l 203 956 m 265 -14 q 92 17 174 -14 q -37 108 11 49 l 85 267 q 195 196 140 221 q 299 171 250 171 q 338 182 326 171 q 349 213 349 193 q 332 242 349 228 q 271 271 315 256 q 169 310 211 290 q 101 350 128 329 q 61 396 74 371 q 49 453 49 421 q 76 567 49 514 q 150 660 103 621 q 260 723 197 700 q 393 746 322 746 q 535 725 471 746 q 658 640 599 704 l 526 482 q 431 544 469 525 q 356 564 392 564 q 318 552 332 564 q 304 519 304 540 q 323 490 304 501 q 390 463 342 478 q 562 383 511 426 q 613 272 613 340 q 588 156 613 208 q 517 65 563 103 q 407 7 471 28 q 265 -14 343 -14 z "},"ə":{"ha":821,"x_min":3,"x_max":790,"o":"m 315 -14 q 176 8 235 -14 q 78 69 117 31 q 22 160 40 108 q 3 274 3 213 q 12 361 3 315 q 36 446 21 407 l 515 446 q 517 457 517 451 q 517 468 517 463 q 490 535 517 514 q 428 556 463 556 q 351 536 389 556 q 294 482 313 517 l 85 546 q 247 689 147 633 q 476 744 346 744 q 615 720 556 744 q 713 655 674 696 q 771 560 751 614 q 790 444 790 506 q 758 276 790 358 q 664 130 725 194 q 515 26 603 65 q 315 -14 426 -14 m 358 174 q 436 204 403 174 q 488 288 469 235 l 281 288 q 279 267 279 281 q 299 198 279 222 q 358 174 319 174 z "},"ŝ":{"ha":674,"x_min":-37,"x_max":690,"o":"m 200 854 l 385 1014 l 574 1014 l 690 854 l 544 796 l 451 883 l 321 796 l 200 854 m 265 -14 q 92 17 174 -14 q -37 108 11 49 l 85 267 q 195 196 140 221 q 299 171 250 171 q 338 182 326 171 q 349 213 349 193 q 332 242 349 228 q 271 271 315 256 q 169 310 211 290 q 101 350 128 329 q 61 396 74 371 q 49 453 49 421 q 76 567 49 514 q 150 660 103 621 q 260 723 197 700 q 393 746 322 746 q 535 725 471 746 q 658 640 599 704 l 526 482 q 431 544 469 525 q 356 564 392 564 q 318 552 332 564 q 304 519 304 540 q 323 490 304 501 q 390 463 342 478 q 562 383 511 426 q 613 272 613 340 q 588 156 613 208 q 517 65 563 103 q 407 7 471 28 q 265 -14 343 -14 z "},"§":{"ha":743,"x_min":-22,"x_max":747,"o":"m 635 322 q 644 244 644 296 q 603 72 644 142 q 502 -42 563 1 q 373 -103 442 -85 q 250 -122 304 -122 q 147 -104 193 -122 q 65 -60 100 -86 q 8 -8 31 -35 q -22 38 -14 19 l 181 199 q 233 143 204 158 q 292 128 261 128 q 340 142 321 128 q 360 182 360 156 q 348 203 360 199 q 324 208 336 207 q 216 232 261 214 q 142 278 171 250 q 99 344 113 307 q 85 424 85 382 q 90 481 85 457 q 103 520 96 504 q 117 547 111 536 q 125 564 124 557 q 115 601 121 575 q 110 663 110 628 q 139 782 110 722 q 217 888 168 842 q 333 964 267 935 q 475 993 400 993 q 587 971 540 993 q 665 917 633 949 q 717 850 697 885 q 747 789 736 815 l 526 694 q 500 740 517 719 q 443 760 483 760 q 381 703 381 760 q 393 678 381 683 q 421 672 406 674 q 511 659 465 669 q 594 625 557 649 q 656 563 632 601 q 679 469 679 525 q 673 418 679 442 q 659 375 667 394 q 644 342 651 356 q 635 322 638 328 m 338 426 q 345 404 338 411 q 363 394 353 397 q 385 389 374 390 q 404 385 397 388 q 417 403 413 392 q 422 426 422 415 q 410 454 422 446 q 388 463 399 463 q 364 465 375 463 q 356 468 353 468 q 343 451 349 463 q 338 426 338 440 z "},";":{"ha":418,"x_min":-7,"x_max":381,"o":"m 113 465 l 167 721 l 381 721 l 326 465 l 113 465 m -7 -218 l 89 0 l 10 0 l 65 256 l 282 256 l 226 0 l 107 -218 l -7 -218 z "},"⅞":{"ha":1222,"x_min":71,"x_max":1163,"o":"m 829 -8 q 742 4 782 -8 q 672 40 701 17 q 625 93 642 63 q 608 161 608 124 q 619 219 608 194 q 648 264 629 244 q 692 298 667 283 q 744 326 717 313 q 702 361 719 339 q 685 418 685 383 q 710 495 685 460 q 776 556 736 531 q 865 597 817 582 q 958 611 913 611 q 1033 600 996 611 q 1099 569 1069 589 q 1145 521 1128 549 q 1163 460 1163 493 q 1131 378 1163 411 q 1054 326 1099 346 q 1108 278 1088 307 q 1129 210 1129 250 q 1103 124 1129 164 q 1036 55 1078 85 q 940 8 994 25 q 829 -8 886 -8 m 861 143 q 904 148 883 143 q 942 161 925 153 q 968 181 958 169 q 978 207 978 193 q 950 244 978 231 q 883 258 922 258 q 801 241 836 258 q 767 196 767 224 q 795 158 767 172 q 861 143 824 143 m 910 382 q 943 385 926 382 q 974 394 960 388 q 997 408 988 400 q 1006 428 1006 417 q 983 455 1006 444 q 928 465 960 465 q 863 453 892 465 q 833 419 833 440 q 858 392 833 401 q 910 382 882 382 m 71 90 l 539 533 l 967 1001 l 1060 897 l 611 468 l 164 -14 l 71 90 m 451 864 l 150 864 l 182 1015 l 718 1015 l 243 404 l 74 404 l 451 864 z "},"⁷":{"ha":564,"x_min":76,"x_max":721,"o":"m 454 989 l 153 989 l 185 1140 l 721 1140 l 246 529 l 76 529 l 454 989 z "},"₇":{"ha":563,"x_min":-62,"x_max":582,"o":"m 314 336 l 14 336 l 46 488 l 582 488 l 107 -124 l -62 -124 l 314 336 z "},"₆":{"ha":597,"x_min":-19,"x_max":535,"o":"m 494 113 q 469 18 494 63 q 401 -60 444 -26 q 303 -114 358 -94 q 185 -133 247 -133 q 33 -75 86 -133 q -19 89 -19 -17 q 7 250 -19 176 q 81 378 33 324 q 194 462 128 432 q 339 492 260 492 q 452 471 401 492 q 535 410 503 450 l 426 303 q 374 336 407 325 q 301 347 342 347 q 201 324 242 347 q 149 256 160 300 q 212 276 174 271 q 281 282 250 282 q 438 234 381 282 q 494 113 494 186 m 217 6 q 265 13 242 6 q 308 31 289 19 q 338 57 326 42 q 349 89 349 72 q 320 134 349 117 q 249 151 292 151 q 199 145 222 151 q 157 128 175 139 q 128 103 139 118 q 117 72 117 89 q 146 25 117 44 q 217 6 175 6 z "},"⁶":{"ha":597,"x_min":118,"x_max":672,"o":"m 632 760 q 607 665 632 710 q 539 587 582 621 q 440 533 496 553 q 322 514 385 514 q 171 572 224 514 q 118 736 118 631 q 144 897 118 824 q 218 1025 171 971 q 331 1109 265 1079 q 476 1139 397 1139 q 590 1118 539 1139 q 672 1057 640 1097 l 564 950 q 512 983 544 972 q 439 994 479 994 q 338 971 379 994 q 286 903 297 947 q 349 924 311 918 q 418 929 388 929 q 575 881 518 929 q 632 760 632 833 m 354 653 q 403 660 379 653 q 445 678 426 667 q 475 704 464 689 q 486 736 486 719 q 458 781 486 764 q 386 799 429 799 q 336 792 360 799 q 294 776 313 786 q 265 751 276 765 q 254 719 254 736 q 283 672 254 692 q 354 653 313 653 z "},"Æ":{"ha":1299,"x_min":-111,"x_max":1365,"o":"m 664 986 l 1365 986 l 1314 750 l 954 750 l 926 619 l 1215 619 l 1165 383 l 876 383 l 846 236 l 1217 236 l 1167 0 l 525 0 l 567 193 l 307 193 l 175 0 l -111 0 l 664 986 m 596 429 l 650 688 l 471 429 l 596 429 z "},"£":{"ha":786,"x_min":14,"x_max":803,"o":"m 108 539 l 178 539 q 167 614 172 576 q 161 688 161 651 q 192 808 161 751 q 272 905 222 864 q 388 969 322 946 q 525 993 454 993 q 687 955 614 993 q 803 847 760 917 l 636 685 q 566 753 611 725 q 479 781 521 781 q 415 754 439 781 q 390 683 390 728 q 397 616 390 653 q 410 539 404 579 l 663 539 l 621 344 l 388 344 q 275 203 354 274 q 336 219 311 214 q 383 224 361 224 q 465 213 424 224 q 549 203 507 203 q 590 207 571 203 q 633 221 608 211 l 656 26 q 575 -8 622 6 q 488 -21 528 -21 q 425 -14 457 -21 q 360 2 393 -7 q 294 18 328 11 q 228 25 261 25 q 135 15 190 25 q 26 -12 81 4 l 14 174 q 98 244 57 199 q 163 344 139 290 l 68 344 l 108 539 z "},"t":{"ha":576,"x_min":56,"x_max":581,"o":"m 239 -15 q 169 -8 201 -15 q 113 18 138 0 q 76 64 89 36 q 63 133 63 92 q 64 164 63 149 q 69 197 65 179 l 140 532 l 56 532 l 99 731 l 183 731 l 232 960 l 496 960 l 447 731 l 581 731 l 539 532 l 404 532 l 353 290 q 351 277 351 283 q 350 265 350 271 q 392 225 350 225 q 434 231 408 225 q 488 249 460 238 l 488 40 q 362 1 426 17 q 239 -15 297 -15 z "},"ŧ":{"ha":579,"x_min":13,"x_max":583,"o":"m 44 467 l 129 467 l 143 532 l 58 532 l 101 731 l 186 731 l 235 960 l 499 960 l 450 731 l 583 731 l 542 532 l 407 532 l 393 467 l 528 467 l 496 315 l 361 315 l 356 290 q 353 277 353 283 q 353 265 353 271 q 394 225 353 225 q 437 231 411 225 q 490 249 463 238 l 490 40 q 364 1 429 17 q 240 -15 299 -15 q 171 -8 203 -15 q 115 18 139 0 q 78 64 92 36 q 65 133 65 92 q 67 164 65 149 q 72 197 68 179 l 97 315 l 13 315 l 44 467 z "},"ť":{"ha":576,"x_min":56,"x_max":881,"o":"m 540 817 l 647 1014 l 881 1014 l 697 772 l 540 817 m 239 -15 q 169 -8 201 -15 q 113 18 138 0 q 76 64 89 36 q 63 133 63 92 q 64 164 63 149 q 69 197 65 179 l 140 532 l 56 532 l 99 731 l 183 731 l 232 960 l 496 960 l 447 731 l 581 731 l 539 532 l 404 532 l 353 290 q 351 277 351 283 q 350 265 350 271 q 392 225 350 225 q 434 231 408 225 q 488 249 460 238 l 488 40 q 362 1 426 17 q 239 -15 297 -15 z "},"þ":{"ha":799,"x_min":-86,"x_max":769,"o":"m 186 986 l 457 986 l 403 729 q 492 756 421 756 q 613 730 561 756 q 700 661 665 704 q 752 563 735 618 q 769 449 769 507 q 737 278 769 365 q 646 120 704 192 q 506 3 588 49 q 325 -43 424 -43 q 269 -37 288 -43 q 243 -19 250 -31 l 185 -296 l -86 -296 l 186 986 m 364 193 q 426 213 399 193 q 472 267 453 233 q 501 342 490 300 q 511 426 511 383 q 492 497 511 475 q 443 519 474 519 q 390 502 415 519 q 344 454 365 485 l 299 242 q 314 209 299 225 q 364 193 329 193 z "},"⅜":{"ha":1254,"x_min":63,"x_max":1190,"o":"m 269 388 q 132 411 186 388 q 63 486 78 435 l 165 603 q 174 590 167 600 q 198 569 182 581 q 238 549 214 558 q 299 540 263 540 q 387 552 349 540 q 425 594 425 564 q 377 635 425 624 q 242 646 329 646 l 208 646 l 238 783 l 269 783 q 404 797 350 783 q 458 843 458 810 q 450 859 458 853 q 430 869 442 865 q 405 874 418 872 q 382 875 392 875 q 294 858 331 875 q 224 814 258 842 l 156 938 q 270 996 200 976 q 410 1015 340 1015 q 565 974 506 1015 q 624 869 624 932 q 579 773 624 811 q 464 724 535 735 q 548 678 519 715 q 576 593 576 642 q 549 499 576 538 q 477 435 521 460 q 378 399 433 410 q 269 388 324 388 m 857 -8 q 769 4 810 -8 q 699 40 729 17 q 653 93 669 63 q 636 161 636 124 q 647 219 636 194 q 676 264 657 244 q 719 298 694 283 q 772 326 744 313 q 730 361 747 339 q 713 418 713 383 q 738 495 713 460 q 804 556 764 531 q 892 597 844 582 q 986 611 940 611 q 1060 600 1024 611 q 1126 569 1097 589 q 1173 521 1156 549 q 1190 460 1190 493 q 1158 378 1190 411 q 1082 326 1126 346 q 1136 278 1115 307 q 1157 210 1157 250 q 1131 124 1157 164 q 1064 55 1106 85 q 968 8 1022 25 q 857 -8 914 -8 m 889 143 q 932 148 911 143 q 969 161 953 153 q 996 181 986 169 q 1006 207 1006 193 q 978 244 1006 231 q 911 258 950 258 q 829 241 864 258 q 794 196 794 224 q 823 158 794 172 q 889 143 851 143 m 938 382 q 971 385 954 382 q 1001 394 988 388 q 1024 408 1015 400 q 1033 428 1033 417 q 1010 455 1033 444 q 956 465 988 465 q 890 453 919 465 q 861 419 861 440 q 885 392 861 401 q 938 382 910 382 m 143 90 l 611 533 l 1039 1001 l 1132 897 l 683 468 l 236 -14 l 143 90 z "},"³":{"ha":565,"x_min":71,"x_max":632,"o":"m 282 513 q 156 536 206 513 q 71 611 107 560 l 174 728 q 186 713 178 724 q 210 692 194 703 q 250 674 225 682 q 314 665 275 665 q 356 668 335 665 q 394 677 378 671 q 422 693 411 683 q 433 718 433 703 q 385 760 433 749 q 250 771 338 771 l 217 771 l 246 908 l 278 908 q 351 912 317 908 q 412 922 386 915 q 452 940 438 929 q 467 965 467 950 q 458 983 467 976 q 439 994 450 990 q 414 999 428 997 q 390 1000 400 1000 q 303 983 339 1000 q 232 939 267 967 l 164 1063 q 278 1121 208 1101 q 415 1140 349 1140 q 574 1099 515 1140 q 632 993 632 1057 q 585 897 632 935 q 472 849 539 858 q 558 802 531 839 q 585 715 585 765 q 557 623 585 661 q 485 560 529 585 q 388 524 442 536 q 282 513 335 513 z "},"¾":{"ha":1222,"x_min":63,"x_max":1199,"o":"m 269 388 q 132 411 186 388 q 63 486 78 435 l 165 603 q 174 590 167 600 q 198 569 182 581 q 238 549 214 558 q 299 540 263 540 q 387 552 349 540 q 425 594 425 564 q 377 635 425 624 q 242 646 329 646 l 208 646 l 238 783 l 269 783 q 404 797 350 783 q 458 843 458 810 q 450 859 458 853 q 430 869 442 865 q 405 874 418 872 q 382 875 392 875 q 294 858 331 875 q 224 814 258 842 l 156 938 q 270 996 200 976 q 410 1015 340 1015 q 565 974 506 1015 q 624 869 624 932 q 579 773 624 811 q 464 724 535 735 q 548 678 519 715 q 576 593 576 642 q 549 499 576 538 q 477 435 521 460 q 378 399 433 410 q 269 388 324 388 m 869 117 l 588 117 l 619 265 l 1022 613 l 1125 613 l 1051 265 l 1136 265 l 1104 117 l 1019 117 l 994 1 l 846 1 l 869 117 m 907 265 l 943 433 l 758 265 l 907 265 m 210 90 l 678 533 l 1106 1001 l 1199 897 l 750 468 l 303 -14 l 210 90 z "},"™":{"ha":1232,"x_min":167,"x_max":1264,"o":"m 583 822 l 458 822 l 401 557 l 236 557 l 292 822 l 167 822 l 203 989 l 619 989 l 583 822 m 679 986 l 932 986 l 932 804 l 1011 986 l 1264 986 l 1174 557 l 1007 557 l 1054 781 l 960 615 l 826 615 l 801 781 l 754 557 l 588 557 l 679 986 z "},"²":{"ha":593,"x_min":58,"x_max":669,"o":"m 58 522 q 88 626 71 582 q 133 703 106 669 q 200 764 160 738 q 299 814 240 790 q 372 842 336 829 q 434 872 407 856 q 478 906 461 888 q 494 950 494 925 q 472 984 494 975 q 413 993 449 993 q 319 974 364 993 q 242 932 274 956 l 171 1043 q 288 1112 211 1083 q 465 1140 365 1140 q 617 1101 565 1140 q 669 982 669 1061 q 648 882 669 924 q 595 813 626 840 q 527 768 564 785 q 460 743 490 751 q 380 714 413 729 q 340 671 347 699 l 582 671 l 550 522 l 58 522 z "},"⅔":{"ha":1253,"x_min":46,"x_max":1197,"o":"m 124 90 l 447 397 l 46 397 q 74 501 58 457 q 117 578 90 544 q 182 639 143 613 q 278 689 221 665 q 348 717 314 704 q 408 747 382 731 q 451 781 435 763 q 467 825 467 800 q 445 859 467 850 q 388 868 424 868 q 297 849 340 868 q 224 807 254 831 l 154 918 q 267 987 193 958 q 439 1015 342 1015 q 585 976 535 1015 q 636 857 636 936 q 615 757 636 799 q 564 688 594 715 q 498 643 533 660 q 433 618 463 626 q 357 589 389 604 q 318 546 325 574 l 556 546 l 543 488 l 592 533 l 1019 1001 l 1113 897 l 772 571 q 873 607 817 594 q 983 619 929 619 q 1138 578 1079 619 q 1197 474 1197 536 q 1153 377 1197 415 q 1038 328 1108 339 q 1122 283 1093 319 q 1150 197 1150 246 q 1122 103 1150 142 q 1051 39 1094 64 q 952 3 1007 14 q 843 -8 897 -8 q 706 15 760 -8 q 636 90 651 39 l 739 207 q 748 194 740 204 q 772 174 756 185 q 812 153 788 163 q 872 144 836 144 q 960 156 922 144 q 999 199 999 168 q 951 239 999 228 q 815 250 903 250 l 782 250 l 811 388 l 843 388 q 978 401 924 388 q 1032 447 1032 414 q 1024 463 1032 457 q 1003 473 1015 469 q 978 478 992 476 q 956 479 965 479 q 868 463 904 479 q 797 418 832 446 l 733 533 l 664 468 l 217 -14 l 124 90 z "},"u":{"ha":858,"x_min":13,"x_max":833,"o":"m 183 -14 q 56 30 100 -14 q 13 158 13 74 q 24 250 13 197 l 126 731 l 389 731 l 300 310 q 296 272 296 289 q 349 208 296 208 q 403 222 372 208 q 474 283 433 236 l 569 731 l 833 731 l 740 292 q 736 258 736 271 q 774 222 736 224 l 726 0 q 613 -14 657 -14 q 515 9 553 -14 q 476 88 476 32 q 477 101 476 94 q 479 114 478 107 q 344 16 417 46 q 183 -14 271 -14 z "},"ú":{"ha":858,"x_min":13,"x_max":833,"o":"m 553 800 l 375 817 l 482 1014 l 715 1014 l 553 800 m 183 -14 q 56 30 100 -14 q 13 158 13 74 q 24 250 13 197 l 126 731 l 389 731 l 300 310 q 296 272 296 289 q 349 208 296 208 q 403 222 372 208 q 474 283 433 236 l 569 731 l 833 731 l 740 292 q 736 258 736 271 q 774 222 736 224 l 726 0 q 613 -14 657 -14 q 515 9 553 -14 q 476 88 476 32 q 477 101 476 94 q 479 114 478 107 q 344 16 417 46 q 183 -14 271 -14 z "},"ŭ":{"ha":858,"x_min":13,"x_max":833,"o":"m 183 -14 q 56 30 100 -14 q 13 158 13 74 q 24 250 13 197 l 126 731 l 389 731 l 300 310 q 296 272 296 289 q 349 208 296 208 q 403 222 372 208 q 474 283 433 236 l 569 731 l 833 731 l 740 292 q 736 258 736 271 q 774 222 736 224 l 726 0 q 613 -14 657 -14 q 515 9 553 -14 q 476 88 476 32 q 477 101 476 94 q 479 114 478 107 q 344 16 417 46 q 183 -14 271 -14 m 497 901 q 557 933 528 901 q 601 1014 586 965 l 738 1014 q 702 923 726 964 q 643 852 678 882 q 565 806 608 822 q 474 789 521 789 q 344 835 390 789 q 297 957 297 881 q 304 1014 297 982 l 440 1014 q 436 982 436 997 q 453 924 436 947 q 497 901 469 901 z "},"û":{"ha":858,"x_min":13,"x_max":833,"o":"m 265 854 l 450 1014 l 639 1014 l 756 854 l 610 796 l 517 883 l 386 796 l 265 854 m 183 -14 q 56 30 100 -14 q 13 158 13 74 q 24 250 13 197 l 126 731 l 389 731 l 300 310 q 296 272 296 289 q 349 208 296 208 q 403 222 372 208 q 474 283 433 236 l 569 731 l 833 731 l 740 292 q 736 258 736 271 q 774 222 736 224 l 726 0 q 613 -14 657 -14 q 515 9 553 -14 q 476 88 476 32 q 477 101 476 94 q 479 114 478 107 q 344 16 417 46 q 183 -14 271 -14 z "},"ü":{"ha":858,"x_min":13,"x_max":833,"o":"m 222 806 l 264 1000 l 481 1000 l 439 806 l 222 806 m 535 806 l 576 1000 l 792 1000 l 751 806 l 535 806 m 183 -14 q 56 30 100 -14 q 13 158 13 74 q 24 250 13 197 l 126 731 l 389 731 l 300 310 q 296 272 296 289 q 349 208 296 208 q 403 222 372 208 q 474 283 433 236 l 569 731 l 833 731 l 740 292 q 736 258 736 271 q 774 222 736 224 l 726 0 q 613 -14 657 -14 q 515 9 553 -14 q 476 88 476 32 q 477 101 476 94 q 479 114 478 107 q 344 16 417 46 q 183 -14 271 -14 z "},"ù":{"ha":858,"x_min":13,"x_max":833,"o":"m 183 -14 q 56 30 100 -14 q 13 158 13 74 q 24 250 13 197 l 126 731 l 389 731 l 300 310 q 296 272 296 289 q 349 208 296 208 q 403 222 372 208 q 474 283 433 236 l 569 731 l 833 731 l 740 292 q 736 258 736 271 q 774 222 736 224 l 726 0 q 613 -14 657 -14 q 515 9 553 -14 q 476 88 476 32 q 477 101 476 94 q 479 114 478 107 q 344 16 417 46 q 183 -14 271 -14 m 353 1014 l 586 1014 l 610 817 l 426 797 l 353 1014 z "},"ű":{"ha":858,"x_min":13,"x_max":833,"o":"m 183 -14 q 56 30 100 -14 q 13 158 13 74 q 24 250 13 197 l 126 731 l 389 731 l 300 310 q 296 272 296 289 q 349 208 296 208 q 403 222 372 208 q 474 283 433 236 l 569 731 l 833 731 l 740 292 q 736 258 736 271 q 774 222 736 224 l 726 0 q 613 -14 657 -14 q 515 9 553 -14 q 476 88 476 32 q 477 101 476 94 q 479 114 478 107 q 344 16 417 46 q 183 -14 271 -14 m 381 804 l 243 817 l 336 1014 l 528 1014 l 381 804 m 638 804 l 501 817 l 593 1014 l 785 1014 l 638 804 z "},"ū":{"ha":858,"x_min":13,"x_max":833,"o":"m 183 -14 q 56 30 100 -14 q 13 158 13 74 q 24 250 13 197 l 126 731 l 389 731 l 300 310 q 296 272 296 289 q 349 208 296 208 q 403 222 372 208 q 474 283 433 236 l 569 731 l 833 731 l 740 292 q 736 258 736 271 q 774 222 736 224 l 726 0 q 613 -14 657 -14 q 515 9 553 -14 q 476 88 476 32 q 477 101 476 94 q 479 114 478 107 q 344 16 417 46 q 183 -14 271 -14 m 293 843 l 326 1000 l 738 1000 l 704 843 l 293 843 z "},"_":{"ha":588,"x_min":-76,"x_max":436,"o":"m -76 -236 l -26 0 l 436 0 l 386 -236 l -76 -236 z "}," ":{"ha":310,"x_min":0,"x_max":0,"o":""},"­":{"ha":846,"x_min":36,"x_max":794,"o":"m 36 265 l 86 501 l 794 501 l 744 265 l 36 265 z "},"Ş":{"ha":828,"x_min":-46,"x_max":868,"o":"m 181 -178 q 225 -197 192 -187 q 294 -206 258 -206 q 353 -194 328 -206 q 378 -156 378 -183 q 360 -128 378 -136 q 313 -121 343 -121 q 253 -126 285 -121 q 206 -133 221 -131 l 289 -10 q 108 27 197 -3 q -46 103 19 57 l 121 339 q 156 314 131 332 q 217 278 181 296 q 300 246 254 260 q 396 232 346 232 q 456 248 443 232 q 468 283 468 264 q 453 315 468 301 q 413 339 438 328 q 355 360 388 350 q 288 385 322 371 q 151 472 196 421 q 106 603 106 524 q 143 769 106 696 q 242 892 181 842 q 380 968 303 942 q 536 994 457 994 q 635 984 588 994 q 726 958 683 974 q 804 923 768 942 q 868 888 840 904 l 704 664 q 683 680 703 665 q 631 711 663 694 q 558 741 599 728 q 476 754 518 754 q 424 740 446 754 q 403 696 403 726 q 443 647 403 664 q 550 607 483 631 q 641 567 600 588 q 712 518 682 546 q 758 453 742 490 q 774 364 774 415 q 740 198 774 267 q 651 85 706 129 q 527 17 596 40 q 389 -11 458 -6 l 357 -47 q 373 -45 364 -46 q 392 -44 382 -44 q 465 -65 433 -44 q 497 -132 497 -85 q 483 -193 497 -164 q 439 -245 468 -222 q 365 -282 410 -268 q 258 -296 319 -296 q 174 -287 210 -296 q 114 -267 138 -278 l 181 -178 z "},"ş":{"ha":674,"x_min":-37,"x_max":658,"o":"m 89 -178 q 133 -197 100 -187 q 203 -206 167 -206 q 261 -194 236 -206 q 286 -156 286 -183 q 269 -128 286 -136 q 221 -121 251 -121 q 161 -126 193 -121 q 114 -133 129 -131 l 199 -10 q 64 30 126 0 q -37 108 1 60 l 85 267 q 195 196 140 221 q 299 171 250 171 q 338 182 326 171 q 349 213 349 193 q 332 242 349 228 q 271 271 315 256 q 169 310 211 290 q 101 350 128 329 q 61 396 74 371 q 49 453 49 421 q 76 567 49 514 q 150 660 103 621 q 260 723 197 700 q 393 746 322 746 q 535 725 471 746 q 658 640 599 704 l 526 482 q 431 544 469 525 q 356 564 392 564 q 318 552 332 564 q 304 519 304 540 q 323 490 304 501 q 390 463 342 478 q 562 383 511 426 q 613 272 613 340 q 590 161 613 211 q 525 74 567 111 q 424 14 483 36 q 294 -12 365 -8 l 265 -47 q 281 -45 272 -46 q 300 -44 290 -44 q 374 -65 342 -44 q 406 -132 406 -85 q 391 -193 406 -164 q 347 -245 376 -222 q 273 -282 318 -268 q 167 -296 228 -296 q 82 -287 118 -296 q 22 -267 46 -278 l 89 -178 z "},"Ţ":{"ha":833,"x_min":82,"x_max":938,"o":"m 353 750 l 88 750 l 138 986 l 938 986 l 888 750 l 624 750 l 464 0 l 367 0 l 325 -47 q 341 -45 332 -46 q 360 -44 350 -44 q 433 -65 401 -44 q 465 -132 465 -85 q 451 -193 465 -164 q 407 -245 436 -222 q 333 -282 378 -268 q 226 -296 288 -296 q 142 -287 178 -296 q 82 -267 106 -278 l 149 -178 q 193 -197 160 -187 q 263 -206 226 -206 q 321 -194 296 -206 q 346 -156 346 -183 q 328 -128 346 -136 q 281 -121 311 -121 q 221 -126 253 -121 q 174 -133 189 -131 l 264 0 l 193 0 l 353 750 z "},"ţ":{"ha":576,"x_min":-18,"x_max":581,"o":"m 49 -178 q 93 -197 60 -187 q 163 -206 126 -206 q 221 -194 196 -206 q 246 -156 246 -183 q 228 -128 246 -136 q 181 -121 211 -121 q 121 -126 153 -121 q 74 -133 89 -131 l 161 -6 q 90 40 117 7 q 63 133 63 74 q 64 164 63 149 q 69 197 65 179 l 140 532 l 56 532 l 99 731 l 183 731 l 232 960 l 496 960 l 447 731 l 581 731 l 539 532 l 404 532 l 353 290 q 351 277 351 283 q 350 265 350 271 q 392 225 350 225 q 434 231 408 225 q 488 249 460 238 l 488 40 q 369 2 429 17 q 253 -15 308 -12 l 225 -47 q 241 -45 232 -46 q 260 -44 250 -44 q 333 -65 301 -44 q 365 -132 365 -85 q 351 -193 365 -164 q 307 -245 336 -222 q 233 -282 278 -268 q 126 -296 188 -296 q 42 -287 78 -296 q -18 -267 6 -278 l 49 -178 z "},"Ș":{"ha":828,"x_min":-46,"x_max":868,"o":"m 193 -296 l 261 -211 l 182 -211 l 214 -64 l 431 -64 l 400 -211 l 307 -296 l 193 -296 m 340 -12 q 236 -4 289 -12 q 133 19 183 4 q 38 56 83 35 q -46 103 -8 76 l 121 339 q 156 314 131 332 q 217 278 181 296 q 300 246 254 260 q 396 232 346 232 q 456 248 443 232 q 468 283 468 264 q 453 315 468 301 q 413 339 438 328 q 355 360 388 350 q 288 385 322 371 q 151 472 196 421 q 106 603 106 524 q 143 769 106 696 q 242 892 181 842 q 380 968 303 942 q 536 994 457 994 q 635 984 588 994 q 726 958 683 974 q 804 923 768 942 q 868 888 840 904 l 704 664 q 683 680 703 665 q 631 711 663 694 q 558 741 599 728 q 476 754 518 754 q 424 740 446 754 q 403 696 403 726 q 443 647 403 664 q 550 607 483 631 q 641 567 600 588 q 712 518 682 546 q 758 453 742 490 q 774 364 774 415 q 734 187 774 258 q 632 71 694 115 q 492 7 569 26 q 340 -12 415 -12 z "},"ș":{"ha":674,"x_min":-37,"x_max":658,"o":"m 100 -296 l 168 -211 l 89 -211 l 121 -64 l 338 -64 l 307 -211 l 214 -296 l 100 -296 m 265 -14 q 92 17 174 -14 q -37 108 11 49 l 85 267 q 195 196 140 221 q 299 171 250 171 q 338 182 326 171 q 349 213 349 193 q 332 242 349 228 q 271 271 315 256 q 169 310 211 290 q 101 350 128 329 q 61 396 74 371 q 49 453 49 421 q 76 567 49 514 q 150 660 103 621 q 260 723 197 700 q 393 746 322 746 q 535 725 471 746 q 658 640 599 704 l 526 482 q 431 544 469 525 q 356 564 392 564 q 318 552 332 564 q 304 519 304 540 q 323 490 304 501 q 390 463 342 478 q 562 383 511 426 q 613 272 613 340 q 588 156 613 208 q 517 65 563 103 q 407 7 471 28 q 265 -14 343 -14 z "},"Ț":{"ha":833,"x_min":88,"x_max":938,"o":"m 182 -296 l 250 -211 l 171 -211 l 203 -64 l 419 -64 l 389 -211 l 296 -296 l 182 -296 m 353 750 l 88 750 l 138 986 l 938 986 l 888 750 l 624 750 l 464 0 l 193 0 l 353 750 z "},"ț":{"ha":576,"x_min":56,"x_max":581,"o":"m 103 -296 l 171 -211 l 92 -211 l 124 -64 l 340 -64 l 310 -211 l 217 -296 l 103 -296 m 239 -15 q 169 -8 201 -15 q 113 18 138 0 q 76 64 89 36 q 63 133 63 92 q 64 164 63 149 q 69 197 65 179 l 140 532 l 56 532 l 99 731 l 183 731 l 232 960 l 496 960 l 447 731 l 581 731 l 539 532 l 404 532 l 353 290 q 351 277 351 283 q 350 265 350 271 q 392 225 350 225 q 434 231 408 225 q 488 249 460 238 l 488 40 q 362 1 426 17 q 239 -15 297 -15 z "},"μ":{"ha":878,"x_min":-86,"x_max":839,"o":"m 132 731 l 396 731 l 307 310 q 303 289 304 299 q 301 271 301 279 q 360 208 301 208 q 410 222 379 208 q 481 283 440 236 l 575 731 l 839 731 l 746 292 q 742 263 742 275 q 794 222 742 224 l 747 0 q 674 -10 706 -7 q 619 -14 643 -14 q 486 88 486 -14 l 486 114 q 458 77 478 99 q 410 35 438 56 q 353 1 383 15 q 296 -14 324 -14 q 232 36 232 -14 l 178 -296 l -86 -296 l 132 731 z "},"∕":{"ha":867,"x_min":-89,"x_max":988,"o":"m -89 110 l 865 1001 l 988 878 l 33 -14 l -89 110 z "},"∙":{"ha":353,"x_min":50,"x_max":318,"o":"m 50 331 l 104 586 l 318 586 l 264 331 l 50 331 z "},"ų":{"ha":858,"x_min":13,"x_max":833,"o":"m 183 -14 q 56 30 100 -14 q 13 158 13 74 q 24 250 13 197 l 126 731 l 389 731 l 300 310 q 296 272 296 289 q 349 208 296 208 q 403 222 372 208 q 474 283 433 236 l 569 731 l 833 731 l 740 292 q 736 258 736 271 q 774 222 736 224 l 726 0 q 640 -61 671 -32 q 608 -115 608 -90 q 628 -147 608 -135 q 693 -160 649 -160 l 615 -299 q 477 -253 521 -287 q 433 -175 433 -219 q 467 -92 433 -135 q 565 -10 500 -49 q 501 20 525 -3 q 476 88 476 43 q 477 101 476 94 q 479 114 478 107 q 344 16 417 46 q 183 -14 271 -14 z "},"ů":{"ha":858,"x_min":13,"x_max":833,"o":"m 347 869 q 399 977 347 940 q 536 1014 451 1014 q 636 990 600 1014 q 672 917 672 965 q 620 809 672 846 q 485 772 568 772 q 384 797 421 772 q 347 869 347 821 m 519 939 q 475 924 493 939 q 457 886 457 910 q 500 847 457 847 q 544 863 525 847 q 564 901 564 878 q 551 928 564 918 q 519 939 539 939 m 183 -14 q 56 30 100 -14 q 13 158 13 74 q 24 250 13 197 l 126 731 l 389 731 l 300 310 q 296 272 296 289 q 349 208 296 208 q 403 222 372 208 q 474 283 433 236 l 569 731 l 833 731 l 740 292 q 736 258 736 271 q 774 222 736 224 l 726 0 q 613 -14 657 -14 q 515 9 553 -14 q 476 88 476 32 q 477 101 476 94 q 479 114 478 107 q 344 16 417 46 q 183 -14 271 -14 z "},"ũ":{"ha":858,"x_min":13,"x_max":833,"o":"m 183 -14 q 56 30 100 -14 q 13 158 13 74 q 24 250 13 197 l 126 731 l 389 731 l 300 310 q 296 272 296 289 q 349 208 296 208 q 403 222 372 208 q 474 283 433 236 l 569 731 l 833 731 l 740 292 q 736 258 736 271 q 774 222 736 224 l 726 0 q 613 -14 657 -14 q 515 9 553 -14 q 476 88 476 32 q 477 101 476 94 q 479 114 478 107 q 344 16 417 46 q 183 -14 271 -14 m 581 794 q 529 805 550 794 q 491 828 508 815 q 456 851 474 840 q 417 861 439 861 q 380 851 394 861 q 357 829 365 842 q 346 806 349 817 q 343 794 343 796 l 203 794 q 225 849 207 813 q 274 922 243 886 q 346 986 304 958 q 438 1014 388 1014 q 492 1003 471 1014 q 530 978 513 992 q 563 954 547 965 q 601 943 579 943 q 638 953 622 943 q 663 977 653 964 q 677 1001 672 990 q 682 1014 682 1013 l 821 1014 q 799 966 818 1001 q 749 892 781 931 q 675 824 718 854 q 581 794 632 794 z "},"v":{"ha":761,"x_min":60,"x_max":799,"o":"m 60 731 l 333 731 l 333 207 q 406 347 375 283 q 463 469 438 410 q 513 590 489 528 q 563 731 536 653 l 799 731 q 648 365 749 549 q 406 0 547 182 l 133 0 l 60 731 z "},"w":{"ha":1133,"x_min":47,"x_max":1208,"o":"m 47 731 l 297 731 l 350 240 l 422 397 l 368 731 l 576 731 l 589 517 l 693 731 l 888 731 q 804 553 846 631 q 706 397 763 476 l 715 311 q 780 397 753 360 q 828 463 807 433 q 867 521 850 493 q 899 578 883 549 q 933 645 915 608 q 972 731 950 682 l 1208 731 q 1010 365 1133 549 q 718 0 886 182 l 567 0 l 539 278 l 393 0 l 176 0 l 47 731 z "},"ẃ":{"ha":1133,"x_min":47,"x_max":1208,"o":"m 713 800 l 535 817 l 642 1014 l 875 1014 l 713 800 m 47 731 l 297 731 l 350 240 l 422 397 l 368 731 l 576 731 l 589 517 l 693 731 l 888 731 q 804 553 846 631 q 706 397 763 476 l 715 311 q 780 397 753 360 q 828 463 807 433 q 867 521 850 493 q 899 578 883 549 q 933 645 915 608 q 972 731 950 682 l 1208 731 q 1010 365 1133 549 q 718 0 886 182 l 567 0 l 539 278 l 393 0 l 176 0 l 47 731 z "},"ŵ":{"ha":1133,"x_min":47,"x_max":1208,"o":"m 417 854 l 601 1014 l 790 1014 l 907 854 l 761 796 l 668 883 l 538 796 l 417 854 m 47 731 l 297 731 l 350 240 l 422 397 l 368 731 l 576 731 l 589 517 l 693 731 l 888 731 q 804 553 846 631 q 706 397 763 476 l 715 311 q 780 397 753 360 q 828 463 807 433 q 867 521 850 493 q 899 578 883 549 q 933 645 915 608 q 972 731 950 682 l 1208 731 q 1010 365 1133 549 q 718 0 886 182 l 567 0 l 539 278 l 393 0 l 176 0 l 47 731 z "},"ẅ":{"ha":1133,"x_min":47,"x_max":1208,"o":"m 388 806 l 429 1000 l 646 1000 l 604 806 l 388 806 m 700 806 l 742 1000 l 957 1000 l 917 806 l 700 806 m 47 731 l 297 731 l 350 240 l 422 397 l 368 731 l 576 731 l 589 517 l 693 731 l 888 731 q 804 553 846 631 q 706 397 763 476 l 715 311 q 780 397 753 360 q 828 463 807 433 q 867 521 850 493 q 899 578 883 549 q 933 645 915 608 q 972 731 950 682 l 1208 731 q 1010 365 1133 549 q 718 0 886 182 l 567 0 l 539 278 l 393 0 l 176 0 l 47 731 z "},"ẁ":{"ha":1133,"x_min":47,"x_max":1208,"o":"m 47 731 l 297 731 l 350 240 l 422 397 l 368 731 l 576 731 l 589 517 l 693 731 l 888 731 q 804 553 846 631 q 706 397 763 476 l 715 311 q 780 397 753 360 q 828 463 807 433 q 867 521 850 493 q 899 578 883 549 q 933 645 915 608 q 972 731 950 682 l 1208 731 q 1010 365 1133 549 q 718 0 886 182 l 567 0 l 539 278 l 393 0 l 176 0 l 47 731 m 500 1014 l 733 1014 l 757 817 l 574 797 l 500 1014 z "},"x":{"ha":743,"x_min":-96,"x_max":810,"o":"m 218 365 l 67 731 l 333 731 l 386 551 l 393 522 l 411 551 l 546 731 l 810 731 l 501 365 l 661 0 l 393 0 l 332 179 l 326 207 l 308 179 l 172 0 l -96 0 l 218 365 z "},"y":{"ha":754,"x_min":-78,"x_max":799,"o":"m -78 -129 q -10 -126 -39 -129 q 40 -116 18 -124 q 80 -96 63 -108 q 114 -62 97 -83 l 154 -15 l 58 731 l 326 731 l 343 224 l 390 301 q 481 494 440 385 q 546 731 522 604 l 799 731 q 758 605 779 664 q 706 481 738 546 q 627 335 674 415 q 513 143 581 254 l 401 -36 q 302 -172 351 -117 q 199 -260 253 -226 q 85 -310 146 -294 q -47 -325 25 -325 l -78 -129 z "},"ý":{"ha":754,"x_min":-78,"x_max":799,"o":"m -78 -129 q -10 -126 -39 -129 q 40 -116 18 -124 q 80 -96 63 -108 q 114 -62 97 -83 l 154 -15 l 58 731 l 326 731 l 343 224 l 390 301 q 481 494 440 385 q 546 731 522 604 l 799 731 q 758 605 779 664 q 706 481 738 546 q 627 335 674 415 q 513 143 581 254 l 401 -36 q 302 -172 351 -117 q 199 -260 253 -226 q 85 -310 146 -294 q -47 -325 25 -325 l -78 -129 m 517 800 l 339 817 l 446 1014 l 679 1014 l 517 800 z "},"ŷ":{"ha":754,"x_min":-78,"x_max":799,"o":"m -78 -129 q -10 -126 -39 -129 q 40 -116 18 -124 q 80 -96 63 -108 q 114 -62 97 -83 l 154 -15 l 58 731 l 326 731 l 343 224 l 390 301 q 481 494 440 385 q 546 731 522 604 l 799 731 q 758 605 779 664 q 706 481 738 546 q 627 335 674 415 q 513 143 581 254 l 401 -36 q 302 -172 351 -117 q 199 -260 253 -226 q 85 -310 146 -294 q -47 -325 25 -325 l -78 -129 m 238 854 l 422 1014 l 611 1014 l 728 854 l 582 796 l 489 883 l 358 796 l 238 854 z "},"ÿ":{"ha":754,"x_min":-78,"x_max":799,"o":"m -78 -129 q -10 -126 -39 -129 q 40 -116 18 -124 q 80 -96 63 -108 q 114 -62 97 -83 l 154 -15 l 58 731 l 326 731 l 343 224 l 390 301 q 481 494 440 385 q 546 731 522 604 l 799 731 q 758 605 779 664 q 706 481 738 546 q 627 335 674 415 q 513 143 581 254 l 401 -36 q 302 -172 351 -117 q 199 -260 253 -226 q 85 -310 146 -294 q -47 -325 25 -325 l -78 -129 m 203 806 l 244 1000 l 461 1000 l 419 806 l 203 806 m 515 806 l 557 1000 l 772 1000 l 732 806 l 515 806 z "},"¥":{"ha":996,"x_min":71,"x_max":1065,"o":"m 801 600 l 883 600 l 849 433 l 681 433 l 606 326 l 596 281 l 817 281 l 782 114 l 560 114 l 536 0 l 267 0 l 290 114 l 71 114 l 107 281 l 326 281 l 336 329 l 308 433 l 140 433 l 175 600 l 260 600 l 161 986 l 454 986 l 521 560 l 771 986 l 1065 986 l 801 600 z "},"ỳ":{"ha":754,"x_min":-78,"x_max":799,"o":"m -78 -129 q -10 -126 -39 -129 q 40 -116 18 -124 q 80 -96 63 -108 q 114 -62 97 -83 l 154 -15 l 58 731 l 326 731 l 343 224 l 390 301 q 481 494 440 385 q 546 731 522 604 l 799 731 q 758 605 779 664 q 706 481 738 546 q 627 335 674 415 q 513 143 581 254 l 401 -36 q 302 -172 351 -117 q 199 -260 253 -226 q 85 -310 146 -294 q -47 -325 25 -325 l -78 -129 m 313 1014 l 546 1014 l 569 817 l 386 797 l 313 1014 z "},"ỹ":{"ha":754,"x_min":-78,"x_max":799,"o":"m -78 -129 q -10 -126 -39 -129 q 40 -116 18 -124 q 80 -96 63 -108 q 114 -62 97 -83 l 154 -15 l 58 731 l 326 731 l 343 224 l 390 301 q 481 494 440 385 q 546 731 522 604 l 799 731 q 758 605 779 664 q 706 481 738 546 q 627 335 674 415 q 513 143 581 254 l 401 -36 q 302 -172 351 -117 q 199 -260 253 -226 q 85 -310 146 -294 q -47 -325 25 -325 l -78 -129 m 547 794 q 496 805 517 794 q 458 828 475 815 q 423 851 440 840 q 383 861 406 861 q 347 851 361 861 q 324 829 332 842 q 313 806 315 817 q 310 794 310 796 l 169 794 q 192 849 174 813 q 240 922 210 886 q 313 986 271 958 q 404 1014 354 1014 q 458 1003 438 1014 q 497 978 479 992 q 530 954 514 965 q 568 943 546 943 q 604 953 589 943 q 629 977 619 964 q 644 1001 639 990 q 649 1014 649 1013 l 788 1014 q 766 966 785 1001 q 716 892 747 931 q 642 824 685 854 q 547 794 599 794 z "},"z":{"ha":656,"x_min":-58,"x_max":676,"o":"m -25 156 l 363 550 l 79 550 l 118 731 l 676 731 l 643 575 l 256 181 l 572 181 l 533 0 l -58 0 l -25 156 z "},"ź":{"ha":656,"x_min":-58,"x_max":676,"o":"m 467 800 l 289 817 l 396 1014 l 629 1014 l 467 800 m -25 156 l 363 550 l 79 550 l 118 731 l 676 731 l 643 575 l 256 181 l 572 181 l 533 0 l -58 0 l -25 156 z "},"ž":{"ha":656,"x_min":-58,"x_max":676,"o":"m 182 956 l 328 1014 l 421 926 l 551 1014 l 672 956 l 488 796 l 299 796 l 182 956 m -25 156 l 363 550 l 79 550 l 118 731 l 676 731 l 643 575 l 256 181 l 572 181 l 533 0 l -58 0 l -25 156 z "},"ż":{"ha":656,"x_min":-58,"x_max":676,"o":"m -25 156 l 363 550 l 79 550 l 118 731 l 676 731 l 643 575 l 256 181 l 572 181 l 533 0 l -58 0 l -25 156 m 290 806 l 335 1014 l 571 1014 l 526 806 l 290 806 z "},"₀":{"ha":689,"x_min":-21,"x_max":606,"o":"m 228 -133 q 115 -110 163 -133 q 38 -50 68 -87 q -6 33 8 -12 q -21 125 -21 79 q 8 251 -21 188 q 89 367 38 315 q 210 453 140 419 q 360 486 279 486 q 470 463 424 486 q 547 401 517 439 q 592 317 578 364 q 606 225 606 271 q 576 100 606 164 q 497 -16 547 36 q 377 -101 446 -68 q 228 -133 308 -133 m 136 146 q 143 99 136 122 q 165 58 150 76 q 203 29 181 40 q 260 18 226 18 q 341 37 306 18 q 401 84 376 56 q 437 145 425 113 q 449 206 449 178 q 442 253 449 229 q 419 294 435 276 q 381 324 404 313 q 326 335 358 335 q 244 316 279 335 q 184 269 208 297 q 148 207 160 240 q 136 146 136 174 z "},"⁰":{"ha":689,"x_min":118,"x_max":744,"o":"m 365 519 q 253 542 300 519 q 176 603 207 565 q 132 686 146 640 q 118 778 118 732 q 147 904 118 840 q 228 1020 176 968 q 349 1106 279 1072 q 497 1139 418 1139 q 609 1115 563 1139 q 686 1054 656 1092 q 731 970 717 1017 q 744 878 744 924 q 715 753 744 817 q 635 637 686 689 q 515 552 583 585 q 365 519 446 519 m 275 799 q 282 752 275 775 q 303 711 289 729 q 342 682 318 693 q 399 671 365 671 q 479 690 444 671 q 538 737 514 708 q 574 798 563 765 q 586 858 586 831 q 579 906 586 882 q 558 947 572 929 q 520 976 543 965 q 465 988 497 988 q 383 969 418 988 q 323 922 347 950 q 287 860 299 893 q 275 799 275 826 z "}," ":{"ha":1243,"x_min":0,"x_max":0,"o":""}," ":{"ha":824,"x_min":0,"x_max":0,"o":""},"₤":{"ha":771,"x_min":18,"x_max":824,"o":"m 97 642 l 185 642 q 183 665 183 653 q 182 688 182 676 q 213 808 182 751 q 293 905 243 864 q 409 969 343 946 q 546 993 475 993 q 708 955 635 993 q 824 847 781 917 l 657 685 q 587 753 632 725 q 500 781 542 781 q 435 754 460 781 q 411 683 411 728 q 415 642 411 663 l 608 642 l 574 475 l 436 475 q 435 452 436 463 q 433 433 435 442 l 565 433 l 529 267 l 357 267 q 328 235 343 251 q 296 203 314 219 q 356 219 331 214 q 404 224 382 224 q 486 213 444 224 q 569 203 528 203 q 610 207 592 203 q 654 221 629 211 l 676 26 q 596 -8 643 6 q 508 -21 549 -21 q 446 -14 478 -21 q 381 2 414 -7 q 315 18 349 11 q 249 25 282 25 q 156 15 211 25 q 47 -12 101 4 l 35 174 q 136 267 90 206 l 18 267 l 54 433 l 206 433 q 206 445 206 440 q 207 457 207 450 q 207 466 207 461 q 206 475 207 471 l 63 475 l 97 642 z "},"₦":{"ha":1154,"x_min":7,"x_max":1175,"o":"m 1139 601 l 1035 601 l 985 365 l 1089 365 l 1054 199 l 949 199 l 907 0 l 692 0 l 589 199 l 382 199 l 340 0 l 69 0 l 111 199 l 7 199 l 43 365 l 146 365 l 196 601 l 93 601 l 128 768 l 232 768 l 278 986 l 490 986 l 599 768 l 799 768 l 846 986 l 1117 986 l 1069 768 l 1175 768 l 1139 601 m 418 365 l 504 365 l 443 485 l 418 365 m 739 485 l 764 601 l 681 601 l 739 485 z "},"₩":{"ha":1546,"x_min":-1,"x_max":1606,"o":"m 35 308 l 279 308 l 256 461 l 67 461 l 101 628 l 229 628 l 174 986 l 467 986 l 492 628 l 601 628 l 563 986 l 811 986 l 825 682 l 968 986 l 1217 986 l 1022 628 l 1133 628 l 1311 986 l 1606 986 l 1397 628 l 1532 628 l 1497 461 l 1300 461 l 1211 308 l 1465 308 l 1429 142 l 1114 142 l 1032 0 l 807 0 l 754 353 l 553 0 l 328 0 l 306 142 l -1 142 l 35 308 m 978 310 l 1051 461 l 967 461 l 978 310 m 515 310 l 588 461 l 504 461 l 515 310 z "},"₣":{"ha":806,"x_min":-18,"x_max":900,"o":"m 44 0 l 67 106 l -18 106 l 18 272 l 101 272 l 254 986 l 900 986 l 849 750 l 475 750 l 440 586 l 744 586 l 697 367 l 393 367 l 372 272 l 510 272 l 475 106 l 338 106 l 315 0 l 44 0 z "},"₡":{"ha":782,"x_min":14,"x_max":790,"o":"m 163 22 q 51 134 88 63 q 14 293 14 206 q 34 422 14 358 q 92 542 54 486 q 185 642 131 599 q 310 713 240 686 l 349 896 l 465 896 l 432 742 q 460 744 446 743 q 489 744 474 744 q 500 744 494 744 q 511 743 506 743 l 544 896 l 661 896 l 624 722 q 731 653 690 699 q 790 546 772 607 l 517 468 q 440 522 494 522 q 384 508 411 522 q 335 467 357 493 q 301 403 314 440 q 289 322 289 367 q 312 239 289 269 q 374 208 335 208 q 472 263 426 208 l 713 185 q 608 76 668 122 q 471 7 547 31 l 435 -167 l 318 -167 l 351 -12 q 340 -14 344 -14 q 328 -14 335 -14 q 272 -10 297 -14 l 239 -167 l 124 -167 l 163 22 z "},"̏":{"ha":533,"x_min":38,"x_max":496,"o":"m 296 1014 l 486 1014 l 496 817 l 357 797 l 296 1014 m 38 1014 l 229 1014 l 238 817 l 99 797 l 38 1014 z "},"̑":{"ha":494,"x_min":28,"x_max":467,"o":"m 28 789 q 63 880 38 839 q 122 951 88 921 q 200 997 157 981 q 292 1014 243 1014 q 422 965 378 1014 q 467 840 467 915 q 461 789 467 813 l 325 789 q 329 833 329 814 q 267 901 329 901 q 204 878 233 901 q 163 789 175 856 l 28 789 l 28 789 z "},"¤":{"ha":814,"x_min":83,"x_max":753,"o":"m 278 704 q 344 727 308 719 q 421 735 379 735 q 496 727 461 735 q 560 707 531 719 l 654 803 l 753 704 l 665 617 q 696 547 685 585 q 707 469 707 510 q 664 321 707 388 l 753 232 l 661 140 l 563 233 q 421 204 504 204 q 275 235 339 204 l 175 140 l 83 232 l 175 324 q 135 469 135 389 q 144 544 135 508 q 174 613 154 581 l 83 704 l 182 803 l 278 704 m 319 469 q 348 389 319 418 q 421 360 376 360 q 494 389 465 360 q 522 469 522 418 q 494 550 522 521 q 421 579 465 579 q 348 550 376 579 q 319 469 319 521 z "},"№":{"ha":1510,"x_min":0,"x_max":1572,"o":"m 374 485 l 271 0 l 0 0 l 210 986 l 421 986 l 671 485 l 776 986 l 1047 986 l 838 0 l 624 0 l 374 485 m 1254 463 q 1163 479 1201 463 q 1100 524 1125 496 q 1063 591 1075 553 q 1050 672 1050 629 q 1072 790 1050 732 q 1135 893 1094 849 q 1235 965 1176 938 q 1368 993 1294 993 q 1459 976 1421 993 q 1522 931 1497 960 q 1560 865 1547 903 q 1572 785 1572 828 q 1551 666 1572 724 q 1488 563 1529 608 q 1388 490 1447 518 q 1254 463 1329 463 m 1236 694 q 1250 638 1236 658 q 1288 618 1264 618 q 1357 659 1328 618 q 1386 761 1386 700 q 1372 817 1386 797 q 1335 838 1358 838 q 1265 797 1294 838 q 1236 694 1236 756 z "},"₹":{"ha":783,"x_min":74,"x_max":850,"o":"m 760 560 l 619 560 q 542 449 592 499 q 428 363 493 399 l 589 0 l 283 0 l 74 511 l 286 511 q 342 560 313 511 l 88 560 l 124 726 l 372 726 q 358 764 368 750 q 338 778 349 778 l 135 778 l 178 986 l 850 986 l 814 819 l 631 819 q 644 774 639 797 q 651 726 650 750 l 794 726 l 760 560 z "},"℠":{"ha":1146,"x_min":83,"x_max":1189,"o":"m 936 986 l 1189 986 l 1099 557 l 932 557 l 979 781 l 885 615 l 751 615 l 726 781 l 679 557 l 513 557 l 604 986 l 857 986 l 857 804 l 936 986 m 460 835 q 392 864 418 854 q 340 874 367 874 q 313 870 325 874 q 301 856 301 867 q 314 842 301 847 q 363 826 326 836 q 472 781 440 807 q 503 715 503 756 q 488 647 503 678 q 444 594 472 617 q 376 560 415 572 q 290 549 338 549 q 235 553 264 549 q 178 564 206 557 q 126 580 150 571 q 83 600 101 589 l 168 719 q 244 683 208 696 q 313 671 281 671 q 351 686 351 671 q 337 699 351 693 q 285 715 322 704 q 184 760 214 735 q 154 822 154 785 q 171 890 154 858 q 216 944 188 921 q 283 981 244 968 q 365 994 321 994 q 543 947 449 994 l 460 835 z "},"Ə":{"ha":1017,"x_min":21,"x_max":1011,"o":"m 411 -7 q 235 30 308 -7 q 113 124 161 67 q 43 253 65 182 q 21 394 21 325 q 33 496 21 453 q 60 571 46 539 l 718 571 q 720 590 719 581 q 721 607 721 599 q 678 719 721 685 q 576 754 635 754 q 523 747 550 754 q 471 725 496 739 q 426 691 446 711 q 393 644 406 671 l 126 724 q 333 918 206 844 q 624 992 460 992 q 797 956 724 992 q 917 862 869 919 q 988 732 965 804 q 1011 588 1011 660 q 969 385 1011 490 q 849 193 926 281 q 660 49 771 106 q 411 -7 549 -7 m 465 229 q 590 267 536 229 q 669 372 643 304 l 310 372 q 306 342 306 356 q 351 259 306 289 q 465 229 397 229 z "},"≈":{"ha":654,"x_min":51,"x_max":588,"o":"m 588 533 q 560 486 576 510 q 523 444 544 463 q 475 413 501 425 q 415 401 449 401 q 359 412 383 401 q 314 435 335 422 q 273 458 293 447 q 229 468 253 468 q 193 458 206 468 q 174 436 181 449 l 51 497 q 78 542 63 519 q 114 582 93 564 q 160 610 135 600 q 218 621 186 621 q 276 610 251 621 q 322 585 301 599 q 363 561 343 572 q 406 550 382 550 q 445 562 431 550 q 467 589 460 574 l 588 533 m 588 278 q 560 231 576 254 q 523 188 544 207 q 475 158 501 169 q 415 146 449 146 q 359 156 383 146 q 314 179 335 167 q 273 202 293 192 q 229 213 253 213 q 193 203 206 213 q 174 181 181 193 l 51 242 q 78 286 63 264 q 114 326 93 308 q 160 355 135 344 q 218 365 186 365 q 276 354 251 365 q 322 330 301 343 q 363 306 343 317 q 406 294 382 294 q 445 306 431 294 q 467 333 460 318 l 588 278 z "},"≠":{"ha":642,"x_min":86,"x_max":536,"o":"m 88 613 l 361 613 l 446 793 l 536 746 l 472 613 l 536 613 l 536 446 l 394 446 l 335 321 l 536 321 l 536 154 l 257 154 l 176 -17 l 86 28 l 146 154 l 88 154 l 88 321 l 224 321 l 282 446 l 88 446 l 88 613 z "},"≤":{"ha":690,"x_min":67,"x_max":594,"o":"m 67 1 l 67 210 l 594 210 l 594 1 l 67 1 m 72 683 l 593 917 l 593 664 l 318 588 l 593 522 l 593 269 l 72 478 l 72 683 z "},"≥":{"ha":736,"x_min":124,"x_max":651,"o":"m 124 210 l 651 210 l 651 1 l 124 1 l 124 210 m 125 522 l 400 588 l 125 664 l 125 917 l 646 683 l 646 478 l 125 269 l 125 522 z "},"Ǳ":{"ha":1774,"x_min":-4,"x_max":1843,"o":"m 206 986 l 569 986 q 739 956 667 986 q 859 874 811 926 q 930 752 907 822 q 953 601 953 682 q 908 360 953 471 q 783 170 863 250 q 594 45 703 90 q 360 0 486 0 l -4 0 l 206 986 m 410 236 q 517 263 468 236 q 600 334 565 289 q 654 438 635 379 q 674 563 674 497 q 634 699 674 647 q 519 750 594 750 l 426 750 l 317 236 l 410 236 m 942 201 l 1479 750 l 1079 750 l 1129 986 l 1843 986 l 1800 785 l 1289 236 l 1692 236 l 1642 0 l 899 0 l 942 201 z "},"ǲ":{"ha":1610,"x_min":-4,"x_max":1631,"o":"m 206 986 l 569 986 q 739 956 667 986 q 859 874 811 926 q 930 752 907 822 q 953 601 953 682 q 908 360 953 471 q 783 170 863 250 q 594 45 703 90 q 360 0 486 0 l -4 0 l 206 986 m 410 236 q 517 263 468 236 q 600 334 565 289 q 654 438 635 379 q 674 563 674 497 q 634 699 674 647 q 519 750 594 750 l 426 750 l 317 236 l 410 236 m 929 156 l 1317 550 l 1033 550 l 1072 731 l 1631 731 l 1597 575 l 1210 181 l 1526 181 l 1488 0 l 896 0 l 929 156 z "},"ǳ":{"ha":1551,"x_min":10,"x_max":1572,"o":"m 268 -14 q 159 8 207 -14 q 78 68 111 29 q 27 161 44 107 q 10 281 10 215 q 42 459 10 375 q 128 607 74 543 q 253 708 182 671 q 404 744 325 744 q 519 713 471 744 q 583 622 567 681 l 667 1014 l 932 1014 l 778 292 q 774 258 774 271 q 811 222 774 224 l 764 0 q 651 -14 694 -14 q 553 8 592 -14 q 515 86 515 31 q 516 100 515 93 q 518 114 517 107 q 402 17 468 47 q 268 -14 336 -14 m 388 208 q 450 227 421 208 q 514 283 479 246 l 542 414 q 508 492 535 463 q 443 522 481 522 q 386 506 414 522 q 336 462 358 489 q 301 399 314 435 q 288 324 288 363 q 313 240 288 271 q 388 208 339 208 m 871 156 l 1258 550 l 975 550 l 1014 731 l 1572 731 l 1539 575 l 1151 181 l 1468 181 l 1429 0 l 838 0 l 871 156 z "},"Ǉ":{"ha":1461,"x_min":-4,"x_max":1508,"o":"m 206 986 l 476 986 l 317 236 l 732 236 l 682 0 l -4 0 l 206 986 m 907 -15 q 717 46 789 -15 l 819 267 q 833 257 822 264 q 863 243 844 250 q 906 231 882 236 q 958 225 931 225 q 1023 239 997 225 q 1067 284 1049 253 q 1101 365 1086 315 q 1131 485 1115 414 l 1238 986 l 1508 986 l 1401 485 q 1346 280 1378 372 q 1260 122 1314 188 q 1121 21 1206 57 q 907 -15 1036 -15 z "},"ǈ":{"ha":1186,"x_min":-4,"x_max":1246,"o":"m 206 986 l 476 986 l 317 236 l 732 236 l 682 0 l -4 0 l 206 986 m 692 -290 q 588 -271 636 -290 q 507 -215 540 -251 l 653 -36 q 706 -64 669 -64 q 765 -4 751 -64 l 921 731 l 1186 731 l 1035 17 q 988 -108 1019 -51 q 910 -205 956 -164 q 809 -268 865 -246 q 692 -290 753 -290 m 982 1014 l 1246 1014 l 1199 792 l 935 792 l 982 1014 z "},"ǉ":{"ha":882,"x_min":7,"x_max":942,"o":"m 183 -14 q 51 24 96 -14 q 7 135 7 63 q 8 165 7 150 q 14 197 10 181 l 188 1014 l 451 1014 l 297 290 q 293 260 293 274 q 343 207 293 207 q 378 213 358 207 q 415 228 397 218 l 407 33 q 296 -1 357 11 q 183 -14 235 -14 m 388 -290 q 284 -271 332 -290 q 203 -215 236 -251 l 349 -36 q 401 -64 365 -64 q 461 -4 447 -64 l 617 731 l 882 731 l 731 17 q 683 -108 715 -51 q 606 -205 651 -164 q 505 -268 561 -246 q 388 -290 449 -290 m 678 1014 l 942 1014 l 894 792 l 631 792 l 678 1014 z "},"Ǌ":{"ha":1685,"x_min":-4,"x_max":1732,"o":"m 206 986 l 417 986 l 667 485 l 772 986 l 1043 986 l 833 0 l 619 0 l 369 485 l 267 0 l -4 0 l 206 986 m 1131 -15 q 940 46 1013 -15 l 1043 267 q 1057 257 1046 264 q 1087 243 1068 250 q 1130 231 1106 236 q 1182 225 1154 225 q 1247 239 1221 225 q 1291 284 1272 253 q 1324 365 1310 315 q 1354 485 1339 414 l 1461 986 l 1732 986 l 1625 485 q 1569 280 1601 372 q 1483 122 1538 188 q 1344 21 1429 57 q 1131 -15 1260 -15 z "},"ǋ":{"ha":1410,"x_min":-4,"x_max":1469,"o":"m 206 986 l 417 986 l 667 485 l 772 986 l 1043 986 l 833 0 l 619 0 l 369 485 l 267 0 l -4 0 l 206 986 m 915 -290 q 812 -271 860 -290 q 731 -215 764 -251 l 876 -36 q 929 -64 893 -64 q 989 -4 975 -64 l 1144 731 l 1410 731 l 1258 17 q 1211 -108 1243 -51 q 1134 -205 1179 -164 q 1033 -268 1089 -246 q 915 -290 976 -290 m 1206 1014 l 1469 1014 l 1422 792 l 1158 792 l 1206 1014 z "},"ǌ":{"ha":1238,"x_min":-22,"x_max":1297,"o":"m 133 731 l 371 731 l 347 622 q 469 713 396 682 q 632 744 542 744 q 715 731 682 744 q 766 693 747 717 q 792 640 785 669 q 799 579 799 610 q 795 528 799 553 q 788 481 792 503 l 686 0 l 422 0 l 510 411 q 514 447 514 432 q 498 498 514 482 q 460 514 482 514 q 394 485 432 514 q 329 410 356 456 l 242 0 l -22 0 l 133 731 m 743 -290 q 640 -271 688 -290 q 558 -215 592 -251 l 704 -36 q 757 -64 721 -64 q 817 -4 803 -64 l 972 731 l 1238 731 l 1086 17 q 1039 -108 1071 -51 q 962 -205 1007 -164 q 860 -268 917 -246 q 743 -290 804 -290 m 1033 1014 l 1297 1014 l 1250 792 l 986 792 l 1033 1014 z "},"Ǆ":{"ha":1786,"x_min":-4,"x_max":1856,"o":"m 206 986 l 569 986 q 739 956 667 986 q 859 874 811 926 q 930 752 907 822 q 953 601 953 682 q 908 360 953 471 q 783 170 863 250 q 594 45 703 90 q 360 0 486 0 l -4 0 l 206 986 m 410 236 q 517 263 468 236 q 600 334 565 289 q 654 438 635 379 q 674 563 674 497 q 634 699 674 647 q 519 750 594 750 l 426 750 l 317 236 l 410 236 m 1285 1214 l 1431 1272 l 1524 1185 l 1654 1272 l 1775 1214 l 1590 1054 l 1401 1054 l 1285 1214 m 954 201 l 1492 750 l 1092 750 l 1142 986 l 1856 986 l 1813 785 l 1301 236 l 1704 236 l 1654 0 l 911 0 l 954 201 z "}}}
